<svg width="96" height="96" viewBox="0 0 96 96" fill="none" xmlns="http://www.w3.org/2000/svg">
<rect x="45" y="8" width="40" height="40" rx="8" fill="#A12CDD" fill-opacity="0.16"/>
<path d="M50 74C50 69.5817 53.5817 66 58 66H64C68.4183 66 72 69.5817 72 74V86C72 87.1046 71.1046 88 70 88H52C50.8954 88 50 87.1046 50 86V74Z" fill="#474748"/>
<path d="M11 74C11 69.5817 14.5817 66 19 66H25C29.4183 66 33 69.5817 33 74V86C33 87.1046 32.1046 88 31 88H13C11.8954 88 11 87.1046 11 86V74Z" fill="#474748"/>
<path d="M54 89.75H55.75V88V69C55.75 63.6152 51.3848 59.25 46 59.25H37C31.6152 59.25 27.25 63.6152 27.25 69V88V89.75H29H54Z" fill="#474748" stroke="white" stroke-width="3.5"/>
<circle cx="41.5" cy="47.5" r="9.5" fill="#474748"/>
<circle cx="62" cy="54" r="8" fill="#474748"/>
<circle cx="21" cy="54" r="8" fill="#474748"/>
</svg>
