<svg width="100" height="100" viewBox="0 0 100 100" fill="none" xmlns="http://www.w3.org/2000/svg">
<rect opacity="0.2" x="60" width="40" height="40" rx="4" fill="#A12CDD"/>
<path d="M25.1328 79.9419L52.2714 65.5726C52.9786 65.1975 53.8411 65.2492 54.5096 65.702L75.2613 80.0713C76.0376 80.6103 76.3739 81.5893 76.0893 82.4906C75.8133 83.3833 74.9767 84 74.0366 84H26.1463C25.1587 84 24.2919 83.3272 24.0547 82.3612C23.8132 81.3995 24.2617 80.4033 25.1328 79.9419Z" fill="#474747"/>
<path d="M16.0499 75.8451L22.4324 47.1109C22.5877 46.4079 23.0836 45.8344 23.7521 45.5713C24.4248 45.3083 25.1795 45.3988 25.766 45.8042L46.5221 60.1734C47.1431 60.6047 47.4924 61.3249 47.4449 62.0709C47.4018 62.8256 46.9663 63.4984 46.3021 63.8477L19.1679 78.2169C18.8488 78.3851 18.5037 78.4714 18.1587 78.4714C17.6973 78.4714 17.2359 78.3248 16.8521 78.0272C16.1836 77.5183 15.8688 76.6688 16.0499 75.8451Z" fill="#474747"/>
<path d="M31.0667 42.3887C31.3513 41.4874 32.1837 40.875 33.1281 40.875H52.8103C56.3897 47.3567 61.6855 53.5537 63.8633 55.9774C65.088 57.3401 66.8432 58.125 68.676 58.125C70.5088 58.125 72.264 57.3401 73.4888 55.9774C74.3297 55.0416 75.6321 53.5451 77.1242 51.6908L82.3423 75.1766C82.5321 76.0434 82.1741 76.9361 81.441 77.4321C81.0788 77.6779 80.6561 77.7986 80.2378 77.7986C79.8066 77.7986 79.3796 77.6736 79.0088 77.4148L31.9033 44.7994C31.1228 44.2689 30.7907 43.29 31.0667 42.3887Z" fill="#474747"/>
<path d="M68.6758 15C76.9989 15 83.7695 21.7706 83.7695 30.0938C83.7695 37.839 71.66 51.5571 70.28 53.0966C69.8703 53.5494 69.2882 53.8125 68.6758 53.8125C68.0634 53.8125 67.4812 53.5494 67.0715 53.0966C65.6915 51.5571 53.582 37.839 53.582 30.0938C53.582 21.7706 60.3527 15 68.6758 15ZM68.6758 36.5625C72.2465 36.5625 75.1445 33.6645 75.1445 30.0938C75.1445 26.523 72.2465 23.625 68.6758 23.625C65.105 23.625 62.207 26.523 62.207 30.0938C62.207 33.6645 65.105 36.5625 68.6758 36.5625Z" fill="#474747"/>
</svg>
