<svg width="100" height="100" viewBox="0 0 100 100" fill="none" xmlns="http://www.w3.org/2000/svg">
<rect opacity="0.2" x="60" width="40" height="40" rx="4" fill="#A12CDD"/>
<path d="M22.413 45.9628C18.0899 47.5643 15 51.7285 15 56.6017C15 61.9745 18.7562 66.4866 23.7804 67.6513V71.4343C23.7804 72.4283 24.3559 73.3327 25.2564 73.7539C25.6023 73.916 25.9731 73.9952 26.3413 73.9952C26.9305 73.9952 27.5138 73.7924 27.9833 73.4001L34.5168 67.943H45.4729C49.9053 67.943 53.7498 65.3854 55.6142 61.6704H42.264C32.6308 61.6697 24.537 54.9564 22.413 45.9628Z" fill="#474747"/>
<path d="M69.9638 26H42.2636C33.8416 26 26.9902 32.852 26.9902 41.274C26.9902 49.6961 33.8416 56.5474 42.2636 56.5474H58.5428L68.3224 64.7158C68.792 65.1082 69.3753 65.3109 69.9645 65.3109C70.3326 65.3109 70.7028 65.2317 71.0494 65.0696C71.9498 64.6484 72.5253 63.744 72.5253 62.75V56.3329C79.7324 55.1114 85.2379 48.8238 85.2379 41.274C85.2379 32.852 78.3859 26 69.9638 26Z" fill="#474747"/>
</svg>
