<svg width="100" height="100" viewBox="0 0 100 100" fill="none" xmlns="http://www.w3.org/2000/svg">
<rect opacity="0.2" x="60" width="40" height="40" rx="4" fill="#A12CDD"/>
<path d="M78.242 22.9091H29.8181C29.6723 22.9091 29.5392 22.964 29.4025 23.0051L28.2123 19.0939C27.8338 17.8501 26.6865 17 25.3863 17H19.4773C18.6614 17 18 17.6614 18 18.4773V21.4318C18 22.2477 18.6614 22.9091 19.4773 22.9091H23.198L32.428 53.2407L28.9808 57.2625C27.6183 58.852 27.0047 61.0421 27.6318 63.0395C28.4339 65.594 30.6884 67.2271 33.2878 67.2271H75.6135C76.4294 67.2271 77.0909 66.5657 77.0909 65.7498V62.7953C77.0909 61.9794 76.4294 61.318 75.6135 61.318H33.2877L37.9706 55.8547C38.0883 55.7173 38.1748 55.5622 38.2642 55.4089H66.8913C69.181 55.4089 71.2647 54.0865 72.2397 52.0148L82.5484 30.1092C82.844 29.4787 82.9998 28.7791 82.9998 28.0851V27.6667C82.9998 25.0393 80.8697 22.9091 78.242 22.9091Z" fill="#474747"/>
<path d="M35.7275 81.9999C38.991 81.9999 41.6366 79.3543 41.6366 76.0908C41.6366 72.8272 38.991 70.1816 35.7275 70.1816C32.464 70.1816 29.8184 72.8272 29.8184 76.0908C29.8184 79.3543 32.464 81.9999 35.7275 81.9999Z" fill="#474747"/>
<path d="M71.1826 81.9999C74.4461 81.9999 77.0917 79.3543 77.0917 76.0908C77.0917 72.8272 74.4461 70.1816 71.1826 70.1816C67.919 70.1816 65.2734 72.8272 65.2734 76.0908C65.2734 79.3543 67.919 81.9999 71.1826 81.9999Z" fill="#474747"/>
</svg>
