<svg width="8" height="15" viewBox="0 0 8 15" fill="none" xmlns="http://www.w3.org/2000/svg">
<path d="M0.241935 7.989H1.88618V14.7581C1.88618 14.8917 1.99447 15 2.12811 15H4.91598C5.04963 15 5.15792 14.8917 5.15792 14.7581V8.02089H7.04811C7.17102 8.02089 7.27442 7.92866 7.28845 7.80658L7.57553 5.31455C7.58342 5.24598 7.56169 5.17732 7.51582 5.12589C7.4699 5.0744 7.40419 5.04494 7.33524 5.04494H5.15802V3.48281C5.15802 3.0119 5.41156 2.77311 5.91169 2.77311C5.98297 2.77311 7.33524 2.77311 7.33524 2.77311C7.46889 2.77311 7.57718 2.66477 7.57718 2.53118V0.243726C7.57718 0.110081 7.46889 0.00179032 7.33524 0.00179032H5.37339C5.35955 0.0011129 5.32882 0 5.28353 0C4.94313 0 3.75992 0.0668225 2.82527 0.926661C1.78969 1.8795 1.93364 3.02037 1.96805 3.21818V5.04489H0.241935C0.10829 5.04489 0 5.15318 0 5.28682V7.74702C0 7.88066 0.10829 7.989 0.241935 7.989Z" fill="#A12CDD"/>
</svg>
