<svg width="268" height="268" viewBox="0 0 268 268" fill="none" xmlns="http://www.w3.org/2000/svg">
<g opacity="0.14">
<path d="M-128.068 619.529C-109.855 619.529 -91.4473 618.947 -72.8463 617.785C31.7842 611.1 98.9221 577.967 132.443 516.642C161.507 463.455 161.022 397.286 160.538 338.964C160.247 300.018 159.957 263.204 168.773 236.465C198.127 147.529 230.485 127.668 249.861 115.849C261.1 108.873 268.559 104.32 267.881 90.3693C267.203 76.7092 217.116 59.2708 110.354 35.4383C64.1422 25.169 28.2965 34.082 -0.476868 41.2511C-14.912 44.8357 -27.4095 47.9358 -38.357 47.9358V48.9046V47.9358C-68.4867 47.8389 -76.7215 44.545 -94.8381 37.3759C-109.855 31.3693 -132.621 22.2626 -181.352 10.0557C-224.27 -0.7949 -291.117 -3.02314 -355.93 4.14599C-392.841 8.21495 -427.815 14.9966 -459.979 24.3939C-496.019 34.9539 -527.602 48.4202 -553.953 64.5992C-602.781 94.632 -632.814 133.093 -643.18 178.918C-653.449 224.161 -652.093 270.373 -639.305 316.391C-626.516 362.118 -603.071 405.23 -569.551 444.563C-520.723 501.819 -452.423 548.031 -372.012 578.064C-329.094 594.146 -282.786 605.675 -234.152 612.36C-199.953 617.107 -164.398 619.529 -128.068 619.529ZM68.4049 32.6288C81.29 32.6288 95.047 33.8882 109.966 37.279C158.503 48.1296 194.64 57.4301 220.41 65.8586C257.709 77.9687 265.75 85.9128 265.944 90.4662C266.622 103.351 260.324 107.13 248.893 114.105C229.323 126.118 196.577 146.075 167.029 235.786C158.116 262.816 158.407 299.727 158.697 338.867C159.085 396.995 159.666 462.873 130.796 515.673C97.5658 576.417 30.9123 609.163 -72.9432 615.847C-128.552 619.432 -182.708 617.591 -233.861 610.519C-282.398 603.834 -328.61 592.305 -371.334 576.32C-451.454 546.384 -519.561 500.366 -568.098 443.304C-601.424 404.164 -624.773 361.246 -637.464 315.906C-650.252 270.179 -651.511 224.258 -641.339 179.402C-631.167 133.965 -601.424 95.8915 -553.081 66.2462C-526.924 50.1641 -495.438 36.6977 -459.495 26.2347C-427.428 16.8373 -392.454 10.0557 -355.736 5.98671C-291.117 -1.08554 -224.464 1.1427 -181.837 11.7995C-133.203 24.0064 -110.533 33.1132 -95.5163 39.0228C-77.2059 46.2889 -68.8742 49.6797 -38.357 49.7765C-38.2601 49.7765 -38.2601 49.7765 -38.1632 49.7765C-27.022 49.7765 -14.4276 46.6764 0.00753784 43.0918C19.1898 38.2478 41.666 32.6288 68.4049 32.6288Z" fill="#676767"/>
<path d="M-137.367 585.427C-122.641 585.427 -107.722 585.039 -92.7055 584.167C1.75261 579.033 63.2715 550.356 95.1451 496.491C122.853 449.698 124.403 390.795 125.759 338.77C126.728 302.537 127.6 268.338 137.191 243.343C166.836 163.417 197.838 143.944 216.439 132.318C227.677 125.246 235.04 120.693 234.556 107.13C234.362 99.4761 220.605 90.2725 193.672 79.7126C169.355 70.2183 135.35 60.1428 95.2419 50.4548C53.3897 40.1855 20.6442 47.1608 -5.61028 52.7799C-18.3016 55.4925 -29.249 57.8177 -39.2277 57.9145C-70.6169 58.0114 -78.4641 55.4925 -101.522 48.2265C-117.022 43.2856 -138.336 36.504 -177.476 27.0098C-217.584 17.2249 -279.975 15.2873 -340.331 21.7782C-374.82 25.4597 -407.469 31.7569 -437.502 40.3792C-471.119 50.0672 -500.571 62.5648 -524.985 77.4843C-569.065 104.417 -596.482 138.906 -606.364 180.08C-616.149 221.448 -615.471 263.882 -604.136 306.025C-592.898 347.974 -571.778 387.598 -541.551 423.831C-497.761 476.146 -436.242 518.483 -363.582 546.287C-324.83 561.11 -282.881 571.864 -238.898 578.258C-206.249 583.102 -172.244 585.427 -137.367 585.427ZM52.1303 47.064C65.2091 47.064 79.3536 48.5172 94.7575 52.2955C179.625 72.7372 232.521 93.7602 232.812 107.227C233.296 119.821 226.611 123.987 215.47 130.962C196.675 142.685 165.383 162.351 135.544 242.859C125.856 268.048 124.887 302.44 124.015 338.867C122.659 390.698 121.206 449.31 93.6918 495.716C62.1089 549 1.07448 577.386 -92.8024 582.52C-143.277 585.427 -192.298 583.392 -238.607 576.708C-282.494 570.314 -324.346 559.56 -362.904 544.834C-435.274 517.126 -496.502 474.984 -540.195 422.862C-570.325 386.823 -591.348 347.489 -602.489 305.734C-613.727 263.785 -614.502 221.739 -604.717 180.662C-594.932 140.069 -567.903 105.87 -524.113 79.1313C-491.852 59.3677 -433.724 33.7914 -340.234 23.7158C-280.072 17.2249 -217.972 19.2594 -178.057 28.9474C-138.917 38.4416 -117.701 45.2232 -102.2 50.0672C-79.5298 57.2364 -71.0044 59.949 -39.3246 59.8521C-29.249 59.8521 -18.2047 57.4301 -5.41653 54.7175C11.0531 51.036 30.0416 47.064 52.1303 47.064Z" fill="#676767"/>
<path d="M-147.15 551.519C-135.815 551.519 -124.286 551.228 -112.66 550.647C-28.2778 546.965 27.5252 522.649 57.7518 476.243C84.1032 435.844 87.5909 384.11 90.5941 338.383C92.8224 305.056 94.9537 273.473 105.417 250.415C135.159 179.596 164.901 160.511 182.63 149.176C193.965 141.91 201.425 137.162 201.134 123.987C201.328 105.967 138.453 81.0689 79.9373 65.5681C42.1541 55.2019 12.4119 60.3365 -11.4207 64.5024C-22.2712 66.3431 -31.5717 67.9901 -40.291 68.0869C-75.9428 68.3776 -82.5307 66.7306 -118.861 57.6239C-132.521 54.1362 -149.572 49.8735 -173.889 44.2544C-198.69 38.4416 -233.082 35.6321 -270.575 36.2134C-312.815 36.8915 -355.248 42.0262 -393.516 50.8423C-438.759 61.3053 -476.445 76.6124 -505.606 96.3759C-539.611 119.337 -561.119 147.916 -569.741 181.243C-579.138 218.832 -578.945 257.294 -569.16 295.755C-559.472 334.023 -540.774 370.159 -513.647 403.195C-474.798 450.57 -420.061 489.031 -355.248 514.608C-292.761 539.118 -222.91 551.519 -147.15 551.519ZM35.1787 61.1116C48.645 61.1116 63.3708 62.6617 79.6467 67.1181C149.304 85.5254 199.778 109.455 199.681 123.987C199.972 136.291 193.19 140.65 181.952 147.819C164.029 159.251 133.996 178.53 104.06 249.834C93.4036 273.182 91.3692 304.862 89.044 338.383C86.0408 383.819 82.5531 435.36 56.3954 475.468C26.4595 521.389 -28.8591 545.415 -112.757 549.097C-201.693 553.36 -283.073 541.25 -354.57 513.057C-419.092 487.675 -473.636 449.31 -512.291 402.13C-539.224 369.287 -557.825 333.345 -567.416 295.271C-577.104 257.1 -577.298 218.832 -567.997 181.534C-559.569 148.594 -538.255 120.402 -504.541 97.6354C-475.573 78.0656 -437.984 62.7585 -392.935 52.3924C-354.764 43.5763 -312.427 38.5385 -270.381 37.7635C-232.986 37.1822 -198.787 39.9917 -174.082 45.7076C-149.766 51.3267 -132.811 55.5894 -119.151 59.0771C-82.6276 68.2807 -76.0397 70.0245 -40.0972 69.7339C-31.2811 69.637 -21.8837 68.0869 -10.9362 66.1493C2.43321 63.8242 17.6434 61.1116 35.1787 61.1116Z" fill="#676767"/>
<path d="M-156.258 517.611C-148.41 517.611 -140.466 517.417 -132.522 517.127C-58.0211 514.995 -8.03093 494.941 20.4518 455.801C45.35 421.603 50.4847 378.975 55.3287 337.704C58.9133 307.381 62.4009 278.704 73.8328 257.488C103.575 195.775 130.798 177.949 148.915 166.13C160.831 158.379 168 153.632 168 140.747C168.678 124.278 123.435 97.8292 64.9198 80.5846C30.818 69.9277 3.8853 73.3185 -17.6221 75.9343C-25.8569 77 -33.7042 77.9688 -40.8733 78.0657L-44.5548 78.1625C-86.6007 78.7438 -89.9915 78.8407 -169.724 61.2085C-192.103 56.2676 -224.267 53.6519 -257.788 54.1363C-296.443 54.7176 -335.195 58.9803 -370.072 66.7307C-411.44 75.8374 -446.123 89.3038 -472.862 106.742C-504.154 127.087 -524.208 152.47 -532.443 182.212C-541.453 215.926 -541.841 250.609 -533.606 285.292C-525.468 319.782 -509.192 352.527 -485.263 382.463C-451.451 424.897 -403.399 459.58 -346.433 482.734C-289.952 505.888 -226.011 517.611 -156.258 517.611ZM16.9641 74.8686C31.0117 74.8686 46.8032 76.6125 64.4354 82.1346C121.304 98.8949 167.031 125.246 166.45 140.747C166.45 152.857 159.572 157.314 148.043 164.87C130.992 176.012 102.316 194.709 72.4765 256.81C60.9477 278.317 57.46 307.09 53.8755 337.511C48.9346 378.588 43.8968 421.118 19.2892 454.929C-8.90286 493.585 -58.5055 513.445 -132.522 515.576C-211.382 518.483 -283.171 506.954 -346.046 481.378C-402.818 458.223 -450.579 423.734 -484.197 381.494C-507.932 351.752 -524.112 319.2 -532.249 284.905C-540.387 250.415 -540 216.023 -531.087 182.599C-522.949 153.245 -503.185 128.153 -472.184 108.002C-445.542 90.6601 -411.052 77.2906 -369.878 68.1839C-335.098 60.5304 -296.443 56.1708 -257.885 55.5895C-224.461 55.1051 -192.491 57.7208 -170.111 62.6617C-90.1853 80.2939 -86.7945 80.197 -44.5548 79.6157L-40.8733 79.5189C-33.6073 79.422 -25.76 78.4532 -17.4283 77.3875C-7.25591 76.3218 4.07907 74.8686 16.9641 74.8686Z" fill="#676767"/>
<path d="M-165.367 483.8C-161.104 483.8 -156.744 483.703 -152.385 483.606C-7.64592 482.056 6.98298 404.648 19.7712 336.445C24.9058 309.318 29.6529 283.742 42.1505 264.463C71.602 211.857 97.5659 194.612 114.714 183.181C127.017 175.043 134.477 170.102 134.671 157.507C135.252 149.563 126.824 138.325 111.517 126.893C95.3377 114.686 73.3459 103.642 49.7071 95.6978C18.4148 84.2659 -5.22392 85.9129 -26.0531 87.3661C-31.5753 87.7536 -36.8069 88.1411 -41.8446 88.238C-49.4982 88.4317 -56.1829 88.7224 -61.9957 88.9161C-89.1221 90.0787 -105.495 90.8537 -165.948 78.3562C-204.506 70.412 -277.651 68.3776 -347.114 82.7158C-384.703 90.5631 -416.19 102.189 -440.7 117.302C-469.28 134.934 -487.784 157.217 -495.728 183.374C-504.35 213.31 -505.319 244.118 -498.635 275.12C-491.95 305.928 -478.096 335.185 -457.46 362.021C-428.59 399.417 -387.416 430.322 -338.201 451.248C-287.242 472.755 -229.114 483.8 -165.367 483.8ZM-3.28632 87.7536C11.9239 87.7536 28.9748 89.5943 49.2227 97.0541C99.9879 114.202 134.187 142.685 133.218 157.507C133.024 169.424 125.855 174.171 113.939 182.115C96.694 193.547 70.5364 210.888 40.891 263.785C28.2966 283.258 23.4526 308.931 18.318 336.154C11.827 370.74 5.04536 406.392 -18.0121 434.197C-44.3635 465.78 -88.3471 481.474 -152.482 482.153C-221.17 483.703 -283.464 472.852 -337.717 449.795C-386.641 428.965 -427.718 398.254 -456.395 361.052C-476.933 334.41 -490.69 305.346 -497.278 274.732C-503.866 244.021 -502.897 213.407 -494.372 183.762C-484.199 150.241 -450.388 105.676 -346.92 84.169C-277.554 69.7339 -204.7 71.7684 -166.239 79.7125C-105.592 92.2101 -89.1221 91.5319 -61.8988 90.2725C-55.9891 89.9818 -49.4013 89.6912 -41.7477 89.5943C-36.6131 89.4974 -31.3816 89.1099 -25.8594 88.7224C-18.7872 88.3349 -11.3274 87.7536 -3.28632 87.7536Z" fill="#676767"/>
<path d="M-167.693 450.182C-115.281 450.182 -78.0793 438.363 -54.2468 414.143C-32.5456 392.054 -24.2139 362.893 -16.1729 334.604C-9.48813 311.062 -3.09402 288.78 10.3723 271.632C39.1457 228.23 63.7533 211.76 80.0291 200.91C93.0111 192.19 100.858 186.959 101.246 174.461C102.893 157.604 74.7007 126.796 34.4955 110.811C3.49383 97.151 -18.7886 97.7323 -40.3929 98.2167L-42.8149 98.3136C-53.1811 98.6042 -61.9003 99.4761 -70.3289 100.251C-92.9019 102.479 -114.216 104.514 -162.268 95.504C-197.145 88.8193 -262.83 87.0755 -324.058 98.798C-375.695 108.68 -440.992 131.543 -458.818 184.44C-475.288 236.562 -464.631 293.818 -429.56 341.386C-405.631 373.841 -371.142 400.773 -329.774 419.374C-284.531 439.719 -232.216 449.988 -174.378 449.988C-173.7 449.988 -173.022 449.988 -172.344 449.988C-170.794 450.085 -169.243 450.182 -167.693 450.182ZM-27.2172 99.2824C-9.58501 99.2824 9.50039 101.123 34.1079 111.974C77.1227 129.025 101.44 159.736 100.083 174.268C99.6958 186.184 92.0423 191.222 79.4479 199.747C63.0751 210.695 38.4675 227.261 9.50038 270.857C-4.15972 288.199 -10.5538 310.578 -17.2385 334.217C-25.2796 362.312 -33.5144 391.376 -55.0218 413.174C-79.3387 437.878 -117.703 449.504 -172.247 448.826C-172.925 448.826 -173.603 448.826 -174.281 448.826C-231.925 448.826 -284.047 438.557 -329.096 418.309C-370.27 399.805 -404.565 372.969 -428.398 340.708C-445.739 317.166 -457.074 291.493 -462.209 264.56C-467.247 237.53 -465.697 210.695 -457.559 184.828C-440.023 132.512 -375.114 109.842 -323.767 100.057C-262.636 88.3349 -197.242 90.1756 -162.268 96.7635C-114.022 105.87 -92.6113 103.739 -69.9414 101.607C-61.5128 100.832 -52.8904 99.9605 -42.5243 99.6699L-40.1022 99.573C-35.9364 99.3792 -31.6737 99.2824 -27.2172 99.2824Z" fill="#676767"/>
<path d="M-178.253 416.952C-139.888 416.952 -111.405 408.911 -91.351 392.539C-71.3937 376.263 -61.7057 353.593 -52.3083 331.601C-44.2673 312.806 -35.9356 293.43 -21.3067 278.608C6.30415 244.506 29.2647 229.102 44.4749 218.929C58.6194 209.435 67.1449 203.719 67.9199 191.125C69.9544 175.14 52.0316 141.813 19.383 125.828C-3.67451 112.846 -22.4693 107.614 -43.686 108.292C-54.9241 108.777 -64.6121 110.327 -74.8814 111.974C-96.5826 115.461 -119.059 119.046 -158.392 112.555C-190.072 107.227 -248.297 105.676 -301.097 114.783C-346.921 122.63 -405.049 141.231 -422.003 185.603C-437.794 230.264 -430.432 279.673 -401.755 321.138C-382.767 348.555 -354.962 371.709 -321.345 387.985C-284.143 406.005 -240.74 415.596 -192.3 416.662C-187.456 416.759 -182.806 416.952 -178.253 416.952ZM-39.7139 109.455C-20.3379 109.455 -2.51194 114.783 18.9954 126.893C51.2565 142.685 68.8887 175.43 66.9511 191.028C66.1761 203.041 58.3288 208.369 43.9905 217.961C28.6835 228.133 5.626 243.634 -22.0817 277.832C-36.8075 292.849 -45.2361 312.322 -53.2771 331.117C-62.6745 352.915 -72.2657 375.488 -92.0292 391.57C-114.215 409.686 -146.96 417.437 -192.106 415.305C-240.45 414.24 -283.658 404.649 -320.763 386.726C-354.187 370.547 -381.798 347.586 -400.689 320.363C-429.172 279.189 -436.438 230.167 -420.84 185.893C-404.08 142.103 -346.34 123.696 -300.806 115.849C-248.103 106.839 -190.072 108.389 -158.489 113.621C-119.059 120.112 -96.4857 116.527 -74.5908 113.039C-64.3215 111.392 -54.6335 109.842 -43.4922 109.358C-42.2328 109.552 -40.9734 109.455 -39.7139 109.455Z" fill="#676767"/>
<path d="M-188.23 384.304C-126.421 384.304 -107.723 356.499 -88.153 327.241C-78.465 312.806 -68.4863 297.886 -52.8886 285.68C-27.6998 261.072 -7.54873 247.896 7.17705 238.305C24.228 227.164 33.5285 221.061 34.691 208.079C36.0473 199.359 34.0129 186.377 29.2657 174.364C23.6467 159.735 14.7337 147.916 4.27065 141.134C-12.4896 127.862 -26.731 117.786 -44.4601 118.658C-55.6982 119.24 -66.5487 121.662 -78.0775 124.277C-98.9067 128.928 -122.449 134.159 -154.419 129.896C-176.605 126.893 -227.564 123.696 -277.941 130.962C-304.099 134.74 -326.284 140.844 -343.626 149.079C-364.165 158.767 -378.115 171.458 -384.994 186.862C-400.204 224.064 -396.232 265.722 -373.949 301.18C-359.902 323.56 -338.782 342.839 -312.818 356.693C-284.142 372 -250.233 381.01 -212.063 383.335C-203.537 383.916 -195.593 384.304 -188.23 384.304ZM-42.4256 119.433C-25.8591 119.433 -12.2959 129.121 3.68936 141.813C27.6188 157.41 35.9505 193.159 33.6253 207.885C32.4628 220.479 23.2592 226.486 6.59577 237.336C-8.22689 247.024 -28.4748 260.2 -53.6637 284.808C-69.3583 297.111 -79.4338 312.031 -89.1218 326.563C-100.166 343.13 -110.726 358.727 -128.552 369.384C-148.703 381.494 -175.248 385.466 -212.063 381.882C-250.137 379.556 -283.948 370.643 -312.431 355.336C-338.201 341.579 -359.127 322.494 -373.174 300.212C-395.263 265.044 -399.235 223.773 -384.122 186.862C-377.34 171.749 -363.583 159.251 -343.238 149.66C-325.994 141.522 -303.905 135.418 -277.844 131.64C-227.564 124.374 -176.701 127.571 -154.613 130.574C-122.352 134.934 -98.7129 129.606 -77.8837 124.955C-66.4519 122.437 -55.6013 120.015 -44.4601 119.336C-43.685 119.433 -43.0068 119.433 -42.4256 119.433Z" fill="#676767"/>
<path d="M-197.239 352.915C-159.94 352.915 -142.696 338.092 -121.963 320.363C-111.21 311.062 -99.9715 301.471 -84.5675 292.655C-64.6102 278.026 -48.2375 268.144 -35.1587 260.2C-12.6825 246.54 -0.281819 239.08 1.46202 224.742C4.36843 208.757 3.78714 170.877 -10.7449 156.054C-11.6168 154.892 -12.4887 153.729 -13.2638 152.566C-22.1767 140.359 -31.3804 127.668 -45.2342 128.54C-56.0848 129.315 -68.0979 132.803 -80.8861 136.484C-101.522 142.394 -124.967 149.176 -150.543 146.85C-178.251 144.235 -317.855 133.965 -348.082 187.734C-363.001 217.573 -362.517 251.675 -346.725 281.223C-337.328 298.855 -323.086 313.678 -304.582 325.304C-284.431 337.995 -260.017 346.133 -232.019 349.621C-218.747 351.849 -207.315 352.915 -197.239 352.915ZM-43.9748 129.412C-31.2835 129.412 -22.5643 141.425 -14.0388 153.148C-13.1669 154.31 -12.2949 155.473 -11.423 156.732V156.829C2.81836 171.458 3.39963 208.854 0.493222 224.742C-1.15374 238.693 -13.4575 246.056 -35.6431 259.522C-48.8188 267.466 -65.0946 277.348 -85.0519 291.977C-100.553 300.793 -111.694 310.481 -122.545 319.782C-148.605 342.161 -169.144 359.793 -231.825 348.749C-259.727 345.261 -284.044 337.123 -304.098 324.626C-322.505 313.097 -336.553 298.371 -345.853 280.933C-361.548 251.675 -362.032 217.864 -347.21 188.315C-335.196 166.905 -304.001 153.245 -254.689 147.819C-211.287 143.072 -167.4 146.269 -150.543 147.819C-124.773 150.144 -101.231 143.363 -80.4986 137.453C-67.8073 133.772 -55.7941 130.381 -45.0404 129.606C-44.7498 129.412 -44.3623 129.412 -43.9748 129.412Z" fill="#676767"/>
</g>
</svg>
