<svg width="100" height="100" viewBox="0 0 100 100" fill="none" xmlns="http://www.w3.org/2000/svg">
<rect opacity="0.2" x="60" width="40" height="40" rx="4" fill="#A12CDD"/>
<path d="M75.1923 22.4424C75.0671 21.942 74.7444 21.5138 74.2978 21.2555C73.8512 20.9974 73.319 20.9315 72.8229 21.073L32.998 32.4258H77.6882L75.1923 22.4424Z" fill="#474747"/>
<path d="M50.4968 62.8882C53.6502 62.8882 56.2065 60.3319 56.2065 57.1785C56.2065 54.0251 53.6502 51.4688 50.4968 51.4688C47.3434 51.4688 44.7871 54.0251 44.7871 57.1785C44.7871 60.3319 47.3434 62.8882 50.4968 62.8882Z" fill="#474747"/>
<path d="M81.0957 36.2344H19.9043C18.8526 36.2344 18 37.087 18 38.1387V76.2246C18 77.2763 18.8526 78.1289 19.9043 78.1289H81.0957C82.1474 78.1289 83 77.2763 83 76.2246V38.1387C83 37.087 82.1474 36.2344 81.0957 36.2344ZM34.3669 66.7031H39.0679C40.1196 66.7031 40.9722 67.5557 40.9722 68.6074C40.9722 69.6591 40.1196 70.5117 39.0679 70.5117H32.7266C31.6749 70.5117 30.8223 69.6591 30.8223 68.6074C30.8223 66.8574 29.3985 65.4336 27.6484 65.4336C26.5968 65.4336 25.7441 64.581 25.7441 63.5293V50.834C25.7441 49.7823 26.5968 48.9297 27.6484 48.9297C29.3985 48.9297 30.8223 47.5059 30.8223 45.7559C30.8223 44.7042 31.6749 43.8516 32.7266 43.8516H39.0679C40.1196 43.8516 40.9722 44.7042 40.9722 45.7559C40.9722 46.8075 40.1196 47.6602 39.0679 47.6602H34.3669C33.7079 49.9823 31.8748 51.8153 29.5527 52.4743V61.8888C31.8748 62.5479 33.7079 64.381 34.3669 66.7031ZM50.4968 66.6968C45.2485 66.6968 40.9785 62.4268 40.9785 57.1785C40.9785 51.9301 45.2485 47.6602 50.4968 47.6602C55.7452 47.6602 60.0151 51.9301 60.0151 57.1785C60.0151 62.4268 55.7452 66.6968 50.4968 66.6968ZM75.2559 63.5293C75.2559 64.581 74.4032 65.4336 73.3516 65.4336C71.6015 65.4336 70.1777 66.8574 70.1777 68.6074C70.1777 69.6591 69.3251 70.5117 68.2734 70.5117H61.9194C60.8678 70.5117 60.0151 69.6591 60.0151 68.6074C60.0151 67.5557 60.8678 66.7031 61.9194 66.7031H66.6329C67.292 64.381 69.125 62.548 71.4471 61.8889V52.4745C69.125 51.8155 67.292 49.9824 66.6329 47.6603H61.9321C60.8804 47.6603 60.0278 46.8077 60.0278 45.756C60.0278 44.7043 60.8804 43.8517 61.9321 43.8517H68.2734C69.3251 43.8517 70.1777 44.7043 70.1777 45.756C70.1777 47.506 71.6015 48.9298 73.3516 48.9298C74.4032 48.9298 75.2559 49.7824 75.2559 50.8341V63.5293Z" fill="#474747"/>
</svg>
