<svg width="60" height="60" viewBox="0 0 60 60" fill="none" xmlns="http://www.w3.org/2000/svg">
<g clip-path="url(#clip0_604_15322)">
<mask id="mask0_604_15322" style="mask-type:luminance" maskUnits="userSpaceOnUse" x="-1" y="-1" width="61" height="61">
<path d="M29.9984 59.9983C46.5671 59.9983 59.9984 46.567 59.9984 29.9986C59.9984 13.4301 46.5671 -0.000999451 29.9984 -0.000999451C13.4299 -0.000999451 -0.00158691 13.4301 -0.00158691 29.9986C-0.00158691 46.567 13.4299 59.9983 29.9984 59.9983ZM16.762 15.8601V26.0645C18.3149 24.2129 20.1773 23.2799 22.3373 23.2799C23.4502 23.2799 24.4466 23.4917 25.3396 23.9141C26.2361 24.3329 26.9066 24.8705 27.3584 25.5224C27.8137 26.1812 28.1207 26.9024 28.2866 27.6974C28.4525 28.4882 28.5349 29.7199 28.5349 31.3892V42.3008H23.7066V32.474C23.7066 30.5233 23.6195 29.288 23.436 28.7633C23.2525 28.235 22.9301 27.8198 22.4666 27.5141C22.0019 27.2 21.4231 27.0446 20.7243 27.0446C19.9254 27.0446 19.2066 27.2456 18.5832 27.6422C17.9466 28.0424 17.4878 28.64 17.1984 29.4386C16.9031 30.2386 16.7561 31.4198 16.762 32.9832L16.7561 42.3008H11.9349V15.8601H16.762ZM35.7701 15.8601V26.0645C37.3244 24.2129 39.1853 23.2799 41.3453 23.2799C42.4538 23.2799 43.4561 23.4917 44.3525 23.9141C45.2444 24.3329 45.9149 24.8705 46.3655 25.5224C46.8209 26.1812 47.129 26.9024 47.2937 27.6974C47.4596 28.4882 47.5421 29.7199 47.5421 31.3892V42.3008H42.7196V32.474C42.7196 30.5233 42.629 29.288 42.4442 28.7633C42.2609 28.235 41.9396 27.8198 41.4737 27.5141C41.0138 27.2 40.4303 27.0446 39.7313 27.0446C38.9324 27.0446 38.2148 27.2456 37.5902 27.6422C36.9608 28.0424 36.5009 28.64 36.2066 29.4386C35.9171 30.2386 35.7701 31.4198 35.7701 32.9832V42.3008H30.9479V15.8601H35.7701Z" fill="white"/>
</mask>
<g mask="url(#mask0_604_15322)">
<mask id="mask1_604_15322" style="mask-type:luminance" maskUnits="userSpaceOnUse" x="-1" y="-1" width="61" height="61">
<path d="M-0.00244141 59.9976H59.9976V-0.00173187H-0.00244141V59.9976Z" fill="white"/>
</mask>
<g mask="url(#mask1_604_15322)">
<path d="M-0.00244141 59.9976H62.9976V-3.0017H-0.00244141V59.9976Z" fill="#010101"/>
</g>
</g>
</g>
<defs>
<clipPath id="clip0_604_15322">
<rect width="60" height="59.9993" fill="white" transform="translate(0 0.000732422)"/>
</clipPath>
</defs>
</svg>
