<svg width="100" height="100" viewBox="0 0 100 100" fill="none" xmlns="http://www.w3.org/2000/svg">
<rect opacity="0.2" x="60" width="40" height="40" rx="4" fill="#A12CDD"/>
<path d="M42.7227 35.4529V50.6016L57.8714 43.0272L42.7227 35.4529Z" fill="#474747"/>
<path d="M72.6621 20H26.3379C24.6575 20.0018 23.0465 20.6702 21.8583 21.8583C20.6702 23.0465 20.0018 24.6575 20 26.3379V72.6621C20.0018 74.3425 20.6702 75.9535 21.8583 77.1417C23.0465 78.3298 24.6575 78.9982 26.3379 79H72.6621C74.3425 78.9982 75.9535 78.3298 77.1417 77.1417C78.3298 75.9535 78.9982 74.3425 79 72.6621V26.3379C78.9982 24.6575 78.3298 23.0465 77.1417 21.8583C75.9535 20.6702 74.3425 20.0018 72.6621 20ZM39.2649 34.5195C39.2649 34.0285 39.3904 33.5456 39.6296 33.1167C39.8687 32.6878 40.2135 32.3272 40.6312 32.069C41.0489 31.8109 41.5257 31.6638 42.0162 31.6417C42.5068 31.6196 42.9949 31.7233 43.4341 31.9429L60.4473 40.4506C60.9258 40.6899 61.3282 41.0577 61.6094 41.5128C61.8906 41.9679 62.0396 42.4923 62.0396 43.0273C62.0396 43.5623 61.8906 44.0867 61.6094 44.5418C61.3282 44.9969 60.9258 45.3646 60.4473 45.6039L43.4341 54.1094C42.9949 54.329 42.5068 54.4327 42.0162 54.4106C41.5257 54.3885 41.0489 54.2414 40.6312 53.9833C40.2135 53.7251 39.8687 53.3645 39.6296 52.9356C39.3904 52.5067 39.2649 52.0238 39.2649 51.5327V34.5195ZM71.9707 65.0566H36.248V66.7852C36.248 67.2436 36.0659 67.6832 35.7418 68.0074C35.4176 68.3316 34.978 68.5137 34.5195 68.5137C34.0611 68.5137 33.6214 68.3316 33.2973 68.0074C32.9731 67.6832 32.791 67.2436 32.791 66.7852V65.0566H28.7578C28.2994 65.0566 27.8597 64.8745 27.5356 64.5504C27.2114 64.2262 27.0293 63.7866 27.0293 63.3281C27.0293 62.8697 27.2114 62.43 27.5356 62.1059C27.8597 61.7817 28.2994 61.5996 28.7578 61.5996H32.791V59.8711C32.791 59.4127 32.9731 58.973 33.2973 58.6488C33.6214 58.3247 34.0611 58.1426 34.5195 58.1426C34.978 58.1426 35.4176 58.3247 35.7418 58.6488C36.0659 58.973 36.248 59.4127 36.248 59.8711V61.5996H71.9707C72.4291 61.5996 72.8688 61.7817 73.1929 62.1059C73.5171 62.43 73.6992 62.8697 73.6992 63.3281C73.6992 63.7866 73.5171 64.2262 73.1929 64.5504C72.8688 64.8745 72.4291 65.0566 71.9707 65.0566Z" fill="#474747"/>
</svg>
