<svg width="24" height="24" viewBox="0 0 24 24" fill="none" xmlns="http://www.w3.org/2000/svg">
<path d="M21.7386 9.28394C21.3914 8.95936 20.83 8.96081 20.4847 9.28711L9.82598 19.359C8.44314 20.6587 6.19722 20.6587 4.8118 19.3572C3.42743 18.0555 3.42743 15.9446 4.81197 14.6433L15.7862 4.27489C16.6495 3.46351 18.0531 3.46351 18.919 4.27665C19.7845 5.09018 19.7845 6.40923 18.9187 7.223L9.82764 15.7673C9.82706 15.7679 9.82656 15.7685 9.82598 15.769C9.47964 16.0928 8.91991 16.0923 8.57427 15.7675C8.22806 15.4421 8.22806 14.9147 8.57427 14.5893L12.9625 10.4641C13.3087 10.1386 13.3086 9.61098 12.9623 9.28558C12.616 8.96019 12.0546 8.96022 11.7084 9.2857L7.32024 13.4108C6.28155 14.387 6.28155 15.9697 7.32032 16.946C8.35906 17.9222 10.043 17.9222 11.0818 16.946C11.083 16.9448 11.084 16.9436 11.0851 16.9425L20.1727 8.40146C21.731 6.93682 21.731 4.56248 20.1727 3.09784C18.6141 1.63405 16.088 1.63405 14.5306 3.09784L3.55636 13.4663C1.48096 15.4169 1.48096 18.5828 3.55786 20.5358C5.63612 22.488 9.00461 22.488 11.0816 20.5359L21.742 10.4625C22.0873 10.1361 22.0858 9.60852 21.7386 9.28394Z" fill="#474748"/>
</svg>
