<svg width="118" height="88" viewBox="0 0 118 88" fill="none" xmlns="http://www.w3.org/2000/svg">
<path d="M26.9158 35.3334C25.615 35.3334 24.3666 35.5317 23.1241 35.7125C23.5266 34.3592 23.9408 32.9825 24.6058 31.7459C25.2708 29.9492 26.3091 28.3917 27.3416 26.8225C28.205 25.125 29.7275 23.9759 30.8475 22.5234C32.02 21.1117 33.6183 20.1725 34.8841 19C36.1266 17.775 37.7541 17.1625 39.0491 16.2992C40.4025 15.5234 41.5808 14.6659 42.8408 14.2575L45.985 12.9625L48.75 11.8134L45.9208 0.508362L42.4383 1.34836C41.3241 1.62836 39.965 1.95503 38.4191 2.34586C36.8383 2.63753 35.1525 3.43669 33.2741 4.16586C31.4191 4.99419 29.2725 5.55419 27.2775 6.88419C25.2708 8.15586 22.955 9.21753 20.9133 10.9209C18.9358 12.6767 16.55 14.1992 14.7883 16.4334C12.8633 18.5217 10.9616 20.715 9.48581 23.2117C7.77664 25.5917 6.6158 28.205 5.3908 30.7892C4.28247 33.3734 3.38997 36.0159 2.6608 38.5825C1.27831 43.7275 0.659971 48.6159 0.420805 52.7984C0.222471 56.9867 0.339138 60.4692 0.584138 62.9892C0.671638 64.1792 0.834972 65.3342 0.951639 66.1334L1.09747 67.1134L1.24914 67.0784C2.28666 71.9249 4.67508 76.3786 8.13809 79.9244C11.6011 83.4702 15.9972 85.9632 20.8179 87.1148C25.6385 88.2665 30.6867 88.0299 35.3785 86.4324C40.0703 84.8349 44.214 81.9417 47.3302 78.0875C50.4464 74.2334 52.4077 69.5757 52.9874 64.6534C53.5671 59.7311 52.7413 54.7453 50.6057 50.2727C48.4701 45.8 45.1119 42.0234 40.9196 39.3796C36.7273 36.7359 31.8721 35.333 26.9158 35.3334ZM91.0825 35.3334C89.7816 35.3334 88.5333 35.5317 87.2908 35.7125C87.6933 34.3592 88.1075 32.9825 88.7725 31.7459C89.4375 29.9492 90.4758 28.3917 91.5083 26.8225C92.3716 25.125 93.8941 23.9759 95.0141 22.5234C96.1866 21.1117 97.785 20.1725 99.0508 19C100.293 17.775 101.921 17.1625 103.216 16.2992C104.569 15.5234 105.747 14.6659 107.007 14.2575L110.152 12.9625L112.917 11.8134L110.087 0.508362L106.605 1.34836C105.491 1.62836 104.132 1.95503 102.586 2.34586C101.005 2.63753 99.3191 3.43669 97.4408 4.16586C95.5916 5.00003 93.4391 5.55419 91.4441 6.89003C89.4375 8.16169 87.1216 9.22336 85.08 10.9267C83.1025 12.6825 80.7166 14.205 78.955 16.4334C77.03 18.5217 75.1283 20.715 73.6525 23.2117C71.9433 25.5917 70.7825 28.205 69.5575 30.7892C68.4491 33.3734 67.5566 36.0159 66.8275 38.5825C65.445 43.7275 64.8266 48.6159 64.5875 52.7984C64.3891 56.9867 64.5058 60.4692 64.7508 62.9892C64.8383 64.1792 65.0016 65.3342 65.1183 66.1334L65.2641 67.1134L65.4158 67.0784C66.4533 71.9249 68.8417 76.3786 72.3048 79.9244C75.7678 83.4702 80.1639 85.9632 84.9845 87.1148C89.8052 88.2665 94.8534 88.0299 99.5452 86.4324C104.237 84.8349 108.381 81.9417 111.497 78.0875C114.613 74.2334 116.574 69.5757 117.154 64.6534C117.734 59.7311 116.908 54.7453 114.772 50.2727C112.637 45.8 109.279 42.0234 105.086 39.3796C100.894 36.7359 96.0388 35.333 91.0825 35.3334Z" fill="#D9D9D9"/>
</svg>
