<svg width="80" height="30" viewBox="0 0 80 30" fill="none" xmlns="http://www.w3.org/2000/svg">
<g clip-path="url(#clip0_700_8919)">
<path d="M14.832 7.00415H17.427V23.223H14.832V7.00415ZM26.5096 18.0492C26.5096 20.5313 24.4225 20.7292 23.8017 20.7292C22.2505 20.7292 21.9683 19.2773 21.9683 18.4014V12.1942H19.3733V18.3885C19.3733 19.926 19.856 21.195 20.7019 22.0409C21.4493 22.789 22.5691 23.1977 23.7822 23.1977C24.6425 23.1977 25.8608 22.9297 26.5096 22.3374V23.223H29.1046V12.1942H26.5096V18.0492ZM34.2946 8.30166H31.6996V12.1942H29.7533V14.7892H31.6996V23.223H34.2946V14.7892H36.2409V12.1942H34.2946V8.30166ZM44.4132 19.9254C43.8482 20.4333 43.1021 20.7149 42.2834 20.7149C40.4785 20.7149 39.1531 19.3895 39.1531 17.5697C39.1531 15.75 40.4364 14.4804 42.2834 14.4804C43.0878 14.4804 43.8482 14.7483 44.4275 15.2563L44.8213 15.5949L46.571 13.8459L46.1331 13.4508C45.1035 12.5211 43.7366 11.9995 42.2827 11.9995C39.0389 11.9995 36.6833 14.3402 36.6833 17.5561C36.6833 20.7584 39.0954 23.1827 42.2827 23.1827C43.7638 23.1827 45.145 22.6611 46.1616 21.7166L46.5846 21.3215L44.8077 19.5737L44.4132 19.9254ZM55.8332 13.1556C55.0858 12.4083 54.21 11.9995 52.9969 11.9995C52.1366 11.9995 51.1622 12.2675 50.5134 12.8591V7.00415H47.9184V23.223H50.5134V17.1474C50.5134 14.6653 52.2767 14.4681 52.8976 14.4681C54.4488 14.4681 54.406 15.9206 54.406 16.7951V23.223H57.001V16.8088C57.001 15.2712 56.6798 14.0022 55.8332 13.1556Z" fill="#474748"/>
<path d="M42.1965 15.7219C42.6941 15.7219 43.1713 15.9196 43.5232 16.2714C43.875 16.6233 44.0727 17.1005 44.0727 17.5981C44.0727 18.0957 43.875 18.5729 43.5232 18.9248C43.1713 19.2766 42.6941 19.4743 42.1965 19.4743C41.6989 19.4743 41.2217 19.2766 40.8698 18.9248C40.518 18.5729 40.3203 18.0957 40.3203 17.5981C40.3203 17.1005 40.518 16.6233 40.8698 16.2714C41.2217 15.9196 41.6989 15.7219 42.1965 15.7219Z" fill="#474748"/>
<path d="M11.1981 19.1492C10.2114 20.1645 8.87105 20.7146 7.46066 20.7146C4.56981 20.7146 2.46786 18.444 2.46786 15.3274C2.46786 12.1965 4.56981 9.92586 7.46066 9.92586C8.85742 9.92586 10.1828 10.4754 11.1845 11.477L11.5789 11.8721L13.3137 10.1374L12.9329 9.74227C11.4946 8.26116 9.54834 7.45801 7.46066 7.45801C3.2016 7.45801 0 10.8426 0 15.341C0 19.8258 3.21587 23.1968 7.46066 23.1968C9.56262 23.1968 11.5089 22.3793 12.9472 20.8982L13.328 20.5031L11.6075 18.7405L11.1981 19.1492Z" fill="#474748"/>
</g>
<defs>
<clipPath id="clip0_700_8919">
<rect width="80" height="30" fill="white"/>
</clipPath>
</defs>
</svg>
