<svg width="80" height="30" viewBox="0 0 80 30" fill="none" xmlns="http://www.w3.org/2000/svg">
<g clip-path="url(#clip0_700_8924)">
<rect x="20" width="32.1465" height="17.2639" fill="#474748"/>
<path d="M29.9055 9.25813H31.6676C31.6613 9.51847 31.6359 9.72485 31.5914 9.87724C31.5533 10.0233 31.4739 10.217 31.3533 10.4583C30.8262 11.5314 29.8928 12.068 28.553 12.068C27.5179 12.068 26.6924 11.7346 26.0765 11.0679C25.4669 10.3948 25.1621 9.53752 25.1621 8.49614C25.1621 7.45475 25.4796 6.60703 26.1146 5.95299C26.7496 5.2926 27.5719 4.9624 28.5815 4.9624C29.3753 4.9624 30.0674 5.19417 30.658 5.65772C31.2485 6.12126 31.5724 6.74038 31.6295 7.51507H29.8865C29.7341 6.80388 29.2864 6.44829 28.5434 6.44829C28.0609 6.44829 27.6735 6.63878 27.3814 7.01978C27.0957 7.39442 26.9528 7.89924 26.9528 8.53424C26.9528 9.15018 27.0957 9.6423 27.3814 10.0106C27.6735 10.3789 28.0609 10.563 28.5434 10.563C29.3245 10.563 29.7785 10.1281 29.9055 9.25813Z" fill="white"/>
<path d="M32.6086 11.906V5.12433H35.1803L36.4185 9.82962L37.6853 5.12433H40.1904V11.906H38.514L38.5997 6.73403L37.0853 11.906H35.7232L34.2183 6.74356L34.2754 11.906H32.6086Z" fill="white"/>
<path d="M46.6462 7.16265H44.9603C44.9222 6.61021 44.5539 6.33399 43.8554 6.33399C43.576 6.33399 43.3569 6.38796 43.1982 6.49591C43.0394 6.59751 42.96 6.73721 42.96 6.915C42.96 7.0547 42.995 7.16265 43.0648 7.23885C43.141 7.31505 43.2775 7.37855 43.4744 7.42935C44.6555 7.74049 45.4524 7.99132 45.8651 8.18181C46.57 8.51201 46.9224 9.06128 46.9224 9.82962C46.9224 10.5091 46.6589 11.052 46.1318 11.4584C45.6111 11.8584 44.9063 12.0584 44.0173 12.0584C43.0775 12.0584 42.3409 11.8457 41.8075 11.4203C41.2741 10.9948 41.0011 10.3979 40.9884 9.6296H42.7695C42.7695 10.3471 43.2236 10.7059 44.1316 10.7059C44.8047 10.7059 45.1412 10.4773 45.1412 10.0201C45.1412 9.83597 45.0746 9.6931 44.9412 9.5915C44.8142 9.48355 44.5824 9.38513 44.2459 9.29623C43.6046 9.11843 43.0458 8.94063 42.5695 8.76283C41.6869 8.44534 41.2456 7.88337 41.2456 7.07693C41.2456 6.43558 41.49 5.92759 41.979 5.55295C42.4743 5.17195 43.141 4.98145 43.9792 4.98145C44.8237 4.98145 45.4746 5.16877 45.9318 5.54342C46.3953 5.91807 46.6335 6.45781 46.6462 7.16265Z" fill="white"/>
<path d="M15.5526 21.8669V22.5146C15.9272 21.9939 16.4288 21.7335 17.0575 21.7335C17.7369 21.7335 18.2005 21.9971 18.4481 22.5241C18.6958 22.2447 18.9307 22.0447 19.153 21.924C19.3752 21.797 19.661 21.7335 20.0102 21.7335C20.569 21.7335 20.9976 21.8955 21.2961 22.2193C21.5945 22.5431 21.7437 22.9845 21.7437 23.5433V26.7817H20.115V23.9243C20.115 23.3274 19.8896 23.0289 19.4387 23.0289C19.1974 23.0289 19.0101 23.1083 18.8767 23.267C18.7434 23.4194 18.6767 23.629 18.6767 23.8957V26.7817H17.0575V23.8671C17.0575 23.6004 17.013 23.3909 16.9241 23.2385C16.8352 23.0861 16.6638 23.0099 16.4098 23.0099C16.1367 23.0099 15.9367 23.1019 15.8097 23.2861C15.6827 23.4639 15.6192 23.6988 15.6192 23.9909V26.7817H14V21.8669H15.5526Z" fill="#474748"/>
<path d="M27.5899 26.7817H25.9517C25.9072 26.642 25.8818 26.4864 25.8755 26.315C25.4246 26.7277 24.8817 26.9341 24.2467 26.9341C23.7133 26.9341 23.291 26.8008 22.9799 26.5341C22.6751 26.261 22.5227 25.8896 22.5227 25.4197C22.5227 25.1847 22.564 24.9783 22.6465 24.8005C22.7291 24.6227 22.8243 24.4862 22.9323 24.391C23.0402 24.2894 23.199 24.2005 23.4085 24.1243C23.6181 24.0481 23.7959 23.9973 23.9419 23.9719C24.0879 23.9401 24.2911 23.9052 24.5515 23.8671C25.1674 23.7719 25.5135 23.7084 25.5897 23.6766C25.7612 23.6068 25.8469 23.4734 25.8469 23.2766C25.8469 22.9273 25.5961 22.7527 25.0944 22.7527C24.8341 22.7527 24.6436 22.794 24.5229 22.8765C24.4086 22.9591 24.3229 23.1242 24.2657 23.3718H22.7418C22.8434 22.2733 23.6339 21.724 25.1135 21.724C25.9072 21.724 26.5104 21.8732 26.9232 22.1717C27.1073 22.305 27.2312 22.4606 27.2947 22.6384C27.3645 22.8162 27.3994 23.0702 27.3994 23.4004V25.372C27.3994 26.0197 27.4629 26.4896 27.5899 26.7817ZM25.8469 24.4767C25.7707 24.5148 25.6818 24.5497 25.5802 24.5815C25.4786 24.6132 25.396 24.6354 25.3325 24.6481C25.2754 24.6608 25.177 24.6831 25.0373 24.7148C24.9039 24.7402 24.8182 24.7561 24.7801 24.7624C24.38 24.845 24.18 25.045 24.18 25.3625C24.18 25.5467 24.2372 25.6895 24.3515 25.7911C24.4658 25.8927 24.6213 25.9435 24.8182 25.9435C25.1039 25.9435 25.3452 25.861 25.5421 25.6959C25.7453 25.5244 25.8469 25.2863 25.8469 24.9815V24.4767Z" fill="#474748"/>
<path d="M31.693 21.8669H33.2456V26.134C33.2456 26.9722 33.0392 27.5786 32.6264 27.9533C32.2137 28.3343 31.5914 28.5248 30.7596 28.5248C29.2927 28.5248 28.4895 27.9977 28.3498 26.9436H29.969C30.0579 27.3056 30.3278 27.4866 30.7786 27.4866C31.1406 27.4866 31.3819 27.3945 31.5025 27.2103C31.6232 27.0262 31.6835 26.75 31.6835 26.3817V25.8388C31.3342 26.3023 30.8612 26.5341 30.2643 26.5341C29.6229 26.5341 29.1149 26.3214 28.7403 25.8959C28.372 25.4641 28.1878 24.8831 28.1878 24.1529C28.1878 23.4226 28.3783 22.8384 28.7593 22.4003C29.1467 21.9558 29.661 21.7335 30.3024 21.7335C30.6262 21.7335 30.8897 21.7907 31.0929 21.905C31.2961 22.0193 31.4962 22.2129 31.693 22.486V21.8669ZM30.731 22.9527C30.4325 22.9527 30.1976 23.0607 30.0261 23.2766C29.8547 23.4861 29.769 23.775 29.769 24.1433C29.769 24.5243 29.8547 24.8259 30.0261 25.0482C30.2039 25.2641 30.4421 25.372 30.7405 25.372C31.0517 25.372 31.2898 25.2673 31.4549 25.0577C31.6263 24.8418 31.712 24.537 31.712 24.1433C31.712 23.775 31.6232 23.4861 31.4454 23.2766C31.2739 23.0607 31.0358 22.9527 30.731 22.9527Z" fill="#474748"/>
<path d="M39.0589 26.7817H37.4206C37.3761 26.642 37.3507 26.4864 37.3444 26.315C36.8935 26.7277 36.3506 26.9341 35.7156 26.9341C35.1822 26.9341 34.76 26.8008 34.4488 26.5341C34.144 26.261 33.9916 25.8896 33.9916 25.4197C33.9916 25.1847 34.0329 24.9783 34.1154 24.8005C34.198 24.6227 34.2932 24.4862 34.4012 24.391C34.5091 24.2894 34.6679 24.2005 34.8774 24.1243C35.087 24.0481 35.2648 23.9973 35.4108 23.9719C35.5569 23.9401 35.7601 23.9052 36.0204 23.8671C36.6364 23.7719 36.9824 23.7084 37.0586 23.6766C37.2301 23.6068 37.3158 23.4734 37.3158 23.2766C37.3158 22.9273 37.065 22.7527 36.5633 22.7527C36.303 22.7527 36.1125 22.794 35.9919 22.8765C35.8776 22.9591 35.7918 23.1242 35.7347 23.3718H34.2107C34.3123 22.2733 35.1029 21.724 36.5824 21.724C37.3761 21.724 37.9794 21.8732 38.3921 22.1717C38.5763 22.305 38.7001 22.4606 38.7636 22.6384C38.8334 22.8162 38.8684 23.0702 38.8684 23.4004V25.372C38.8684 26.0197 38.9319 26.4896 39.0589 26.7817ZM37.3158 24.4767C37.2396 24.5148 37.1507 24.5497 37.0491 24.5815C36.9475 24.6132 36.865 24.6354 36.8015 24.6481C36.7443 24.6608 36.6459 24.6831 36.5062 24.7148C36.3728 24.7402 36.2871 24.7561 36.249 24.7624C35.849 24.845 35.649 25.045 35.649 25.3625C35.649 25.5467 35.7061 25.6895 35.8204 25.7911C35.9347 25.8927 36.0903 25.9435 36.2871 25.9435C36.5729 25.9435 36.8142 25.861 37.011 25.6959C37.2142 25.5244 37.3158 25.2863 37.3158 24.9815V24.4767Z" fill="#474748"/>
<path d="M44.1144 21.8669V23.067L41.657 25.534H44.3049V26.7817H39.5901V25.5435L42.0285 23.0956H39.7901V21.8669H44.1144Z" fill="#474748"/>
<path d="M46.7253 20V21.2192H45.1061V20H46.7253ZM46.7253 21.8669V26.7817H45.1061V21.8669H46.7253Z" fill="#474748"/>
<path d="M49.4199 21.8669V22.5146C49.8263 21.9939 50.3565 21.7335 51.0105 21.7335C51.563 21.7335 51.9979 21.8891 52.3154 22.2002C52.6329 22.505 52.7917 22.9527 52.7917 23.5433V26.7817H51.1534V23.9909C51.1534 23.6925 51.1026 23.4607 51.001 23.2956C50.8994 23.1305 50.7025 23.048 50.4104 23.048C50.1184 23.048 49.8898 23.1337 49.7247 23.3051C49.5659 23.4766 49.4865 23.7211 49.4865 24.0386V26.7817H47.8673V21.8669H49.4199Z" fill="#474748"/>
<path d="M58.877 24.7148H55.2194C55.2257 25.0768 55.3273 25.3593 55.5242 25.5625C55.7274 25.7594 56.0004 25.8578 56.3433 25.8578C56.7497 25.8578 57.0577 25.6673 57.2672 25.2863H58.7817C58.623 25.8134 58.3277 26.2198 57.8959 26.5055C57.4704 26.7912 56.9466 26.9341 56.3243 26.9341C55.5432 26.9341 54.8987 26.7055 54.3907 26.2483C53.8891 25.7848 53.6383 25.1625 53.6383 24.3814C53.6383 23.6068 53.8827 22.9749 54.3717 22.486C54.8606 21.9907 55.4924 21.7431 56.2671 21.7431C57.0736 21.7431 57.7086 21.9971 58.1721 22.505C58.642 23.0067 58.877 23.6957 58.877 24.5719V24.7148ZM57.2863 23.7909C57.2609 23.4988 57.1593 23.267 56.9815 23.0956C56.8101 22.9178 56.5751 22.8289 56.2767 22.8289C55.6861 22.8289 55.34 23.1496 55.2384 23.7909H57.2863Z" fill="#474748"/>
</g>
<defs>
<clipPath id="clip0_700_8924">
<rect width="80" height="30" fill="white"/>
</clipPath>
</defs>
</svg>
