<svg width="80" height="30" viewBox="0 0 80 30" fill="none" xmlns="http://www.w3.org/2000/svg">
<g clip-path="url(#clip0_700_8876)">
<path d="M6.58427 1.58252H5.33008V16.9463H6.58427V1.58252Z" fill="#474748"/>
<path d="M10.0335 1.58252H8.7793V11.3025H10.0335V1.58252Z" fill="#474748"/>
<path d="M13.7962 8.48047H12.2285V11.3024H13.7962V8.48047Z" fill="#474748"/>
<path d="M19.4397 20.0815H18.1855V25.4118H19.4397V20.0815Z" fill="#474748"/>
<path d="M18.1861 25.4436H16.8379V28.0147H18.1861V25.4436Z" fill="#474748"/>
<path d="M8.05919 25.4436H6.71094V28.0147H8.05919V25.4436Z" fill="#474748"/>
<path d="M6.71153 22.8096H5.36328V25.3807H6.71153V22.8096Z" fill="#474748"/>
<path d="M5.36192 20.2385H4.01367V22.8096H5.36192V20.2385Z" fill="#474748"/>
<path d="M4.04356 17.6047H2.69531V20.1758H4.04356V17.6047Z" fill="#474748"/>
<path d="M2.69591 16.2566H1.34766V17.6048H2.69591V16.2566Z" fill="#474748"/>
<path d="M5.64391 13.8108H4.07617V15.065H5.64391V13.8108Z" fill="#474748"/>
<path d="M1.34825 12.3999H0V16.2565H1.34825V12.3999Z" fill="#474748"/>
<path d="M21.0072 12.2432H19.4395V20.0818H21.0072V12.2432Z" fill="#474748"/>
<path d="M15.8982 8.51196H13.6406V9.86021H15.8982V8.51196Z" fill="#474748"/>
<path d="M18.1867 28.0146H6.71094V29.3629H18.1867V28.0146Z" fill="#474748"/>
<path d="M18.4986 9.73462H15.9902V10.9888H18.4986V9.73462Z" fill="#474748"/>
<path d="M19.5018 10.8635H18.373V12.3999H19.5018V10.8635Z" fill="#474748"/>
<path d="M12.2927 7.16357H10.0352V8.51183H12.2927V7.16357Z" fill="#474748"/>
<path d="M4.23229 12.3999H1.34766V13.7482H4.23229V12.3999Z" fill="#474748"/>
<path d="M9.40591 0.328369H6.58398V1.58256H9.40591V0.328369Z" fill="#474748"/>
<path d="M28.8552 9.18381C29.2342 9.18381 29.5663 9.13469 29.8517 9.03645C30.1417 8.93821 30.3827 8.8002 30.5745 8.62243C30.771 8.43998 30.9183 8.22478 31.0166 7.97684C31.1148 7.72422 31.1639 7.44587 31.1639 7.14179C31.1639 6.52894 30.9721 6.04709 30.5885 5.69623C30.2096 5.34536 29.6318 5.16993 28.8552 5.16993H27.2974V9.18381H28.8552ZM28.8552 3.99805C29.5008 3.99805 30.0622 4.0729 30.5394 4.2226C31.0166 4.3723 31.4119 4.58516 31.7253 4.86117C32.0388 5.13251 32.2703 5.46232 32.42 5.85061C32.5744 6.2389 32.6516 6.66929 32.6516 7.14179C32.6516 7.61428 32.5697 8.04935 32.406 8.447C32.2423 8.83997 32.0013 9.17913 31.6832 9.4645C31.3651 9.74987 30.9674 9.97209 30.4903 10.1311C30.0178 10.2855 29.4728 10.3627 28.8552 10.3627H27.2974V14.0749H25.8027V3.99805H28.8552Z" fill="#474748"/>
<path d="M38.3858 9.71712C38.3858 9.44579 38.346 9.19551 38.2665 8.96628C38.1917 8.73705 38.0794 8.53822 37.9297 8.36981C37.78 8.20139 37.5975 8.07041 37.3823 7.97684C37.1671 7.88328 36.9192 7.8365 36.6385 7.8365C36.0631 7.8365 35.6093 8.00257 35.2771 8.33472C34.9497 8.66687 34.7415 9.12767 34.6526 9.71712H38.3858ZM39.5156 13.0573C39.3472 13.2538 39.153 13.4246 38.9331 13.5696C38.7133 13.71 38.4794 13.8246 38.2314 13.9135C37.9835 14.0023 37.7262 14.0678 37.4595 14.1099C37.1975 14.152 36.9379 14.1731 36.6806 14.1731C36.1894 14.1731 35.7333 14.0912 35.3122 13.9275C34.8959 13.7591 34.5333 13.5158 34.2246 13.1977C33.9205 12.8749 33.6819 12.4773 33.5088 12.0048C33.3404 11.5276 33.2562 10.9802 33.2562 10.3627C33.2562 9.86683 33.3334 9.40603 33.4877 8.98031C33.6421 8.54992 33.862 8.17566 34.1474 7.85755C34.4374 7.53943 34.7906 7.28915 35.207 7.1067C35.6233 6.92425 36.0912 6.83303 36.6104 6.83303C37.0455 6.83303 37.4455 6.90554 37.8104 7.05056C38.18 7.19091 38.4981 7.39675 38.7647 7.66808C39.0314 7.93942 39.2396 8.27391 39.3893 8.67155C39.5437 9.0692 39.6208 9.52298 39.6208 10.0329C39.6208 10.2434 39.5975 10.3861 39.5507 10.461C39.5039 10.5311 39.4173 10.5662 39.291 10.5662H34.6175C34.6316 10.9919 34.6924 11.3638 34.8 11.682C34.9076 11.9954 35.0549 12.2574 35.2421 12.4679C35.4339 12.6784 35.6608 12.8351 35.9227 12.9381C36.1847 13.041 36.4771 13.0924 36.7999 13.0924C37.104 13.0924 37.366 13.0573 37.5858 12.9872C37.8104 12.917 38.0022 12.8422 38.1612 12.7626C38.325 12.6784 38.4607 12.6012 38.5682 12.5311C38.6805 12.4609 38.7788 12.4258 38.863 12.4258C38.9753 12.4258 39.0618 12.4679 39.1226 12.5521L39.5156 13.0573Z" fill="#474748"/>
<path d="M47.2809 6.9453V14.0749H45.9055V9.41538C45.9055 9.32182 45.9101 9.2189 45.9195 9.10662C45.9289 8.98967 45.9429 8.87271 45.9616 8.75576C45.9148 8.854 45.868 8.94756 45.8213 9.03645C45.7792 9.12066 45.7347 9.19551 45.6879 9.261L42.4109 13.731C42.3594 13.8152 42.2916 13.8947 42.2074 13.9696C42.1232 14.0444 42.0273 14.0819 41.9197 14.0819H41.0916V6.9453H42.46V11.6118C42.46 11.7054 42.4553 11.8106 42.446 11.9276C42.4366 12.0398 42.4226 12.1521 42.4038 12.2644C42.4974 12.0586 42.5886 11.8925 42.6775 11.7662L45.9546 7.28915C46.006 7.20962 46.0739 7.13243 46.1581 7.05758C46.247 6.98273 46.3452 6.9453 46.4528 6.9453H47.2809ZM44.2704 5.19098C44.4576 5.19098 44.6143 5.16993 44.7406 5.12783C44.8716 5.08572 44.9745 5.01789 45.0494 4.92433C45.1289 4.83076 45.185 4.70913 45.2178 4.55943C45.2552 4.40505 45.2739 4.21792 45.2739 3.99805H46.0809C46.1745 3.99805 46.247 4.04015 46.2984 4.12436C46.3499 4.20857 46.3756 4.30213 46.3756 4.40505C46.3756 4.63896 46.3265 4.84948 46.2283 5.0366C46.1347 5.22373 45.9967 5.38513 45.8142 5.5208C45.6318 5.65178 45.4096 5.7547 45.1476 5.82956C44.8903 5.89973 44.5979 5.93481 44.2704 5.93481C43.943 5.93481 43.6482 5.89973 43.3863 5.82956C43.129 5.7547 42.9091 5.65178 42.7266 5.5208C42.5442 5.38513 42.4038 5.22373 42.3056 5.0366C42.212 4.84948 42.1653 4.63896 42.1653 4.40505C42.1653 4.30213 42.191 4.20857 42.2425 4.12436C42.2939 4.04015 42.3664 3.99805 42.46 3.99805H43.267C43.267 4.21792 43.2833 4.40505 43.3161 4.55943C43.3535 4.70913 43.4097 4.83076 43.4845 4.92433C43.564 5.01789 43.667 5.08572 43.7933 5.12783C43.9243 5.16993 44.0833 5.19098 44.2704 5.19098Z" fill="#474748"/>
<path d="M55.1633 7.98386H52.4757V14.0749H51.1003V7.98386H48.4127V6.9453H55.1633V7.98386Z" fill="#474748"/>
<path d="M62.4941 6.9453V14.0749H61.1187V9.41538C61.1187 9.32182 61.1234 9.2189 61.1327 9.10662C61.1421 8.98967 61.1561 8.87271 61.1748 8.75576C61.1281 8.854 61.0813 8.94756 61.0345 9.03645C60.9924 9.12066 60.9479 9.19551 60.9012 9.261L57.6241 13.731C57.5726 13.8152 57.5048 13.8947 57.4206 13.9696C57.3364 14.0444 57.2405 14.0819 57.1329 14.0819H56.3048V6.9453H57.6732V11.6118C57.6732 11.7054 57.6685 11.8106 57.6592 11.9276C57.6498 12.0398 57.6358 12.1521 57.6171 12.2644C57.7106 12.0586 57.8019 11.8925 57.8908 11.7662L61.1678 7.28915C61.2193 7.20962 61.2871 7.13243 61.3713 7.05758C61.4602 6.98273 61.5584 6.9453 61.666 6.9453H62.4941Z" fill="#474748"/>
<path d="M70.4116 6.9453V14.0749H69.0363V10.7908H65.7732V14.0749H64.4049V6.9453H65.7732V9.75221H69.0363V6.9453H70.4116Z" fill="#474748"/>
<path d="M77.0002 7.98386H73.6951V14.0749H72.3267V6.9453H77.0002V7.98386Z" fill="#474748"/>
<path d="M28.8552 23.2184C29.2342 23.2184 29.5663 23.1692 29.8517 23.071C30.1417 22.9728 30.3827 22.8347 30.5745 22.657C30.771 22.4745 30.9183 22.2593 31.0166 22.0114C31.1148 21.7588 31.1639 21.4804 31.1639 21.1763C31.1639 20.5635 30.9721 20.0816 30.5885 19.7308C30.2096 19.3799 29.6318 19.2045 28.8552 19.2045H27.2974V23.2184H28.8552ZM28.8552 18.0326C29.5008 18.0326 30.0622 18.1074 30.5394 18.2571C31.0166 18.4068 31.4119 18.6197 31.7253 18.8957C32.0388 19.1671 32.2703 19.4969 32.42 19.8852C32.5744 20.2734 32.6516 20.7038 32.6516 21.1763C32.6516 21.6488 32.5697 22.0839 32.406 22.4815C32.2423 22.8745 32.0013 23.2137 31.6832 23.499C31.3651 23.7844 30.9674 24.0066 30.4903 24.1657C30.0178 24.3201 29.4728 24.3973 28.8552 24.3973H27.2974V28.1094H25.8027V18.0326H28.8552Z" fill="#474748"/>
<path d="M40.2509 20.9798L36.2931 30.1795C36.251 30.2824 36.1949 30.3619 36.1247 30.4181C36.0545 30.4742 35.9516 30.5023 35.8159 30.5023H34.7984L36.1037 27.6603L33.1774 20.9798H34.3704C34.4873 20.9798 34.5786 21.0079 34.6441 21.0641C34.7096 21.1202 34.7563 21.1833 34.7844 21.2535L36.5949 25.5341C36.6323 25.6417 36.6674 25.7516 36.7001 25.8639C36.7375 25.9715 36.768 26.0791 36.7913 26.1867C36.8241 26.0744 36.8592 25.9645 36.8966 25.8569C36.934 25.7446 36.9738 25.6346 37.0159 25.527L38.7632 21.2535C38.7959 21.174 38.8474 21.1085 38.9176 21.057C38.9878 21.0056 39.0673 20.9798 39.1562 20.9798H40.2509Z" fill="#474748"/>
<path d="M47.304 20.9798V28.1094H45.9286V24.8253H42.6656V28.1094H41.2972V20.9798H42.6656V23.7868H45.9286V20.9798H47.304Z" fill="#474748"/>
<path d="M53.9417 23.7517C53.9417 23.4803 53.9019 23.2301 53.8224 23.0008C53.7475 22.7716 53.6352 22.5728 53.4855 22.4044C53.3358 22.2359 53.1534 22.105 52.9382 22.0114C52.723 21.9178 52.4751 21.871 52.1944 21.871C51.619 21.871 51.1652 22.0371 50.833 22.3693C50.5055 22.7014 50.2974 23.1622 50.2085 23.7517H53.9417ZM55.0715 27.0919C54.903 27.2884 54.7089 27.4591 54.489 27.6042C54.2691 27.7445 54.0352 27.8591 53.7873 27.948C53.5393 28.0369 53.282 28.1024 53.0154 28.1445C52.7534 28.1866 52.4938 28.2076 52.2365 28.2076C51.7453 28.2076 51.2891 28.1258 50.8681 27.962C50.4517 27.7936 50.0892 27.5504 49.7804 27.2322C49.4763 26.9094 49.2378 26.5118 49.0647 26.0393C48.8962 25.5621 48.812 25.0148 48.812 24.3973C48.812 23.9014 48.8892 23.4406 49.0436 23.0149C49.198 22.5845 49.4179 22.2102 49.7032 21.8921C49.9933 21.574 50.3465 21.3237 50.7628 21.1412C51.1792 20.9588 51.647 20.8676 52.1663 20.8676C52.6014 20.8676 53.0014 20.9401 53.3663 21.0851C53.7358 21.2255 54.0539 21.4313 54.3206 21.7026C54.5873 21.974 54.7954 22.3085 54.9451 22.7061C55.0995 23.1037 55.1767 23.5575 55.1767 24.0674C55.1767 24.278 55.1533 24.4207 55.1065 24.4955C55.0598 24.5657 54.9732 24.6008 54.8469 24.6008H50.1734C50.1874 25.0265 50.2482 25.3984 50.3558 25.7165C50.4634 26.0299 50.6108 26.2919 50.7979 26.5024C50.9897 26.713 51.2166 26.8697 51.4786 26.9726C51.7406 27.0755 52.033 27.127 52.3558 27.127C52.6598 27.127 52.9218 27.0919 53.1417 27.0217C53.3663 26.9515 53.5581 26.8767 53.7171 26.7972C53.8809 26.713 54.0165 26.6358 54.1241 26.5656C54.2364 26.4954 54.3346 26.4603 54.4188 26.4603C54.5311 26.4603 54.6177 26.5024 54.6785 26.5866L55.0715 27.0919Z" fill="#474748"/>
<path d="M62.5232 22.0184H59.8356V28.1094H58.4602V22.0184H55.7726V20.9798H62.5232V22.0184Z" fill="#474748"/>
<path d="M67.4414 24.9446C66.8847 24.9633 66.4122 25.0078 66.0239 25.0779C65.6356 25.1434 65.3198 25.2323 65.0765 25.3446C64.8333 25.4569 64.6578 25.5902 64.5503 25.7446C64.4427 25.8943 64.3889 26.0627 64.3889 26.2498C64.3889 26.4276 64.4169 26.582 64.4731 26.713C64.5339 26.8393 64.6134 26.9445 64.7117 27.0287C64.8146 27.1083 64.9339 27.1667 65.0695 27.2042C65.2052 27.2416 65.3526 27.2603 65.5116 27.2603C65.7221 27.2603 65.9139 27.2393 66.087 27.1972C66.2648 27.155 66.4309 27.0966 66.5853 27.0217C66.7396 26.9422 66.887 26.8463 67.0273 26.734C67.1677 26.6217 67.3057 26.4931 67.4414 26.3481V24.9446ZM63.4275 21.9763C63.8251 21.5974 64.2555 21.3143 64.7187 21.1272C65.1865 20.9401 65.6987 20.8465 66.2554 20.8465C66.6624 20.8465 67.0227 20.9144 67.3361 21.05C67.6495 21.181 67.9139 21.3658 68.1291 21.6044C68.3443 21.843 68.5057 22.1283 68.6133 22.4605C68.7255 22.7926 68.7817 23.1599 68.7817 23.5622V28.1094H68.1712C68.0355 28.1094 67.9326 28.0883 67.8624 28.0462C67.7922 27.9995 67.7361 27.9153 67.694 27.7936L67.5466 27.1691C67.3642 27.3375 67.1841 27.4872 67.0063 27.6182C66.8285 27.7445 66.6414 27.8544 66.4449 27.948C66.2531 28.0369 66.0473 28.1047 65.8274 28.1515C65.6075 28.1983 65.3643 28.2217 65.0976 28.2217C64.8169 28.2217 64.5526 28.1842 64.3046 28.1094C64.0614 28.0299 63.8485 27.9106 63.6661 27.7515C63.4836 27.5925 63.3386 27.3936 63.231 27.155C63.1281 26.9165 63.0766 26.6381 63.0766 26.32C63.0766 26.0393 63.1515 25.7703 63.3012 25.513C63.4556 25.251 63.7035 25.0171 64.045 24.8113C64.3912 24.6054 64.8403 24.437 65.3923 24.306C65.949 24.175 66.632 24.1002 67.4414 24.0815V23.5622C67.4414 23.0242 67.3268 22.6219 67.0975 22.3552C66.8683 22.0886 66.5315 21.9552 66.087 21.9552C65.7876 21.9552 65.535 21.9927 65.3292 22.0675C65.128 22.1424 64.9526 22.2266 64.8029 22.3201C64.6579 22.409 64.5292 22.4909 64.4169 22.5658C64.3093 22.6406 64.197 22.678 64.0801 22.678C63.9865 22.678 63.9047 22.6523 63.8345 22.6008C63.769 22.5494 63.7152 22.4886 63.6731 22.4184L63.4275 21.9763Z" fill="#474748"/>
</g>
<defs>
<clipPath id="clip0_700_8876">
<rect width="80" height="30" fill="white"/>
</clipPath>
</defs>
</svg>
