<svg width="80" height="30" viewBox="0 0 80 30" fill="none" xmlns="http://www.w3.org/2000/svg">
<g clip-path="url(#clip0_700_8901)">
<path d="M28.2168 0C30.2934 1.38621 32.3508 2.75317 34.4082 4.13939C34.0621 4.67847 33.716 5.21755 33.3699 5.75664C32.2547 7.47015 31.1587 9.16441 30.0434 10.8779C29.9473 11.0127 29.8512 11.0705 29.6973 11.0705C28.3322 11.1475 26.9862 11.2245 25.621 11.3015C25.448 11.3207 25.3903 11.263 25.3326 11.109C24.948 10.05 24.5443 8.99113 24.1597 7.93222C24.1212 7.83596 24.1212 7.72044 24.1597 7.64343C25.4864 5.12129 26.8132 2.6184 28.1591 0.115518C28.1591 0.0770118 28.1783 0.0577589 28.2168 0ZM25.7748 9.04889C25.7748 9.60723 26.2748 10.1271 26.7939 10.1271C27.4477 10.1271 27.9284 9.66499 27.9284 9.04889C27.9284 8.45205 27.4477 7.97073 26.8516 7.97073C26.2555 7.97073 25.7748 8.45205 25.7748 9.04889Z" fill="#474748"/>
<path d="M6.45238 10.9165C5.87554 10.8394 5.31793 10.7817 4.77955 10.7047C3.83738 10.5699 2.93367 10.3389 2.06841 9.93455C1.45312 9.60725 0.953192 9.20294 0.549406 8.66386C-0.258166 7.64345 -0.181255 6.39201 0.818597 5.50637C1.70308 4.717 2.76062 4.31269 3.93352 4.10091C5.26025 3.86987 6.47161 4.15867 7.54837 4.94804C8.2598 5.46787 8.68282 6.16097 8.6059 7.06586C8.56745 7.50868 8.45208 7.97075 8.27903 8.37506C8.00984 9.02966 7.64451 9.66501 7.33686 10.3004C7.29841 10.3774 7.25995 10.4351 7.20227 10.5314C7.58682 10.5892 7.93293 10.6662 8.29826 10.7047C11.7593 11.1475 15.2395 11.186 18.7198 11.1475C20.3926 11.1282 22.0462 11.0512 23.719 11.0127C23.7575 11.0127 23.796 10.9935 23.8344 11.0127C23.9113 11.0512 23.9882 11.0897 24.0844 11.1282C24.0075 11.186 23.9306 11.2823 23.8536 11.2823C23.2383 11.3208 22.6038 11.3593 21.9885 11.3593C19.2005 11.3593 16.4317 11.3785 13.6436 11.3015C11.5478 11.2438 9.4327 11.0512 7.33686 10.9165C7.06767 10.8972 6.91385 10.955 6.77925 11.2052C6.22164 12.2064 5.58712 13.1691 5.0872 14.2087C4.16426 16.134 3.7797 18.1748 3.97198 20.3119C4.37576 24.9326 6.83694 27.9746 11.1632 29.5726C11.3747 29.6496 11.6055 29.7073 11.817 29.8036C11.8939 29.8421 11.9323 29.9769 11.99 30.0539C11.8939 30.0924 11.7785 30.2079 11.7016 30.1887C9.10583 29.5341 6.77925 28.3981 5.02951 26.3188C3.70279 24.7401 2.9529 22.9111 2.77984 20.851C2.52988 17.9053 3.39514 15.2676 5.10642 12.8803C5.54867 12.2642 5.99091 11.6288 6.43315 10.9935C6.39469 10.9935 6.41392 10.9742 6.45238 10.9165ZM4.02966 4.31269C3.87584 4.33194 3.68356 4.33194 3.47205 4.37045C2.08764 4.52447 1.04933 5.42936 0.722457 6.73856C0.51095 7.56644 0.741685 8.2788 1.43389 8.79863C1.79922 9.06817 2.20301 9.27995 2.62602 9.43398C3.91429 9.9153 5.27947 10.1463 6.62543 10.3966C6.70234 10.4159 6.81771 10.3389 6.85616 10.2811C7.14458 9.76128 7.45223 9.24145 7.70219 8.70236C8.35594 7.37391 7.7791 6.08396 6.93307 5.35235C6.1255 4.63999 5.14488 4.35119 4.02966 4.31269Z" fill="#474748"/>
<path d="M54.8867 14.5552C55.3866 14.5552 55.8866 14.5552 56.3673 14.5552C56.7518 14.5552 57.1364 14.5552 57.5209 14.5552C57.694 14.5552 57.7901 14.6129 57.8863 14.7477C59.6552 17.1543 61.4434 19.5802 63.2124 21.9868C63.2701 22.0446 63.3085 22.1216 63.4047 22.2371C63.4047 22.1023 63.4047 22.0638 63.4047 22.0061C63.4047 20.4658 63.4047 18.9063 63.4047 17.3661C63.4047 16.9233 63.347 16.4805 63.2701 16.0377C63.2124 15.6526 62.9817 15.4023 62.5971 15.306C62.2895 15.229 61.9818 15.1328 61.6357 15.0365C61.6357 14.9017 61.6357 14.7477 61.6357 14.5744C62.9817 14.5744 64.3276 14.5744 65.6928 14.5744C65.6928 14.7285 65.6928 14.8825 65.6928 15.0365C65.4044 15.1135 65.1352 15.1905 64.8468 15.2483C64.443 15.3445 64.2315 15.6141 64.193 15.9991C64.1353 16.442 64.0969 16.8848 64.0969 17.3276C64.0777 19.6957 64.0969 22.0638 64.0969 24.4319C64.0969 24.5282 64.0969 24.6052 64.0969 24.7207C63.9046 24.7207 63.7123 24.74 63.5585 24.7207C63.4816 24.7015 63.4047 24.6245 63.3662 24.5475C61.7319 22.3526 60.1167 20.1578 58.5016 17.963C58.1555 17.4816 57.7901 17.0196 57.4248 16.4997C57.4056 16.596 57.4056 16.6537 57.4056 16.6923C57.4056 18.425 57.4056 20.1578 57.4056 21.8906C57.4056 22.2949 57.4633 22.7184 57.5402 23.1227C57.6171 23.5271 57.867 23.7966 58.2708 23.8929C58.5593 23.9699 58.8669 24.0469 59.1745 24.1239C59.1745 24.2587 59.1745 24.4127 59.1745 24.586C57.8094 24.586 56.4442 24.586 55.079 24.586C55.079 24.4319 55.079 24.2779 55.079 24.1239C55.3097 24.0661 55.5405 24.0276 55.752 23.9506C56.3865 23.7773 56.598 23.5078 56.6557 22.8725C56.6941 22.4874 56.6941 22.1023 56.7134 21.7173C56.7134 20.1193 56.7134 18.5405 56.7134 16.9425C56.7134 15.9221 56.3865 15.4793 55.4251 15.152C55.2713 15.0943 55.0982 15.075 54.9252 15.0172C54.8867 14.9017 54.8867 14.7477 54.8867 14.5552Z" fill="#474748"/>
<path d="M69.4048 15.152C69.4048 16.4612 69.4048 17.7704 69.4048 19.1181C69.5394 19.1181 69.674 19.1181 69.8085 19.1181C70.1931 19.1181 70.5969 19.0989 70.9815 19.0796C71.4045 19.0604 71.7313 18.8293 71.8852 18.4443C72.0198 18.1362 72.0967 17.8089 72.212 17.4816C72.3466 17.4816 72.5005 17.4816 72.6927 17.4816C72.6927 18.7908 72.6927 20.0808 72.6927 21.4092C72.5197 21.4092 72.3659 21.4092 72.212 21.4092C72.1351 21.1397 72.0774 20.8509 71.9813 20.5814C71.8082 20.0423 71.4622 19.7342 70.8853 19.715C70.4046 19.6957 69.9047 19.715 69.4048 19.715C69.4048 19.7727 69.3855 19.8112 69.3855 19.869C69.3855 20.8701 69.3855 21.8713 69.3855 22.8725C69.3855 23.7773 69.6163 24.0084 70.52 24.0276C71.2891 24.0469 72.0774 24.1046 72.8466 23.9314C73.135 23.8736 73.3657 23.7388 73.5195 23.4886C73.808 23.0072 74.0964 22.5066 74.3463 22.0061C74.5386 21.6403 74.5194 21.621 75.0001 21.6788C74.9424 22.6414 74.8847 23.6233 74.8078 24.6052C72.0198 24.6052 69.2509 24.6052 66.4629 24.6052C66.4629 24.4512 66.4629 24.2972 66.4629 24.1239C66.7129 24.0854 66.982 24.0469 67.2512 24.0084C67.6742 23.9314 67.8858 23.7003 67.8858 23.2575C67.8858 20.8316 67.8858 18.4058 67.8858 15.9606C67.8858 15.5563 67.7512 15.3638 67.3474 15.229C67.059 15.1328 66.7705 15.075 66.4629 14.998C66.4629 14.8632 66.4629 14.7092 66.4629 14.5552C69.0394 14.5552 71.6352 14.5552 74.231 14.5552C74.231 15.3445 74.231 16.1339 74.231 16.9618C74.0771 16.9618 73.9425 16.981 73.808 16.9618C73.7503 16.9425 73.6734 16.8655 73.6541 16.8078C73.4811 16.3457 73.2119 15.9414 72.885 15.5948C72.6351 15.3253 72.3659 15.152 71.9813 15.152C71.1353 15.152 70.2892 15.152 69.4048 15.152Z" fill="#474748"/>
<path d="M35.697 20.6007C35.697 20.4274 35.697 20.2926 35.697 20.1194C37.1583 20.1194 38.6004 20.1194 40.0617 20.1194C40.0617 20.2926 40.0617 20.4467 40.0617 20.6007C39.831 20.6392 39.6002 20.6777 39.3887 20.7355C38.9657 20.851 38.7927 21.082 38.7734 21.5056C38.7734 22.2757 38.7927 23.0458 38.7927 23.8159C38.7927 23.8929 38.735 24.0085 38.6773 24.047C37.5236 24.5475 36.3315 24.8748 35.0624 24.8748C32.7359 24.8556 30.8323 23.2961 30.3516 21.0243C30.044 19.5803 30.1978 18.1941 30.9092 16.8849C31.8706 15.1328 33.7934 14.1317 35.7739 14.3627C36.1392 14.4012 36.5045 14.4782 36.8506 14.5938C37.1967 14.69 37.5236 14.8633 37.889 15.0173C38.0236 14.6708 38.2543 14.4205 38.7158 14.613C38.7158 14.613 38.735 14.6515 38.735 14.6708C38.735 15.7875 38.735 16.9234 38.735 18.0593C38.6004 18.0593 38.4081 18.0593 38.2351 18.0593C38.1197 17.7127 38.0043 17.3662 37.889 17.0196C37.812 16.8079 37.7159 16.6153 37.6198 16.4035C36.5622 14.3627 33.9857 14.6323 32.9282 16.0762C32.4475 16.7308 32.1783 17.4625 32.0629 18.2518C31.8706 19.5033 31.9091 20.7547 32.3705 21.9484C32.7936 23.0266 33.4858 23.8352 34.6394 24.124C35.4855 24.3358 36.293 24.2395 37.0814 23.8352C37.2544 23.7389 37.389 23.6234 37.389 23.3924C37.389 22.757 37.4275 22.1217 37.4083 21.4863C37.389 21.0628 37.216 20.851 36.7737 20.7547C36.3892 20.6777 36.0431 20.6392 35.697 20.6007Z" fill="#474748"/>
<path d="M23.3917 24.1624C23.3917 24.2972 23.3917 24.4319 23.3917 24.6052C22.1419 24.6052 20.8921 24.6052 19.623 24.6052C19.623 24.4512 19.623 24.2972 19.623 24.1432C19.6423 24.1239 19.6615 24.1239 19.6615 24.1239C20.5075 24.0469 21.0075 23.5656 21.3151 22.7954C22.3534 20.0808 23.4302 17.3854 24.4877 14.6707C24.5646 14.4782 24.6415 14.4204 24.853 14.4204C25.0453 14.4204 25.1799 14.4397 25.2568 14.6707C26.2951 17.3854 27.3719 20.1 28.391 22.834C28.6794 23.6041 29.1216 24.0854 29.9677 24.1239C29.9677 24.2972 29.9677 24.4512 29.9677 24.6052C28.5833 24.6052 27.2181 24.6052 25.8144 24.6052C25.8144 24.4512 25.8144 24.2972 25.8144 24.1432C26.1221 24.0854 26.4297 24.0469 26.7181 23.9699C27.0835 23.8736 27.1604 23.7581 27.0258 23.373C26.7758 22.6799 26.5066 21.9676 26.2375 21.2745C26.2182 21.1975 26.1029 21.1204 26.0259 21.1204C24.9492 21.1204 23.8724 21.1204 22.7957 21.1204C22.7187 21.1204 22.6226 21.1975 22.6034 21.2552C22.3919 21.9098 22.1611 22.5644 21.9689 23.219C21.8727 23.5848 21.9689 23.7773 22.3342 23.8929C22.6803 24.0276 23.0264 24.0854 23.3917 24.1624ZM25.949 20.5043C25.4299 19.1951 24.9492 17.9244 24.43 16.596C23.9109 17.9244 23.4302 19.2144 22.9303 20.5043C23.9301 20.5043 24.9107 20.5043 25.949 20.5043Z" fill="#474748"/>
<path d="M19.778 17.2699C19.7588 17.2699 19.7395 17.2891 19.7395 17.2891C19.3358 17.3084 19.355 17.3084 19.2012 16.9618C18.9704 16.4035 18.682 15.9029 18.259 15.4794C18.0859 15.3061 17.8744 15.1713 17.6052 15.1713C17.1438 15.1713 16.6631 15.1713 16.1824 15.1713C16.1824 15.2291 16.1632 15.3061 16.1632 15.3831C16.1632 17.9437 16.1632 20.5044 16.1632 23.065C16.1632 23.6619 16.3362 23.8736 16.8938 23.9892C17.1822 24.0469 17.4706 24.1047 17.7591 24.1624C17.7591 24.3165 17.7591 24.4512 17.7591 24.6245C16.1824 24.6245 14.6249 24.6245 13.0482 24.6245C13.0482 24.4705 13.0482 24.3165 13.0482 24.1432C13.3559 24.1047 13.6635 24.0854 13.9712 24.0277C14.4326 23.9507 14.6634 23.7004 14.6634 23.2383C14.6634 20.5621 14.6634 17.9052 14.6634 15.2291C14.6634 15.1906 14.6634 15.1713 14.6441 15.1328C14.2019 15.1328 13.7597 15.1328 13.3174 15.1328C12.9521 15.1328 12.6829 15.3061 12.4522 15.5756C12.0291 16.0762 11.7215 16.6345 11.51 17.2699C11.3562 17.2699 11.2023 17.2699 11.0293 17.2699C11.0293 16.365 11.0293 15.4794 11.0293 14.5745C13.9327 14.5745 16.8361 14.5745 19.778 14.5745C19.778 15.4794 19.778 16.365 19.778 17.2699Z" fill="#474748"/>
<path d="M48.8492 21.6596C48.7723 22.6415 48.7146 23.6234 48.6377 24.6245C46.0227 24.6245 43.4077 24.6245 40.7927 24.6245C40.7927 24.4705 40.7927 24.3165 40.7927 24.1625C41.0426 24.124 41.2926 24.1047 41.5233 24.047C41.9079 23.9699 42.1002 23.7582 42.1194 23.3731C42.1386 23.0651 42.1194 22.7378 42.1194 22.4297C42.1194 20.3696 42.1194 18.3096 42.1194 16.2495C42.1194 15.5564 41.9848 15.3831 41.331 15.1906C41.158 15.1328 40.9657 15.1136 40.7734 15.0558C40.7734 14.9018 40.7734 14.767 40.7734 14.5938C42.1771 14.5938 43.5807 14.5938 44.9844 14.5938C44.9844 14.7478 44.9844 14.9018 44.9844 15.0558C44.7152 15.1136 44.446 15.1521 44.196 15.2098C43.7922 15.3061 43.6384 15.4794 43.6192 15.903C43.6192 15.98 43.6192 16.057 43.6192 16.134C43.6192 18.3096 43.6192 20.4852 43.6192 22.6607C43.6192 22.911 43.6384 23.1613 43.6576 23.4116C43.6961 23.7582 43.8691 23.9699 44.2152 24.0084C45.042 24.1047 45.8496 24.124 46.6572 23.9314C46.9071 23.8737 47.1187 23.7389 47.2532 23.5271C47.5609 23.0073 47.8878 22.4875 48.1762 21.9676C48.4069 21.6211 48.3877 21.6211 48.8492 21.6596Z" fill="#474748"/>
<path d="M49.6191 24.6053C49.6191 24.432 49.6191 24.278 49.6191 24.1432C49.9268 24.1047 50.2152 24.0855 50.5036 24.047C50.9459 23.9699 51.1189 23.7582 51.1189 23.3153C51.1189 20.8702 51.1189 18.4443 51.1189 15.9992C51.1189 15.5757 51.0036 15.4216 50.5998 15.2869C50.4459 15.2291 50.2729 15.1906 50.1191 15.1521C49.9652 15.1136 49.8114 15.0943 49.6191 15.0558C49.6191 14.9018 49.6191 14.767 49.6191 14.5938C51.1189 14.5938 52.5995 14.5938 54.1185 14.5938C54.1185 14.7285 54.1185 14.8825 54.1185 15.0558C53.8685 15.0943 53.5993 15.1328 53.3301 15.1906C52.7533 15.3061 52.6187 15.4794 52.6187 16.0762C52.6187 18.4251 52.6187 20.774 52.6187 23.1421C52.6187 23.7004 52.7725 23.9122 53.3109 24.0277C53.5801 24.0855 53.8301 24.124 54.1185 24.1817C54.1185 24.3165 54.1185 24.4705 54.1185 24.6438C52.6187 24.6053 51.1189 24.6053 49.6191 24.6053Z" fill="#474748"/>
</g>
<defs>
<clipPath id="clip0_700_8901">
<rect width="80" height="30" fill="white"/>
</clipPath>
</defs>
</svg>
