<svg width="80" height="80" viewBox="0 0 80 80" fill="none" xmlns="http://www.w3.org/2000/svg">
<g opacity="0.5" clip-path="url(#clip0_411_9646)">
<path d="M45.2675 37.7822L57.7285 29.9597L57.7285 39.6081C57.7285 48.669 50.7852 56.1414 41.9335 56.9954L41.9335 46.7216C43.8797 46.0316 45.2775 44.1732 45.2775 41.9927L45.2775 38.0876C45.2775 37.985 45.2731 37.8836 45.2675 37.7822Z" fill="white"/>
<path d="M41.9336 41.9927C41.9336 42.9157 41.1834 43.6648 40.2616 43.6648C39.3397 43.6648 38.5896 42.9156 38.5896 41.9927L38.5896 38.0876C38.5896 37.1656 39.3397 36.4155 40.2616 36.4155C41.1834 36.4155 41.9336 37.1658 41.9336 38.0876L41.9336 41.9927Z" fill="white"/>
<path d="M22.7502 39.6083L22.7502 29.932L35.2558 37.7823C35.2503 37.8838 35.2458 37.9852 35.2458 38.0878L35.2458 41.9928C35.2458 44.1734 36.6436 46.0317 38.5898 46.7218L38.5898 57C34.5402 56.6255 30.7826 54.8685 27.8711 51.9612C24.5694 48.6614 22.7502 44.2748 22.7502 39.6083Z" fill="white"/>
<path d="M36.5919 34.6719L22.7498 25.9822L22.7498 17.4686C22.7498 7.83694 30.5961 6.24779e-05 40.2392 6.33209e-05C49.8823 6.41639e-05 57.7285 7.83694 57.7285 17.4687L57.7285 26.0111L43.931 34.6719C43.0147 33.6886 41.7094 33.0711 40.2615 33.0711C38.8135 33.0711 37.5082 33.6886 36.5919 34.6719Z" fill="white"/>
<path d="M44.9489 71.9447C44.5284 71.9447 44.1067 72.1055 43.7859 72.4272L41.6635 74.5503L41.6635 63.6406C41.6635 62.7349 40.9276 61.9999 40.0209 61.9999C40.0099 61.9999 39.999 61.9999 39.9881 62.001C39.0966 62.0174 38.3782 62.746 38.3782 63.6406L38.3782 74.5502L36.2559 72.427C35.6141 71.7849 34.5738 71.7849 33.9321 72.4249C33.2903 73.0647 33.2892 74.1038 33.9299 74.7448L38.8578 79.6757C39.4712 80.3111 40.5711 80.3107 41.1838 79.6757L46.112 74.7448C46.7527 74.1038 46.7516 73.0648 46.1098 72.4249C45.7889 72.1044 45.3683 71.9447 44.9489 71.9447Z" fill="white"/>
</g>
<defs>
<clipPath id="clip0_411_9646">
<rect width="80" height="80" fill="white" transform="translate(80 80) rotate(-180)"/>
</clipPath>
</defs>
</svg>
