<svg width="1920" height="1428" viewBox="0 0 1920 1428" fill="none" xmlns="http://www.w3.org/2000/svg">
<g clip-path="url(#clip0_7_506)">
<g opacity="0.4">
<mask id="mask0_7_506" style="mask-type:luminance" maskUnits="userSpaceOnUse" x="-122" y="-19" width="2231" height="1448">
<path d="M2109 -18.4822H-122V1428.32H2109V-18.4822Z" fill="white"/>
</mask>
<g mask="url(#mask0_7_506)">
<path d="M820.797 305.035C780.413 277.393 738.651 248.81 705.047 212.949C653.308 157.742 620.295 80.8961 588.368 6.57942C582.261 -7.63691 576.122 -21.9053 569.836 -36.0869H566.597C573.058 -21.5378 579.355 -6.89325 585.623 7.69635C617.648 82.2387 650.762 159.322 702.845 214.899C736.67 250.994 778.565 279.67 819.08 307.402C860.393 335.679 903.112 364.919 937.097 401.96C1023.94 496.598 1045.44 642.682 989.383 757.244C935.503 874.698 814.467 943.737 673.372 937.406C532.18 931.069 418.024 851.436 375.474 729.63C353.527 657.833 350.222 584.608 347.028 513.792C340.852 376.924 335.019 247.641 203.28 134.506C142.504 73.2685 105.836 17.4941 92.2445 -36.0869H89.475C91.0992 -29.5358 93.0179 -22.9586 95.3084 -16.3496C111.88 31.4645 146.514 81.4806 201.189 136.555L201.275 136.636C332.113 248.966 337.919 377.665 344.065 513.92C347.269 584.911 350.579 658.317 372.645 730.509C394.563 793.255 435.89 846.017 492.156 883.095C544.432 917.547 607.049 937.325 673.241 940.296C679.027 940.557 684.786 940.684 690.536 940.684C750.523 940.684 808.363 926.607 858.768 899.609C918.241 867.756 964.345 818.935 992.09 758.459C1048.63 642.908 1026.93 495.519 939.322 400.036C905.108 362.746 862.246 333.407 820.797 305.035Z" fill="#3D3340"/>
<path d="M790.045 308.181C755.131 284.259 719.027 259.525 689.772 228.719C674.449 212.59 660.308 193.851 646.541 171.429C622.99 133.059 603.902 88.7204 585.441 45.84C573.584 18.3014 561.611 -9.46857 548.311 -36.0869H544.992C558.523 -9.14448 570.672 19.0248 582.696 46.9569C601.198 89.9299 620.325 134.364 643.986 172.91C657.862 195.506 672.123 214.404 687.585 230.681C717.052 261.712 753.287 286.536 788.328 310.548C824.604 335.401 862.115 361.102 891.966 393.635C967.579 475.799 986.465 604.637 937.892 706.947C890.675 806.4 790.869 866.561 674.961 866.555C669.764 866.555 664.52 866.434 659.264 866.191C534.387 860.574 431.252 788.538 396.52 682.672C375.29 617.956 371.685 552.332 368.201 488.864C361.722 370.911 355.604 259.499 244.488 157.313C175.303 93.6858 141.704 27.3729 144.896 -36.0869H141.856C138.655 28.1397 172.584 95.1674 242.45 159.417C352.7 260.809 358.789 371.661 365.236 489.02C368.731 552.668 372.348 618.483 393.691 683.552C428.804 790.584 532.995 863.41 659.127 869.082C664.445 869.33 669.722 869.452 674.979 869.452C792.041 869.452 892.885 808.651 940.596 708.162C989.651 604.837 970.565 474.702 894.185 391.708C864.111 358.929 826.458 333.129 790.045 308.181Z" fill="#3D3140"/>
<path d="M849.053 383.377C823.105 355.101 790.649 332.834 759.257 311.3C729.823 291.108 699.386 270.228 674.497 244.484C661.197 230.739 648.962 214.914 637.087 196.108C615.934 162.563 598.922 123.548 582.472 85.8181C564.044 43.5598 545.304 0.630142 520.234 -36.0869H516.622C542.139 0.792183 561.102 44.2137 579.736 86.9495C596.227 124.778 613.284 163.891 634.553 197.622C646.532 216.598 658.892 232.576 672.331 246.469C697.428 272.424 727.99 293.391 757.544 313.667C788.795 335.106 821.115 357.277 846.837 385.31C912.39 456.267 928.655 567.854 886.397 656.667C843.374 747.081 750.993 800.014 645.202 794.982C537.153 790.118 447.806 727.613 417.581 635.741C399.123 579.633 396.113 522.592 393.2 467.428C387.792 364.936 382.682 268.127 285.693 180.127C209.414 110.912 185.018 31.3082 216.577 -36.0811H213.322C182.005 32.1879 206.775 112.477 283.664 182.245C379.77 269.447 384.851 365.688 390.229 467.578C393.15 522.927 396.169 580.163 414.749 636.626C445.355 729.661 535.758 792.956 645.059 797.873C649.795 798.101 654.501 798.214 659.18 798.214C760.224 798.214 847.483 745.348 889.098 657.885C909.716 614.559 917.31 563.84 910.489 515.071C903.454 464.809 882.212 419.269 849.053 383.377Z" fill="#3D3140"/>
<path d="M728.585 314.573C704.591 298.059 679.783 280.986 659.219 260.248C647.924 248.865 637.593 235.956 627.637 220.782C608.786 192.008 593.809 158.208 579.322 125.521C551.482 62.6981 522.786 -1.99437 464.902 -36.0869H459.018C519.041 -3.16917 548.258 62.7271 576.592 126.667C591.123 159.458 606.151 193.365 625.129 222.339C635.193 237.678 645.645 250.737 657.08 262.259C677.837 283.191 702.765 300.348 726.869 316.937C753.031 334.941 780.082 353.558 801.705 376.985C857.962 437.933 871.304 530.124 834.9 606.388C798.305 683.054 720.205 727.989 631.141 723.77C539.834 719.398 464.271 666.424 438.638 588.809C422.95 541.307 420.517 492.86 418.164 446.006C413.794 359.004 409.668 276.828 326.898 202.934C283.382 164.082 259.513 118.279 259.691 73.9601C259.828 39.5087 274.743 8.25771 302.821 -16.4161C310.951 -23.5605 320.535 -30.3315 331.188 -36.0811H324.991C316.57 -31.1244 308.47 -25.2793 300.828 -18.5632C272.114 6.672 256.86 38.6638 256.717 73.9514C256.535 119.095 280.746 165.659 324.89 205.067C406.759 278.159 410.855 359.759 415.195 446.151C417.557 493.19 419.999 541.831 435.81 589.697C461.826 668.47 538.441 722.234 631.001 726.664C634.943 726.852 638.851 726.947 642.748 726.947C728.142 726.947 802.11 681.975 837.604 607.612C874.499 530.312 860.967 436.854 803.924 375.058C782.073 351.379 754.881 332.669 728.585 314.573Z" fill="#3D3340"/>
<path d="M626.715 655.683C623.469 655.683 620.206 655.602 616.925 655.44C542.341 651.739 478.017 606.457 456.858 542.76C443.814 503.491 441.928 463.455 440.105 424.738C436.767 353.888 433.614 286.968 366.104 227.883C327.288 193.912 307.471 151.682 311.733 112.025C315.101 80.7224 333.642 54.0924 363.945 37.0491C400.917 16.2584 440.626 13.3533 472.904 29.0743C526.263 55.0676 551.453 110.778 575.812 164.655C588.413 192.52 601.442 221.335 618.171 245.444C626.099 256.839 634.764 267.123 643.932 276.001C660.073 291.661 679.167 304.841 697.631 317.588C718.953 332.305 741.001 347.525 758.781 366.716C805.566 417.224 816.543 493.82 786.094 557.324C756.699 618.631 696.215 655.683 626.715 655.683ZM365.435 39.5549C335.977 56.1209 317.956 81.9666 314.693 112.326C310.531 151.055 329.995 192.387 368.094 225.733C436.529 285.625 439.709 353.133 443.077 424.608C444.891 463.134 446.768 502.97 459.69 541.872C480.471 604.435 543.722 648.915 617.077 652.552C689.436 656.161 753.156 619.183 783.402 556.1C813.354 493.638 802.574 418.306 756.577 368.651C739.017 349.698 717.106 334.573 695.914 319.946C677.349 307.133 658.154 293.88 641.835 278.049C632.533 269.039 623.743 258.613 615.708 247.062C598.827 222.735 585.745 193.799 573.09 165.815C548.942 112.41 523.973 57.1857 471.574 31.6583C440.206 16.38 401.524 19.2591 365.435 39.5549Z" fill="#3D3140"/>
<path d="M610.646 584.431C608.064 584.431 605.464 584.364 602.852 584.228C544.831 581.199 494.622 545.674 477.913 495.831C467.627 465.15 466.27 433.743 464.958 403.372C462.57 348.121 460.312 295.935 407.327 250.713C372.622 221.091 356.785 181.073 366 146.277C373.228 118.985 395.547 99.4526 427.24 92.6902C457.126 86.3098 484.386 91.0409 506.062 106.371C537.594 128.669 554.82 166.093 571.478 202.286C582.359 225.93 593.613 250.378 608.691 270.089C614.679 277.899 621.387 285.185 628.63 291.748C640.208 302.257 653.466 311.439 666.287 320.319C682.778 331.74 699.826 343.549 713.646 358.388C750.752 398.23 758.974 456.582 734.594 507.05C711.285 555.295 664.267 584.431 610.646 584.431ZM427.561 94.1023L427.879 95.5144C396.874 102.132 375.921 120.417 368.882 146.998C359.95 180.731 375.433 219.636 409.29 248.534C463.23 294.575 465.515 347.36 467.93 403.247C469.233 433.425 470.583 464.629 480.745 494.934C497.076 543.648 546.211 578.372 603.016 581.338C658.606 584.26 707.997 555.304 731.905 505.814C755.774 456.403 747.742 399.297 711.445 360.326C697.842 345.719 680.925 334.003 664.564 322.672C651.666 313.739 638.325 304.5 626.605 293.86C619.236 287.179 612.407 279.762 606.309 271.811C591.034 251.845 579.715 227.249 568.765 203.464C552.268 167.617 535.208 130.553 504.319 108.706C477.824 89.976 448.128 91.1913 427.882 95.5115L427.561 94.1023Z" fill="#3D3140"/>
<path d="M595.475 513.242C593.25 513.242 591.013 513.167 588.761 513.011C549.477 511.24 512.544 484.894 498.985 448.946C492.391 427.38 491.406 405.585 490.457 384.505C488.649 344.394 486.938 306.505 448.556 273.538C414.413 246.379 408.535 206.074 420.374 180.289C431.794 155.415 458.072 143.531 490.656 148.468C532.861 159.51 549.097 197.303 564.8 233.855C574.218 255.777 583.957 278.449 599.154 294.662C609.024 305.197 621.339 313.626 633.25 321.778C645.571 330.213 658.309 338.931 668.518 350.057C695.813 378.4 701.423 419.266 683.132 456.681C665.852 492.029 632.679 513.239 595.475 513.242ZM476.057 150.204C451.355 150.204 432.401 161.188 423.09 181.472C411.709 206.256 417.456 245.077 450.46 271.316L450.504 271.351C489.856 305.137 491.593 343.627 493.432 384.378C494.375 405.285 495.35 426.9 501.811 448.038C514.942 482.836 550.78 508.404 588.936 510.126C627.634 512.756 662.672 491.804 680.449 455.445C698.205 419.13 692.791 379.5 666.325 352.019C656.322 341.116 643.724 332.493 631.54 324.153C619.498 315.912 607.049 307.391 596.956 296.621C581.413 280.034 571.573 257.132 562.057 234.978C546.631 199.071 530.681 161.943 490.044 151.303C485.207 150.566 480.537 150.204 476.057 150.204Z" fill="#3D3340"/>
</g>
<mask id="mask1_7_506" style="mask-type:luminance" maskUnits="userSpaceOnUse" x="-122" y="-19" width="2231" height="1448">
<path d="M2109 -18.4822H-122V1428.32H2109V-18.4822Z" fill="white"/>
</mask>
<g mask="url(#mask1_7_506)">
<path d="M629.514 1447.51C734.053 1404.06 838.722 1357.16 916.15 1287.82C972.062 1237.76 1016.4 1175.83 1059.27 1115.94C1103.04 1054.8 1148.3 991.582 1205.81 941.155C1298.73 859.689 1423.89 816.597 1548.66 816.597C1621.28 816.597 1693.77 831.201 1759.68 861.335C1943.43 940.059 2052.03 1118.41 2043.09 1326.78C2041.28 1368.82 2034.74 1409.22 2024.01 1447.51H2026.77C2037.74 1408.74 2044.28 1368.3 2046.06 1326.9C2050.24 1229.49 2027.91 1135.11 1981.48 1053.98C1931.51 966.637 1855.22 899.105 1760.9 858.702C1580.76 776.335 1351.69 809.357 1203.82 939.008C1146.05 989.658 1100.69 1053.02 1056.83 1114.29C1014.05 1174.05 969.807 1235.85 914.136 1285.7C835.486 1356.13 728.362 1403.4 621.934 1447.52H629.514V1447.51Z" fill="#3D3140"/>
<path d="M696.453 1447.51C780.169 1413.01 862.427 1375.06 924.208 1321.26C974.022 1277.83 1013.86 1224.16 1052.38 1172.26C1090.49 1120.92 1129.9 1067.82 1178.88 1024.84C1261.76 952.105 1375.46 913.119 1490.16 913.119C1545.86 913.119 1601.79 922.315 1654.54 941.297C1829.31 1004.2 1940.92 1167.65 1932.26 1348C1930.6 1382.61 1925.42 1415.89 1917.06 1447.51H1920.13C1928.42 1415.92 1933.58 1382.69 1935.23 1348.14C1943.96 1166.52 1831.57 1001.93 1655.57 938.586C1576.63 910.171 1490.03 902.659 1405.14 916.878C1318.09 931.45 1239.16 968.043 1176.89 1022.7C1127.68 1065.88 1088.17 1119.1 1049.97 1170.57C1011.54 1222.35 971.8 1275.89 922.224 1319.11C859.188 1374 774.52 1412.39 688.805 1447.52H696.453V1447.51Z" fill="#3D3340"/>
<path d="M769.332 1447.51C829.173 1421.66 886.775 1392.84 932.264 1354.7C976.122 1317.84 1011.58 1272.34 1045.86 1228.34C1078.19 1186.86 1111.62 1143.97 1151.94 1108.54C1227.18 1042.43 1329.06 1006.81 1434.23 1006.81C1472.58 1006.81 1511.38 1011.55 1549.46 1021.27C1715.63 1063.7 1830.01 1210.03 1821.44 1369.21C1819.97 1396.45 1816.08 1422.59 1809.97 1447.51H1813.05C1819.09 1422.63 1822.94 1396.53 1824.41 1369.36C1828.77 1288.33 1803.52 1211.21 1751.37 1146.33C1701.48 1084.26 1630.04 1038.86 1550.21 1018.48C1406.73 981.831 1253.35 1015.52 1149.95 1106.39C1109.41 1142 1075.9 1185.01 1043.49 1226.59C1009.3 1270.47 973.936 1315.85 930.315 1352.51C883.574 1391.7 823.834 1421.08 762.014 1447.52H769.332V1447.51Z" fill="#3D3140"/>
<path d="M839.986 1447.51C876.5 1430.38 911.117 1411.32 940.31 1388.15C978.517 1357.71 1009.85 1320.17 1040.15 1283.87C1066.41 1252.42 1093.56 1219.9 1125.01 1192.23H1125.02C1194.5 1131.07 1288.52 1097.91 1389.02 1097.91C1407.31 1097.91 1425.83 1099.01 1444.44 1101.24C1582.9 1117.82 1720.32 1230.52 1710.62 1390.42C1709.42 1410.23 1706.73 1429.26 1702.72 1447.51H1705.77C1709.73 1429.31 1712.39 1410.33 1713.59 1390.59C1718.05 1317.05 1691.04 1246.48 1637.53 1191.88C1587.82 1141.16 1517.58 1107.07 1444.81 1098.37C1323.07 1083.8 1205.79 1117.22 1123.02 1190.08C1091.4 1217.9 1064.18 1250.51 1037.84 1282.04C1007.64 1318.23 976.396 1355.65 938.427 1385.91C907.966 1410.07 871.476 1429.77 833.07 1447.51L839.986 1447.51Z" fill="#3D3340"/>
<path d="M906.696 1447.51C921.406 1439.53 935.44 1430.99 948.336 1421.61C981.741 1397.15 1009.67 1367.01 1036.68 1337.87C1056.09 1316.91 1076.17 1295.25 1098.08 1275.92C1178.07 1205.32 1273.52 1185.44 1339.51 1181.18C1345.11 1180.82 1350.71 1180.64 1356.31 1180.64C1424.24 1180.64 1491.24 1206.95 1538.25 1252.7C1569.23 1282.87 1605.07 1334.92 1599.79 1411.64C1598.94 1424.02 1597.45 1435.97 1595.36 1447.51H1598.4C1600.45 1436.03 1601.91 1424.14 1602.76 1411.83C1608.11 1334.03 1571.78 1281.24 1540.35 1250.66C1488.87 1200.55 1413.74 1173.5 1339.31 1178.29C1272.85 1182.58 1176.7 1202.62 1096.08 1273.78C1074.06 1293.2 1053.93 1314.92 1034.46 1335.93C1007.55 1364.97 979.718 1395.01 946.545 1419.3C932.403 1429.59 916.864 1438.88 900.536 1447.52H906.696V1447.51Z" fill="#3D3140"/>
<path d="M967.873 1447.51C996.222 1428.15 1021.08 1405.33 1045.2 1383.17C1053.66 1375.4 1062.4 1367.37 1071.15 1359.61V1359.61C1122.83 1313.79 1177.85 1280.62 1234.69 1261.03C1255.4 1253.89 1277.45 1250.42 1299.58 1250.42C1343.65 1250.42 1388.09 1264.19 1423.01 1290.18C1470.02 1325.18 1493.44 1375.84 1488.97 1432.85C1488.58 1437.85 1488.04 1442.72 1487.43 1447.51H1490.43C1491.02 1442.79 1491.55 1437.99 1491.94 1433.07C1496.49 1375.05 1472.65 1323.49 1424.81 1287.88C1370.76 1247.64 1297.52 1236.31 1233.7 1258.3C1176.48 1278.02 1121.12 1311.39 1069.15 1357.47V1357.47C1060.38 1365.24 1051.62 1373.28 1043.16 1381.06C1018.11 1404.08 992.218 1427.77 962.552 1447.51L967.873 1447.51Z" fill="#3D3140"/>
<path d="M1039.3 1447.51C1040.98 1446.14 1042.62 1444.74 1044.22 1443.3C1060.86 1428.41 1074.02 1410.02 1086.74 1392.25C1099.67 1374.19 1113.04 1355.52 1130 1340.65C1156.31 1316.44 1189.85 1303.96 1225.01 1303.96C1247.12 1303.96 1269.86 1308.89 1291.86 1318.94C1346.75 1344.01 1379.41 1392.89 1378.41 1447.51H1381.38C1382.37 1391.71 1349.06 1341.87 1293.13 1316.32C1235 1289.76 1171.71 1298.28 1127.98 1338.52C1110.79 1353.59 1097.32 1372.4 1084.3 1390.59C1071.67 1408.24 1058.6 1426.48 1042.21 1441.17C1039.76 1443.37 1037.18 1445.46 1034.55 1447.51L1039.3 1447.51Z" fill="#3D3340"/>
</g>
<mask id="mask2_7_506" style="mask-type:luminance" maskUnits="userSpaceOnUse" x="-122" y="-19" width="2231" height="1448">
<path d="M2109 -18.4822H-122V1428.32H2109V-18.4822Z" fill="white"/>
</mask>
<g mask="url(#mask2_7_506)">
<path d="M1555.21 752.255C1491.83 752.258 1421.26 737.865 1350.67 695.552C1231.95 629.002 1177.5 546.241 1188.89 449.589C1196.9 381.711 1238.83 313.491 1306.96 257.499C1357.44 216.014 1416.49 184.473 1473.59 153.972C1484.34 148.225 1495.09 142.481 1505.79 136.674C1515.34 131.488 1524.88 126.236 1534.43 120.979C1596.82 86.6314 1661.32 51.1152 1731.58 33.5915C1823.47 10.6683 1912.46 25.6456 1969.59 73.6738C2036.72 130.096 2062.14 232.406 2037.61 347.352C2002.8 510.401 1888.47 650.759 1739.21 713.651C1696.42 731.681 1630.96 752.252 1555.21 752.255ZM1814.97 25.9466C1788.26 25.9466 1760.44 29.3813 1732.32 36.3954C1662.45 53.8236 1598.11 89.2444 1535.9 123.496C1526.34 128.757 1516.8 134.011 1507.24 139.2C1496.54 145.01 1485.78 150.757 1475.02 156.506C1418.05 186.941 1359.14 218.409 1308.88 259.71C1241.33 315.227 1199.76 382.775 1191.85 449.919C1180.61 545.318 1234.55 627.127 1352.2 693.066C1506.05 785.297 1659.97 743.884 1738.03 710.992C1886.41 648.467 2000.09 508.902 2034.7 346.761C2059.01 232.857 2033.94 131.587 1967.64 75.8614C1928.69 43.1144 1874.64 25.9466 1814.97 25.9466Z" fill="#3D3140"/>
<path d="M1570.47 -36.0867C1570.93 -10.727 1563.54 16.0504 1548.33 39.8273C1526.11 74.5506 1489.38 103.542 1436.02 128.459C1415.27 138.149 1393.53 146.677 1372.51 154.924C1348.68 164.27 1324.04 173.935 1300.68 185.356C1270.73 199.992 1242.08 217.903 1214.36 235.224C1189.09 251.021 1162.95 267.355 1135.95 281.129C1088.9 305.137 1018.85 329.967 952.405 311.896C883.357 293.12 836.473 233.604 809.306 186.985C793.626 160.083 780.318 131.355 767.446 103.571C753.557 73.59 739.196 42.5878 721.791 13.7356C712.204 -2.16484 700.234 -19.4976 685.789 -36.0838H681.865C696.926 -19.0751 709.354 -1.17233 719.227 15.1997C736.548 43.9188 750.877 74.8487 764.733 104.763C777.631 132.605 790.97 161.394 806.718 188.414C834.165 235.508 881.581 295.643 951.605 314.686C967.043 318.884 983.392 320.968 1000.49 320.968C1042.45 320.968 1088.9 308.404 1137.34 283.695C1164.45 269.861 1190.64 253.492 1215.97 237.664C1243.62 220.383 1272.21 202.515 1302.01 187.946C1325.27 176.579 1349.85 166.938 1373.62 157.612C1394.69 149.348 1416.47 140.803 1437.31 131.072C1491.19 105.909 1528.33 76.5646 1550.86 41.3609C1566.36 17.1298 1573.89 -10.1802 1573.43 -36.0809H1570.47V-36.0867Z" fill="#3D3140"/>
<path d="M1822.1 -36.0867C1819.85 -32.2758 1817.14 -28.7659 1814.06 -25.8115C1799.29 -11.6501 1778.2 -5.56198 1759.59 -0.191433L1634.34 35.9701C1627.56 37.9261 1619.87 40.1369 1612.47 39.3787C1605.92 38.6987 1598.38 34.9312 1596.33 28.0531C1594.47 21.7624 1597.66 15.1302 1601.09 8.87715C1609.43 -6.34904 1618.34 -21.3495 1627.71 -36.0838H1624.21C1615.16 -21.7865 1606.55 -7.24027 1598.46 7.51715C1594.91 13.9988 1591.3 21.528 1593.48 28.8576C1595.9 37.0291 1604.61 41.4766 1612.16 42.2579C1613.3 42.3765 1614.45 42.4315 1615.59 42.4315C1622.42 42.4315 1629.14 40.4899 1635.18 38.7479L1760.44 2.58354C1779.38 -2.88539 1800.85 -9.08351 1816.14 -23.7541C1819.8 -27.2583 1822.99 -31.4743 1825.52 -36.0896L1822.1 -36.0867Z" fill="#3D3140"/>
<path d="M2132.3 182.306C2131.29 182.627 2130.27 182.919 2129.24 183.139C2113.72 186.464 2098.5 177.725 2089.41 168.443C2080.42 159.27 2074.18 147.687 2068.14 136.483C2067.15 134.645 2066.16 132.805 2065.16 130.982C2027.19 61.7203 1968.68 3.20567 1898.82 -36.0896H1892.85C1964.22 2.93077 2024.01 62.0791 2062.53 132.342C2063.53 134.162 2064.52 135.994 2065.51 137.825C2071.64 149.206 2077.98 160.971 2087.26 170.436C2095.46 178.81 2108.43 186.75 2122.39 186.75C2124.86 186.75 2127.37 186.502 2129.88 185.963C2130.69 185.79 2131.5 185.581 2132.3 185.35V182.306H2132.3Z" fill="#3D3140"/>
<path d="M2132.3 1110.14C2112.53 1061.11 2083.78 1014.83 2047.08 973.619C1991.11 910.787 1920.61 863.954 1843.17 838.181L1841.4 837.59C1823.82 831.754 1805.64 825.718 1796.83 810.813C1787.43 794.895 1793.27 774.194 1803.23 760.736C1812.95 747.619 1826.94 737.885 1840.46 728.472L1845.32 725.081C1970.21 637.338 2057.3 506.984 2132.3 383.583V377.885C2056.87 502.281 1969.42 634.326 1843.57 722.737L1838.73 726.12C1825.01 735.669 1810.82 745.545 1800.82 759.049C1791.07 772.218 1783.5 794.056 1794.25 812.257C1803.62 828.108 1823.18 834.604 1840.44 840.331L1842.21 840.918C1975.68 885.341 2083.49 990.168 2132.3 1117.9V1110.14Z" fill="#3D3140"/>
<path d="M1567.19 690.887C1514.41 690.887 1455.2 679.052 1395.14 644.234C1296.39 586.969 1251.02 517.985 1260.31 439.195C1266.98 382.616 1301.92 325.76 1358.7 279.1C1400.74 244.55 1449.89 218.291 1497.44 192.894C1506.4 188.102 1515.37 183.313 1524.28 178.472C1532.24 174.155 1540.18 169.782 1548.13 165.404C1600.09 136.798 1653.81 107.22 1712.34 92.6213C1788.93 73.5119 1863.1 86.0065 1910.74 126.045C1966.69 173.084 1987.89 258.356 1967.45 354.146C1938.45 489.978 1843.2 606.909 1718.85 659.306C1683.84 674.064 1630.1 690.887 1567.19 690.887ZM1781.83 86.7328C1759.62 86.7328 1736.47 89.5917 1713.08 95.4252C1654.93 109.928 1601.39 139.411 1549.6 167.922C1541.64 172.303 1533.69 176.678 1525.74 180.998C1516.82 185.842 1507.84 190.634 1498.87 195.429C1451.46 220.756 1402.44 246.946 1360.62 281.308C1304.42 327.49 1269.85 383.678 1263.27 439.522C1254.12 517.08 1299.01 585.114 1396.67 641.742C1527.17 717.416 1653.81 683.564 1717.67 656.647C1841.15 604.62 1935.74 488.482 1964.54 353.556C1984.76 258.807 1963.92 174.574 1908.79 128.233C1876.4 101.007 1831.46 86.7328 1781.83 86.7328Z" fill="#3D3340"/>
<path d="M1577.2 630.223C1534.99 630.223 1487.62 620.758 1439.59 592.907C1360.57 547.089 1324.28 491.879 1331.72 428.804C1337.06 383.525 1365.01 338.031 1410.44 300.707C1444.05 273.084 1483.33 252.097 1521.33 231.798C1528.49 227.97 1535.65 224.145 1542.78 220.279C1549.13 216.829 1555.48 213.337 1561.82 209.838C1603.35 186.973 1646.29 163.332 1693.1 151.66C1754.39 136.373 1813.75 146.376 1851.88 178.425C1896.67 216.077 1913.65 284.309 1897.29 360.949C1874.11 469.566 1797.93 563.068 1698.5 604.967C1670.49 616.767 1627.51 630.22 1577.2 630.223ZM1748.7 147.522C1730.97 147.522 1712.5 149.805 1693.84 154.461C1647.42 166.038 1604.65 189.586 1563.29 212.356C1556.93 215.857 1550.59 219.353 1544.23 222.805C1537.1 226.676 1529.93 230.505 1522.76 234.336C1484.89 254.565 1445.74 275.483 1412.35 302.917C1367.51 339.765 1339.93 384.59 1334.68 429.137C1327.39 490.979 1363.2 545.24 1441.11 590.421C1545.27 650.816 1646.34 623.793 1697.32 602.311C1795.88 560.779 1871.39 468.067 1894.38 360.358C1910.52 284.763 1893.9 217.567 1849.94 180.613C1824.11 158.902 1788.28 147.522 1748.7 147.522Z" fill="#3D3140"/>
<path d="M1587.21 569.555C1555.56 569.555 1520.05 562.46 1484.04 541.577C1424.77 507.209 1397.55 465.77 1403.13 418.413C1407.14 384.436 1428.1 350.306 1462.17 322.31C1487.35 301.615 1516.77 285.9 1545.22 270.7C1550.58 267.835 1555.94 264.973 1561.27 262.08C1566.03 259.496 1570.78 256.88 1575.54 254.261C1606.64 237.143 1638.79 219.44 1673.86 210.692C1719.85 199.222 1764.4 206.74 1793.03 230.8C1826.65 259.065 1839.4 310.259 1827.13 367.746C1809.75 449.146 1752.67 519.224 1678.14 550.625C1657.15 559.468 1624.93 569.555 1587.21 569.555ZM1715.56 208.311C1702.32 208.311 1688.53 210.012 1674.59 213.49C1639.91 222.142 1607.93 239.747 1577 256.776C1572.24 259.397 1567.48 262.016 1562.72 264.603C1557.38 267.5 1552.02 270.367 1546.65 273.235C1518.33 288.365 1489.04 304.011 1464.09 324.518C1430.6 352.037 1410 385.498 1406.09 418.74C1400.65 464.864 1427.38 505.357 1485.56 539.088C1563.36 584.2 1638.87 564.014 1676.96 547.966C1750.61 516.932 1807.04 447.647 1824.22 367.156C1836.27 310.71 1823.88 260.555 1791.08 232.987C1771.82 216.798 1745.09 208.311 1715.56 208.311Z" fill="#3D3140"/>
<path d="M1596.57 509.12C1575.48 509.12 1551.98 504.328 1528.46 490.236C1488.88 468.048 1470.73 440.379 1474.54 408.02C1477.21 385.345 1491.19 362.578 1513.9 343.912C1530.65 330.144 1550.2 319.701 1569.11 309.599C1572.66 307.698 1576.22 305.797 1579.76 303.876C1582.92 302.163 1586.07 300.426 1589.23 298.687C1609.9 287.307 1631.27 275.541 1654.61 269.716C1685.3 262.066 1715.04 267.089 1734.17 283.166C1756.62 302.044 1765.15 336.203 1756.97 374.535C1745.4 428.721 1707.39 475.368 1657.78 496.275C1643.54 502.279 1621.78 509.12 1596.57 509.12ZM1682.43 269.1C1673.69 269.1 1664.57 270.226 1655.35 272.523C1632.39 278.25 1611.19 289.923 1590.69 301.208C1587.53 302.95 1584.38 304.686 1581.21 306.405C1577.67 308.329 1574.1 310.233 1570.54 312.137C1551.76 322.169 1532.35 332.54 1515.82 346.122C1493.69 364.312 1480.08 386.41 1477.49 408.349C1473.83 439.456 1491.49 466.17 1529.99 487.75C1580.47 518.014 1630.98 504.42 1656.59 493.624C1705.33 473.085 1742.68 427.23 1754.05 373.953C1762.01 336.66 1753.85 303.543 1732.22 285.362C1719.53 274.691 1701.9 269.1 1682.43 269.1Z" fill="#3D3340"/>
</g>
<mask id="mask3_7_506" style="mask-type:luminance" maskUnits="userSpaceOnUse" x="-122" y="-19" width="2231" height="1448">
<path d="M2109 -18.4822H-122V1428.32H2109V-18.4822Z" fill="white"/>
</mask>
<g mask="url(#mask3_7_506)">
<path d="M111.904 1367.52C92.0392 1356.19 70.0712 1347.47 48.8262 1339.03C12.6602 1324.66 -24.7373 1309.81 -51.3428 1281.88C-87.4433 1243.98 -96.6886 1190.02 -105.627 1137.83C-110.818 1107.54 -116.107 1076.67 -126.694 1048.66V1057.52C-118.014 1083.19 -113.243 1110.98 -108.563 1138.31C-99.5532 1190.92 -90.2335 1245.31 -53.5262 1283.85C-26.4745 1312.25 11.2353 1327.23 47.7018 1341.71C68.8516 1350.11 90.7214 1358.79 110.402 1370.02C145.378 1389.98 170.782 1417.26 182.865 1447.51H186.068C173.908 1416.23 147.865 1388.04 111.904 1367.52Z" fill="#3D3140"/>
<path d="M235.052 1426.11C216.696 1383.97 174.616 1352.99 137.489 1325.67L136.496 1324.93C118.642 1311.79 99.3747 1301.14 80.7414 1290.84C48.1986 1272.86 17.4583 1255.87 -5.63697 1226.93C-12.794 1217.99 -19.1003 1208.13 -24.9128 1196.81C-40.2561 1166.87 -48.9451 1132.23 -57.3426 1098.73C-70.8208 1044.98 -84.7423 989.479 -126.697 953.836V957.722C-87.0358 992.625 -73.9889 1044.57 -60.234 1099.41C-51.7949 1133.07 -43.0672 1167.86 -27.5751 1198.1C-21.6734 1209.6 -15.266 1219.61 -7.98696 1228.71C15.4742 1258.1 46.4614 1275.23 79.269 1293.36C97.819 1303.61 117 1314.21 134.699 1327.24L135.692 1327.97C172.522 1355.08 214.265 1385.81 232.313 1427.25C235.18 1433.78 237.289 1440.59 238.687 1447.52H241.718C240.285 1440.19 238.077 1433 235.052 1426.11Z" fill="#3D3340"/>
<path d="M291.586 1424.92C289.551 1415.47 286.148 1406.25 281.472 1397.5C263.621 1363.84 230.81 1338.21 199.08 1313.42C186.199 1303.36 172.879 1292.96 161.057 1282.34C146.782 1269.51 132.054 1258.26 117.812 1247.37C88.5826 1225.03 60.9777 1203.93 40.0688 1171.99C34.1224 1162.95 28.5925 1152.92 23.1637 1141.33C11.9076 1117.23 3.17399 1090.74 -5.27406 1065.12C-24.8979 1005.61 -45.1911 944.058 -98.3811 910.738C-107.338 905.124 -116.881 900.674 -126.697 897.069V900.147C-117.437 903.62 -108.444 907.873 -99.9904 913.169C-47.6988 945.93 -28.4676 1004.26 -8.10596 1066.01C0.365891 1091.7 9.12926 1118.28 20.4568 1142.53C25.945 1154.25 31.5434 1164.4 37.5611 1173.54C58.7378 1205.9 86.539 1227.15 115.973 1249.64C130.168 1260.49 144.848 1271.72 159.038 1284.46C170.936 1295.15 184.295 1305.58 197.217 1315.68C228.707 1340.27 261.265 1365.71 278.83 1398.83C283.385 1407.35 286.695 1416.32 288.674 1425.51C290.217 1432.73 290.827 1440.11 290.61 1447.51H293.579C293.799 1439.92 293.168 1432.34 291.586 1424.92Z" fill="#3D3140"/>
<path d="M340.956 1399.91C338.291 1389.17 333.894 1378.75 327.895 1368.92C308.973 1337.73 277.022 1313.78 246.121 1290.61C224.941 1274.73 203.039 1258.31 185.592 1239.74C178.911 1232.63 172.334 1225.8 165.894 1219.1C134.345 1186.32 107.094 1158 85.7656 1117.06C81.1073 1108.18 76.4876 1098.27 71.2343 1085.87C65.4992 1072.28 59.9485 1058.04 54.5762 1044.27C27.6495 975.237 -0.193359 903.846 -65.6896 871.235C-84.5638 861.839 -105.089 856.451 -126.7 853.479V856.413C-105.532 859.356 -85.4592 864.643 -67.046 873.81C-2.57012 905.912 25.0675 976.77 51.7949 1045.3C57.1731 1059.09 62.7328 1073.34 68.4828 1086.97C73.7688 1099.44 78.4182 1109.43 83.1152 1118.37C104.631 1159.67 132.016 1188.13 163.723 1221.08C170.157 1227.76 176.725 1234.59 183.397 1241.69C201.019 1260.44 223.023 1276.94 244.306 1292.89C274.981 1315.9 306.703 1339.68 325.336 1370.39C331.188 1379.97 335.468 1390.13 338.065 1400.59C341.994 1416.5 341.575 1432.38 337.976 1447.51H340.864C344.538 1431.57 344.761 1415.32 340.956 1399.91Z" fill="#3D3140"/>
<path d="M390.33 1374.91C386.983 1362.69 381.748 1351.39 374.326 1340.36C353.881 1309.82 320.904 1286.55 289.007 1264.05C260.536 1243.97 231.096 1223.2 210.113 1197.14C175.377 1153.99 151.857 1113.62 131.456 1062.15C128.253 1054.13 125.123 1045.82 122.092 1037.78L119.308 1030.4C87.2559 945.464 46.6219 862.615 -32.995 831.746C-62.3401 820.374 -94.3148 817.141 -126.7 816.641V819.534C-94.6182 820.035 -62.9915 823.233 -34.0956 834.437C44.4385 864.883 84.7036 947.094 116.518 1031.4L119.302 1038.77C122.336 1046.83 125.471 1055.16 128.684 1063.2C149.194 1114.95 172.846 1155.54 207.772 1198.92C229.011 1225.31 258.62 1246.2 287.261 1266.4C318.938 1288.75 351.689 1311.85 371.833 1341.94C379.08 1352.71 384.19 1363.74 387.453 1375.65C394.218 1400.43 391.106 1425.11 381.659 1447.52H384.868C394.197 1424.85 397.16 1399.94 390.33 1374.91Z" fill="#3D3340"/>
<path d="M439.706 1349.91C435.72 1336.36 429.524 1323.9 420.764 1311.8C398.579 1281.09 363.689 1258 329.947 1235.68C294.519 1212.23 257.886 1188 234.627 1154.53C206.486 1114.04 194.484 1070.32 181.776 1024.04C180.25 1018.48 178.715 1012.89 177.135 1007.24C174.241 996.956 171.058 985.926 167.384 974.924C136.014 880.734 74.8961 814.158 -0.291527 792.262C-40.7589 780.482 -84.2426 781.411 -126.694 783.153V786.05C-84.4538 784.316 -41.1872 783.379 -1.14526 795.034C73.0935 816.652 133.488 882.543 164.556 975.818C168.211 986.765 171.382 997.755 174.265 1008C175.841 1013.64 177.376 1019.23 178.902 1024.79C191.673 1071.31 203.741 1115.26 232.161 1156.15C255.741 1190.08 292.615 1214.47 328.272 1238.07C363.338 1261.27 396.458 1283.18 418.33 1313.46C426.894 1325.29 432.954 1337.48 436.845 1350.71C446.747 1384.42 438.983 1418.36 421.635 1447.51H425.053C442.178 1418.06 449.68 1383.88 439.706 1349.91Z" fill="#3D3140"/>
<path d="M489.08 1324.92C471.957 1269.81 419.978 1237.5 369.709 1206.25C327.433 1179.97 283.718 1152.79 259.126 1111.92C238.175 1077.11 233.339 1035.81 228.66 995.877C225.682 970.468 222.606 944.194 215.455 919.46C191.723 837.388 118.166 770.413 32.4118 752.805C-10.4977 743.994 -55.1177 746.752 -98.2712 749.414C-107.627 749.99 -117.151 750.571 -126.697 751.043V753.939C-117.083 753.465 -107.499 752.88 -98.0838 752.302C-55.1326 749.648 -10.7149 746.908 31.7961 755.635C116.497 773.029 189.15 839.177 212.59 920.244C219.676 944.753 222.74 970.908 225.703 996.204C230.415 1036.44 235.287 1078.04 256.556 1113.38C281.51 1154.85 325.532 1182.22 368.106 1208.68C420.213 1241.07 469.429 1271.67 486.23 1325.76C499.333 1367.94 485.656 1411.95 458.848 1447.51H462.837C466.969 1441.92 470.759 1436.15 474.144 1430.25C494.086 1395.51 499.39 1358.1 489.08 1324.92Z" fill="#3D3140"/>
</g>
<mask id="mask4_7_506" style="mask-type:luminance" maskUnits="userSpaceOnUse" x="-122" y="-19" width="2231" height="1448">
<path d="M2109 -18.4822H-122V1428.32H2109V-18.4822Z" fill="white"/>
</mask>
<g mask="url(#mask4_7_506)">
<path d="M673.804 1024.71C641.276 1015.02 606.978 1010.08 573.807 1005.3C534.417 999.627 493.685 993.759 455.993 979.896C382.631 952.91 321.841 894.352 293.382 823.255C263.877 749.541 268.615 667.68 273.196 588.514C273.815 577.816 274.434 567.148 274.966 556.528C279.357 469.164 276.061 370.003 218.347 296.942C194.154 266.316 161.864 242.649 130.635 219.763C109.685 204.407 88.0204 188.53 68.9558 170.673C11.6518 116.997 -23.3273 41.2796 -29.4938 -36.0869H-32.4715C-26.2931 42.0522 9.01622 118.548 66.8973 172.76C86.0928 190.738 107.829 206.67 128.851 222.078C159.918 244.848 192.045 268.394 215.991 298.71C273.119 371.027 276.361 469.549 271.998 556.389C271.465 567 270.846 577.663 270.228 588.352C265.629 667.828 260.872 750.007 290.613 824.306C319.372 896.154 380.805 955.329 454.943 982.601C492.932 996.574 533.828 1002.47 573.373 1008.17C606.433 1012.93 640.621 1017.86 672.935 1027.48C744.773 1048.88 813.265 1107.43 805.177 1177.96C799.26 1229.57 755.244 1268.05 710.669 1303.05L584.433 1402.15C569.628 1413.78 551.375 1428.14 542.752 1447.51H545.982C554.531 1429.35 572.052 1415.59 586.301 1404.4L712.537 1305.29C757.594 1269.92 802.089 1230.98 808.134 1178.28C816.4 1106.19 746.814 1046.45 673.804 1024.71Z" fill="#3D3340"/>
</g>
<mask id="mask5_7_506" style="mask-type:luminance" maskUnits="userSpaceOnUse" x="-122" y="-19" width="2231" height="1448">
<path d="M2109 -18.4822H-122V1428.32H2109V-18.4822Z" fill="white"/>
</mask>
<g mask="url(#mask5_7_506)">
<path d="M615.729 975.465C506.125 951.107 392.79 925.918 348.72 852.073C300.367 771.052 304.02 669.552 307.557 571.392C310.802 481.216 314.161 387.969 277.774 309.422C252.371 254.834 202.902 205.032 155.06 156.868C95.9419 97.3549 35.4104 36.4097 16.3488 -36.0869H13.2254C32.2216 37.3588 93.2826 98.8422 152.919 158.882C200.582 206.867 249.869 256.486 275.061 310.617C311.162 388.548 307.819 481.453 304.582 571.297C301.033 669.865 297.363 771.79 346.147 853.531C390.868 928.464 504.846 953.792 615.069 978.292C726.604 1003.08 831.952 1026.49 869.325 1096.67C903.921 1203.48 822.198 1268.66 735.677 1337.67C692.916 1371.78 649.26 1406.61 619.013 1447.52H622.723C652.713 1407.61 695.566 1373.41 737.563 1339.91C824.884 1270.26 907.366 1204.47 872.065 1095.57C833.957 1023.97 727.954 1000.41 615.729 975.465Z" fill="#3D3140"/>
</g>
<mask id="mask6_7_506" style="mask-type:luminance" maskUnits="userSpaceOnUse" x="-122" y="-19" width="2231" height="1448">
<path d="M2109 -18.4822H-122V1428.32H2109V-18.4822Z" fill="white"/>
</mask>
<g mask="url(#mask6_7_506)">
<path d="M586.634 1260.06C574.12 1227.29 542.13 1201.67 491.552 1183.91C480.117 1179.9 468.26 1176.31 456.796 1172.85C428.709 1164.36 399.664 1155.58 374.85 1139.81C328.04 1110.04 295.554 1055.68 275.54 973.596C271.676 957.748 268.232 941.428 264.9 925.643C254.7 877.32 244.152 827.35 220.021 783.249C184.528 718.38 119.489 669.382 46.0478 652.183C-11.1877 638.776 -72.912 644.83 -126.697 668.054V671.225C-73.2273 647.822 -11.6875 641.632 45.3488 654.995C117.978 672.004 182.294 720.46 217.395 784.609C241.32 828.337 251.826 878.101 261.985 926.222C265.319 942.027 268.77 958.37 272.646 974.262C292.844 1057.1 325.744 1112.04 373.222 1142.23C398.388 1158.23 427.629 1167.07 455.912 1175.61C467.347 1179.07 479.168 1182.64 490.54 1186.64C540.256 1204.1 571.651 1229.14 583.844 1261.07C594.255 1288.32 590.691 1322.24 573.254 1361.88C559.692 1392.71 541.068 1421.64 518.636 1447.52H522.482C544.391 1421.89 562.631 1393.37 575.988 1363.01C593.735 1322.66 597.316 1288.03 586.634 1260.06Z" fill="#3D3340"/>
</g>
<mask id="mask7_7_506" style="mask-type:luminance" maskUnits="userSpaceOnUse" x="-122" y="-19" width="2231" height="1448">
<path d="M2109 -18.4822H-122V1428.32H2109V-18.4822Z" fill="white"/>
</mask>
<g mask="url(#mask7_7_506)">
<path d="M106.683 340.792C96.9444 334.275 86.8752 327.533 77.3384 320.577C8.69794 270.491 -44.1083 199.32 -71.3474 120.171C-88.5618 70.1608 -95.6236 16.7157 -92.5091 -36.0869H-95.4868C-98.5983 17.0282 -91.4829 70.7858 -74.1673 121.091C-46.7379 200.79 6.4372 272.459 75.5595 322.892C85.1439 329.886 95.2369 336.642 105 343.176C131.962 361.223 159.844 379.887 179.717 405.409C206.073 439.261 214.426 494.02 181.957 523.463C153.136 549.595 110.134 544.586 68.5572 539.751C63.3753 539.149 58.244 538.55 53.2019 538.023C6.62757 533.162 -33.7089 537.91 -66.6801 552.138C-91.59 562.888 -112.529 579.848 -126.697 599.874V605.187C-112.868 584.011 -91.3936 565.97 -65.4754 554.783C-32.989 540.761 6.83579 536.09 52.8836 540.899C57.9108 541.426 63.0302 542.019 68.2002 542.621C108.486 547.312 154.15 552.627 183.98 525.578C217.662 495.036 209.22 438.515 182.082 403.661C161.923 377.766 133.842 358.969 106.683 340.792Z" fill="#3D3140"/>
</g>
<mask id="mask8_7_506" style="mask-type:luminance" maskUnits="userSpaceOnUse" x="-122" y="-19" width="2231" height="1448">
<path d="M2109 -18.4822H-122V1428.32H2109V-18.4822Z" fill="white"/>
</mask>
<g mask="url(#mask8_7_506)">
<path d="M130.772 318.98C101.454 296.942 68.224 271.961 37.344 243.184C-44.7449 166.683 -60.3084 45.8805 -60.0823 -36.0869H-63.2712C-63.3455 -20.8926 -62.8845 -4.41054 -61.5459 12.847C-56.126 82.7624 -34.9285 179.837 35.2885 245.271C66.2815 274.155 99.577 299.184 128.955 321.268C200.07 374.731 256.244 416.957 244.521 480.822C227.41 574.02 149.212 580.134 82.9902 575.033C-25.4393 566.699 -72.2487 598.934 -117.514 630.115C-120.525 632.187 -123.612 634.291 -126.694 636.392V639.928C-123.02 637.436 -119.367 634.936 -115.798 632.477C-68.9022 600.172 -24.5975 569.662 82.7523 577.917C150.221 583.109 229.918 576.818 247.448 481.332C259.489 415.739 202.685 373.038 130.772 318.98Z" fill="#3D3140"/>
</g>
<mask id="mask9_7_506" style="mask-type:luminance" maskUnits="userSpaceOnUse" x="-122" y="-19" width="2231" height="1448">
<path d="M2109 -18.4822H-122V1428.32H2109V-18.4822Z" fill="white"/>
</mask>
<g mask="url(#mask9_7_506)">
<path d="M55.5222 365.891C41.6751 353.434 24.8206 344.551 8.52242 335.965C2.22803 332.649 -4.28053 329.217 -10.5065 325.638C-61.65 296.233 -102.504 249.695 -126.697 196.372V203.348C-101.969 254.779 -61.8225 299.497 -12.0206 328.126C-5.74704 331.735 0.7883 335.175 7.1065 338.506C23.2441 347.007 39.9319 355.801 53.5053 368.012C71.1927 383.924 85.013 410.565 76.0147 434.218C65.8354 460.978 31.9658 471.245 6.05346 471.904C-5.38116 472.205 -17.0746 471.305 -28.3872 470.443C-45.5838 469.132 -63.3663 467.778 -80.7176 470.53C-98.158 473.302 -115.625 482.125 -126.697 494.807V499.428C-116.369 485.817 -98.2919 476.253 -80.2386 473.386C-63.2473 470.686 -45.6462 472.029 -28.6192 473.325C-17.2352 474.193 -5.4585 475.09 6.13081 474.795C34.2563 474.077 68.1169 463.302 78.8019 435.216C88.2762 410.32 73.9354 382.457 55.5222 365.891Z" fill="#3D3340"/>
</g>
<mask id="mask10_7_506" style="mask-type:luminance" maskUnits="userSpaceOnUse" x="-122" y="-19" width="2231" height="1448">
<path d="M2109 -18.4822H-122V1428.32H2109V-18.4822Z" fill="white"/>
</mask>
<g mask="url(#mask10_7_506)">
<path d="M991.888 1078.23C968.983 1078.23 946.253 1068.27 928.786 1060.61L821.981 1013.77C814 1010.28 806.539 1006.55 802.925 999.531C797.449 988.88 804.136 975.908 813.765 969.519C822.359 963.815 832.755 961.88 842.809 960.01L846.061 959.403C931.785 943.042 1008.53 889.05 1051.34 814.974C1055.18 808.33 1058.89 801.333 1062.48 794.565C1075.57 769.871 1089.11 744.335 1112.65 728.4C1132.49 714.976 1158.74 711.099 1184.63 717.754C1210.55 724.412 1231.4 740.385 1241.83 761.584C1259.69 797.858 1235.78 825.015 1208.1 856.459C1204.14 860.95 1200.11 865.531 1196.07 870.268L1196.1 870.288L1072.47 1025.1C1053.6 1048.73 1034.42 1070.45 1007.39 1076.56C1002.25 1077.72 997.064 1078.23 991.888 1078.23ZM1159.82 717.459C1143.16 717.459 1127.32 721.996 1114.35 730.772C1091.41 746.297 1078.05 771.509 1065.12 795.89C1061.52 802.682 1057.8 809.702 1053.93 816.392C1010.7 891.197 933.203 945.719 846.635 962.238L843.369 962.852C833.612 964.669 823.525 966.544 815.442 971.909C807.054 977.476 800.899 989.123 805.587 998.238C808.761 1004.41 815.731 1007.86 823.203 1011.13L930.009 1057.97C951.04 1067.19 979.843 1079.83 1006.72 1073.74C1032.8 1067.85 1051.59 1046.53 1070.12 1023.33L1186.04 878.17L1185.83 878.002C1192.48 869.741 1199.27 862.033 1205.84 854.579C1233.96 822.639 1256.17 797.41 1239.15 762.834C1229.09 742.402 1208.95 726.991 1183.88 720.552C1175.82 718.48 1167.72 717.459 1159.82 717.459Z" fill="#3D3140"/>
</g>
<mask id="mask11_7_506" style="mask-type:luminance" maskUnits="userSpaceOnUse" x="-122" y="-19" width="2231" height="1448">
<path d="M2109 -18.4822H-122V1428.32H2109V-18.4822Z" fill="white"/>
</mask>
<g mask="url(#mask11_7_506)">
<path d="M1466.12 -36.0869C1480.19 -19.0233 1488.79 2.28529 1485.98 25.0117C1480.64 68.2597 1437.12 97.5112 1398.17 110.463C1380.5 116.34 1361.87 120.408 1343.85 124.341C1319.26 129.711 1293.83 135.264 1270.43 145.499C1243.6 157.235 1219.84 174.95 1196.86 192.08C1176.75 207.069 1155.96 222.567 1133.23 233.962C1056.45 272.459 957.629 260.456 892.93 204.777C839.811 159.061 813.842 91.7529 788.727 26.6611C784.768 16.3974 780.82 6.16852 776.787 -3.93887C772.711 -14.1446 768.166 -24.9754 763.073 -36.084H759.807C765.099 -24.6108 769.811 -13.4155 774.011 -2.89138C778.042 7.20443 781.986 17.4218 785.943 27.6767C811.183 93.0984 837.285 160.751 890.957 206.942C930.874 241.295 983.591 259.247 1036.3 259.247C1070.2 259.247 1104.12 251.813 1134.59 236.532C1157.56 225.018 1178.46 209.442 1198.67 194.378C1221.51 177.346 1245.14 159.738 1271.65 148.141C1294.77 138.028 1320.06 132.507 1344.5 127.168C1362.6 123.218 1381.31 119.132 1399.13 113.206C1438.94 99.9679 1483.43 69.938 1488.93 25.3619C1491.74 2.60648 1483.56 -18.76 1469.88 -36.0811H1466.12V-36.0869Z" fill="#3D3340"/>
<path d="M1079.84 -6.31742C1102.95 -13.618 1126.22 -21.8185 1148.72 -29.7499C1154.71 -31.8593 1160.72 -33.9775 1166.75 -36.0869H1157.98C1154.55 -34.8803 1151.12 -33.6736 1147.71 -32.4699C1125.23 -24.5472 1101.98 -16.3554 1078.92 -9.06925C1031.01 6.05856 974.846 19.7859 921.468 6.91507C890.071 -0.657516 862.525 -16.5232 837.024 -36.0869H832.249C858.843 -15.2703 887.632 1.7355 920.755 9.72477C974.855 22.7692 1031.53 8.93771 1079.84 -6.31742Z" fill="#3D3340"/>
</g>
<mask id="mask12_7_506" style="mask-type:luminance" maskUnits="userSpaceOnUse" x="-122" y="-19" width="2231" height="1448">
<path d="M2109 -18.4822H-122V1428.32H2109V-18.4822Z" fill="white"/>
</mask>
<g mask="url(#mask12_7_506)">
<path d="M1154.22 367.639C1151.94 361.227 1147.93 355.607 1141.33 352.905C1135.02 350.321 1127.86 350.792 1121.33 352.268C1113.14 354.12 1105.33 357.653 1098.04 361.678C1091.75 365.153 1086.12 370.026 1079.54 372.937C1069.01 377.599 1056.76 378.053 1045.44 379.352C1035.56 380.486 1024.09 381.511 1015.93 387.648C1004.88 395.97 1007.9 410.638 1012.01 421.755C1013.11 421.463 1014.2 421.168 1015.3 420.876C1015.27 420.8 1015.24 420.725 1015.21 420.653C1014.43 418.711 1011.25 419.461 1011.93 421.532C1015.54 432.664 1019.7 443.677 1024.97 454.178C1025.8 455.842 1028.79 454.661 1028.08 452.902C1028.07 452.862 1028.05 452.824 1028.04 452.783C1027 453.209 1025.96 453.634 1024.92 454.059C1038.27 476.566 1054.19 500.346 1076.71 515.193C1089.12 523.376 1104.59 528.026 1119.09 522.392C1133.03 516.978 1142.63 504.423 1148.98 491.671C1157.38 474.786 1161.39 455.94 1162.74 437.314C1164.44 413.89 1161.76 389.975 1154.22 367.639C1153.54 365.622 1150.26 366.487 1150.94 368.518C1163.08 404.498 1163.67 446.681 1149.5 482.235C1144.23 495.464 1136.1 509.203 1123.25 516.703C1110.67 524.053 1096.2 522.297 1083.76 515.546C1073.56 510.008 1064.92 502.024 1057.24 493.549C1045.87 480.987 1036.44 466.855 1027.86 452.387C1026.93 450.816 1024.03 451.869 1024.75 453.663C1024.76 453.704 1024.78 453.741 1024.8 453.782C1025.83 453.356 1026.87 452.931 1027.91 452.506C1022.76 442.259 1018.73 431.512 1015.2 420.65C1014.11 420.942 1013.01 421.237 1011.92 421.53C1011.95 421.605 1011.98 421.68 1012.01 421.752C1012.79 423.705 1016.04 422.898 1015.29 420.873C1011.84 411.535 1008.25 398.47 1017.2 390.886C1024.28 384.891 1035.23 383.869 1044.13 382.816C1054.56 381.583 1065.29 380.996 1075.38 377.963C1080.4 376.453 1084.58 374.129 1088.87 371.224C1095.36 366.832 1102.22 362.87 1109.46 359.736C1117.01 356.461 1125.63 353.674 1134.01 354.499C1142.55 355.338 1148.2 360.836 1150.94 368.518C1151.66 370.521 1154.95 369.659 1154.22 367.639Z" fill="#3D3140"/>
</g>
<mask id="mask13_7_506" style="mask-type:luminance" maskUnits="userSpaceOnUse" x="-122" y="-19" width="2231" height="1448">
<path d="M2109 -18.4822H-122V1428.32H2109V-18.4822Z" fill="white"/>
</mask>
<g mask="url(#mask13_7_506)">
<path d="M992.697 207.506C990.103 206.968 987.56 206.392 985.07 205.784C979.54 205.096 974.04 204.187 968.578 203.062L968.998 201.14C946.619 193.568 929.384 182.638 917.595 168.512C900.098 147.542 893.968 112.405 913.996 89.8981C932.008 69.6544 962.564 67.5189 989.523 65.6323L995.683 65.1925C1034.03 62.3567 1071.72 54.2691 1107.73 41.1523L1110.83 40.0209C1132.05 32.2516 1156.11 23.4463 1177.02 32.9634C1198.07 42.5441 1206.22 67.4321 1203.39 87.0653C1200.78 105.13 1190.7 122.937 1172.55 141.509C1127.01 188.122 1058.63 212.385 992.896 206.615L992.697 207.506ZM985.623 202.937C1052.7 211.25 1123.71 187.283 1170.39 139.518C1188.09 121.398 1197.93 104.109 1200.44 86.6631C1203.12 68.0803 1195.5 44.5697 1175.76 35.585C1155.97 26.5743 1132.54 35.1596 1111.87 42.7293L1108.77 43.8607C1072.5 57.073 1034.53 65.2214 995.907 68.0774L989.734 68.5172C962.061 70.453 933.448 72.4554 916.242 91.7906C897.234 113.151 903.177 146.648 919.901 166.689C933.935 183.498 956.019 195.674 985.623 202.937Z" fill="#3D3140"/>
</g>
<mask id="mask14_7_506" style="mask-type:luminance" maskUnits="userSpaceOnUse" x="-122" y="-19" width="2231" height="1448">
<path d="M2109 -18.4822H-122V1428.32H2109V-18.4822Z" fill="white"/>
</mask>
<g mask="url(#mask14_7_506)">
<path d="M679.503 1242.04C666.394 1242.04 649.016 1233.77 628.366 1204.81C596.218 1167.02 560.522 1159.81 526.001 1152.83C499.036 1147.38 473.564 1142.24 451.31 1123.07C432.927 1104.83 431.264 1083.61 437.734 1070.64C442.5 1061.09 451.507 1056.05 461.82 1057.14L483.309 1060.44C506.047 1062 532.391 1059.99 560.287 1057.86C635.606 1052.1 713.504 1046.14 729.162 1111.62C739.841 1156.26 724.376 1225.42 691.771 1239.49C688.246 1241.01 684.141 1242.04 679.503 1242.04ZM458.97 1059.88C450.971 1059.88 444.272 1064.16 440.411 1071.9C434.394 1083.96 436.062 1103.81 453.357 1120.97C474.941 1139.56 500.036 1144.63 526.605 1150C561.626 1157.08 597.843 1164.39 630.73 1203.06C652.023 1232.91 672.688 1244.55 690.566 1236.84C721.981 1223.28 736.7 1155.89 726.268 1112.27C711.186 1049.23 634.592 1055.08 560.522 1060.74C532.513 1062.88 506.053 1064.9 482.973 1063.31L461.427 1060.01C460.597 1059.92 459.776 1059.88 458.97 1059.88Z" fill="#3D3140"/>
</g>
<mask id="mask15_7_506" style="mask-type:luminance" maskUnits="userSpaceOnUse" x="-122" y="-19" width="2231" height="1448">
<path d="M2109 -18.4822H-122V1428.32H2109V-18.4822Z" fill="white"/>
</mask>
<g mask="url(#mask15_7_506)">
<path d="M214.194 717.277C199.633 717.28 190.566 702.036 183.219 689.689L182.136 687.875C161.935 654.077 128.321 615.902 82.9367 625.943L82.9248 625.946C68.0485 629.109 58.4254 626.999 54.3293 619.693C52.375 616.203 52.3036 612.056 54.13 608.011C56.593 602.554 62.0337 598.095 67.9949 596.645C76.3359 594.625 84.8197 596.628 93.0238 598.569C94.3951 598.893 95.7605 599.218 97.1199 599.518C126.292 606.012 157.351 602.939 184.581 590.858C194.424 586.488 214.908 577.408 224.819 589.697C228.398 594.131 229.067 600.036 229.606 604.782L237.161 671.167C238.143 679.787 239.252 689.559 236.507 698.63C233.922 707.17 226.628 716.221 216.163 717.187C215.5 717.248 214.839 717.277 214.194 717.277ZM97.6702 621.406C137.01 621.406 166.326 655.672 184.706 686.419L185.792 688.24C193.416 701.052 202.072 715.625 215.883 714.305C224.965 713.469 231.355 705.419 233.657 697.814C236.233 689.301 235.156 679.836 234.207 671.486L226.649 605.097C226.152 600.716 225.533 595.268 222.478 591.483C215.039 582.255 200.463 586.995 185.816 593.491C157.999 605.832 126.263 608.978 96.4595 602.34C95.0852 602.036 93.708 601.709 92.3248 601.382C84.4657 599.521 76.3419 597.603 68.7148 599.455C63.6936 600.673 58.9252 604.579 56.8518 609.174C55.8286 611.443 55.0135 614.869 56.9411 618.31C60.3263 624.351 68.8517 625.969 82.2853 623.122C87.5712 621.953 92.7025 621.406 97.6702 621.406Z" fill="#3D3140"/>
</g>
<mask id="mask16_7_506" style="mask-type:luminance" maskUnits="userSpaceOnUse" x="-122" y="-19" width="2231" height="1448">
<path d="M2109 -18.4822H-122V1428.32H2109V-18.4822Z" fill="white"/>
</mask>
<g mask="url(#mask16_7_506)">
<path d="M957.89 1027.62C945.126 1027.62 931.987 1022.34 923.006 1013.48C915.62 1006.19 911.964 997.171 912.711 988.076C914.707 963.81 942.416 951.851 964.681 942.244L965.508 941.888C1016.89 919.7 1061.4 881.82 1090.83 835.227C1093.28 831.335 1095.64 827.379 1098.01 823.424C1104.15 813.137 1110.5 802.503 1118.51 793.208C1131.42 778.237 1147.07 769.414 1162.58 768.367C1173.23 767.649 1183.39 771.475 1189.1 778.364C1192.78 782.8 1196.41 790.636 1192.79 802.769L1192.73 802.919C1166.03 865.555 1086.98 944.394 1021.9 997.289C1004.88 1011.12 984.716 1026.01 960.779 1027.53C959.824 1027.59 958.857 1027.62 957.89 1027.62ZM1165.14 771.174C1164.36 771.174 1163.58 771.2 1162.79 771.252C1142.96 772.591 1127.96 786.744 1120.79 795.063C1112.94 804.167 1106.66 814.694 1100.58 824.873C1098.21 828.849 1095.83 832.828 1093.36 836.74C1063.62 883.828 1018.65 922.11 966.716 944.533L965.889 944.892C944.347 954.186 917.536 965.757 915.68 988.307C914.808 998.872 920.338 1006.73 925.127 1011.45C934.06 1020.27 947.979 1025.47 960.591 1024.64C983.636 1023.17 1003.34 1008.61 1020 995.064C1084.78 942.412 1163.43 864.021 1189.96 801.881C1192.51 793.258 1191.41 785.757 1186.78 780.178C1182.09 774.519 1173.95 771.174 1165.14 771.174Z" fill="#3D3340"/>
</g>
<path d="M2132.3 972.934C2119.52 967.196 2109.32 958.344 2103.09 951.972C2094 942.681 2086.18 932.015 2078.6 921.699C2073.41 914.624 2068.04 907.307 2062.29 900.455C2037.81 871.316 2004.16 848.56 1967.55 836.393C1962.36 834.665 1957.02 833.114 1951.86 831.615C1941.1 828.49 1929.97 825.261 1919.83 820.33C1902.75 812.023 1891.15 799.372 1888.03 785.619C1884.83 771.57 1890.3 754.903 1902.64 741.034C1911.88 730.657 1923.74 722.518 1935.21 714.647C1937.52 713.064 1939.82 711.481 1942.1 709.884C1980.19 683.222 2013.55 651.022 2041.23 614.172C2043.35 611.348 2045.46 608.48 2047.58 605.604C2061.96 586.043 2076.83 565.817 2098.9 555.845C2108.87 551.337 2121.07 550.298 2132.3 552.599V549.67C2120.61 547.408 2108 548.539 2097.64 553.218C2074.87 563.514 2059.76 584.055 2045.15 603.92C2043.05 606.79 2040.94 609.649 2038.83 612.465C2011.33 649.066 1978.2 681.052 1940.36 707.534C1938.09 709.126 1935.79 710.703 1933.49 712.28C1921.88 720.252 1909.87 728.496 1900.39 739.139C1887.43 753.693 1881.72 771.304 1885.11 786.244C1888.44 800.851 1900.6 814.219 1918.5 822.917C1928.86 827.958 1940.12 831.228 1951 834.388C1956.14 835.884 1961.45 837.426 1966.58 839.133C2002.68 851.13 2035.85 873.558 2059.97 902.286C2065.67 909.069 2071.01 916.343 2076.18 923.381C2083.81 933.777 2091.7 944.527 2100.93 953.966C2107.54 960.731 2118.49 970.22 2132.29 976.128V972.934H2132.3Z" fill="#3D3340"/>
</g>
</g>
<defs>
<clipPath id="clip0_7_506">
<rect width="1920" height="1428" fill="white"/>
</clipPath>
</defs>
</svg>
