<svg width="50" height="50" viewBox="0 0 50 50" fill="none" xmlns="http://www.w3.org/2000/svg">
<circle cx="25" cy="25" r="25" fill="white"/>
<g clip-path="url(#clip0_4001_158)">
<path d="M19.5833 32.5C19.0308 32.5 18.5009 32.2805 18.1102 31.8898C17.7195 31.4991 17.5 30.9692 17.5 30.4167V16.25C17.5 15.9185 17.3683 15.6005 17.1339 15.3661C16.8995 15.1317 16.5815 15 16.25 15C15.9185 15 15.6005 15.1317 15.3661 15.3661C15.1317 15.6005 15 15.9185 15 16.25V30.4167C15 31.6322 15.4829 32.798 16.3424 33.6576C17.202 34.5171 18.3678 35 19.5833 35H33.75C34.0815 35 34.3995 34.8683 34.6339 34.6339C34.8683 34.3995 35 34.0815 35 33.75C35 33.4185 34.8683 33.1005 34.6339 32.8661C34.3995 32.6317 34.0815 32.5 33.75 32.5H19.5833Z" fill="#A12CDD"/>
<path d="M31.25 29.9999C31.5815 29.9999 31.8995 29.8682 32.1339 29.6338C32.3683 29.3994 32.5 29.0814 32.5 28.7499V23.7499C32.5 23.4184 32.3683 23.1005 32.1339 22.866C31.8995 22.6316 31.5815 22.4999 31.25 22.4999C30.9185 22.4999 30.6005 22.6316 30.3661 22.866C30.1317 23.1005 30 23.4184 30 23.7499V28.7499C30 29.0814 30.1317 29.3994 30.3661 29.6338C30.6005 29.8682 30.9185 29.9999 31.25 29.9999ZM21.25 29.9999C21.5815 29.9999 21.8995 29.8682 22.1339 29.6338C22.3683 29.3994 22.5 29.0814 22.5 28.7499V23.7499C22.5 23.4184 22.3683 23.1005 22.1339 22.866C21.8995 22.6316 21.5815 22.4999 21.25 22.4999C20.9185 22.4999 20.6005 22.6316 20.3661 22.866C20.1317 23.1005 20 23.4184 20 23.7499V28.7499C20 29.0814 20.1317 29.3994 20.3661 29.6338C20.6005 29.8682 20.9185 29.9999 21.25 29.9999ZM26.25 29.9999C26.5815 29.9999 26.8995 29.8682 27.1339 29.6338C27.3683 29.3994 27.5 29.0814 27.5 28.7499V19.5833C27.5 19.2517 27.3683 18.9338 27.1339 18.6994C26.8995 18.4649 26.5815 18.3333 26.25 18.3333C25.9185 18.3333 25.6005 18.4649 25.3661 18.6994C25.1317 18.9338 25 19.2517 25 19.5833V28.7499C25 29.0814 25.1317 29.3994 25.3661 29.6338C25.6005 29.8682 25.9185 29.9999 26.25 29.9999Z" fill="#A12CDD"/>
</g>
<defs>
<clipPath id="clip0_4001_158">
<rect width="20" height="20" fill="white" transform="translate(15 15)"/>
</clipPath>
</defs>
</svg>
