<svg width="50" height="50" viewBox="0 0 50 50" fill="none" xmlns="http://www.w3.org/2000/svg">
<g clip-path="url(#clip0_33_229)">
<path d="M8.55208 8.55191C8.55208 8.55191 19.0792 3.2915 24.3417 0.658163C25.2995 0.186 26.36 -0.0395702 27.4271 0.0019128C29.0229 0.0998295 30.9208 1.64358 30.9208 1.64358L50 20.7248V41.1186H41.1187V49.9998H20.3937L1.64375 31.2498C0.63125 30.2082 0 28.7394 0 27.3019C0 26.6373 0.375 25.5977 0.658333 24.9998L8.55208 8.55191ZM9.96667 9.9665V34.5227C9.97083 35.654 10.0104 36.6561 11.0042 37.6644L21.2583 47.9165H39.0354V39.0352L9.96667 9.9665ZM35.0812 8.554C33.2083 6.68733 31.3125 4.84566 29.3729 3.04775C28.7437 2.4915 28.1917 2.07275 27.1437 2.08525C26.3729 2.11441 25.3312 2.4915 25.3312 2.4915L13.2104 8.55191L35.0812 8.554Z" fill="#474748"/>
</g>
<defs>
<clipPath id="clip0_33_229">
<rect width="50" height="50" fill="white"/>
</clipPath>
</defs>
</svg>
