<svg width="50" height="50" viewBox="0 0 50 50" fill="none" xmlns="http://www.w3.org/2000/svg">
<path d="M24.9519 48.9812C12.1898 48.9812 1.3699 38.2023 1.26951 25.3605C1.24761 22.2624 1.84077 19.1908 3.0146 16.3237C4.18843 13.4566 5.9196 10.8509 8.10779 8.65772C10.3104 6.40239 12.9391 4.60704 15.8413 3.37588C18.7434 2.14472 21.8612 1.50228 25.0136 1.48585C28.1095 1.48322 31.1752 2.09313 34.0343 3.28042C36.8934 4.46772 39.4894 6.20895 41.6726 8.40382C43.8921 10.5677 45.6615 13.1494 46.8788 16.0001C48.0961 18.8509 48.7372 21.9143 48.7652 25.014C48.8242 38.1405 38.2715 48.8503 25.1445 48.9839H24.9519V48.9812ZM25.0261 2.72882C22.0383 2.74653 19.0836 3.3574 16.3337 4.52598C13.5837 5.69456 11.0932 7.39758 9.00661 9.53624C6.93137 11.6113 5.28859 14.0776 4.17349 16.7922C3.0584 19.5067 2.49315 22.4157 2.51052 25.3503C2.60271 37.5218 12.8601 47.7276 24.9441 47.7276H25.1058C37.5523 47.6144 47.5683 37.4675 47.5218 25.0214C47.4942 22.0852 46.8856 19.1834 45.7314 16.4834C44.5771 13.7835 42.8999 11.3386 40.7965 9.28975C38.733 7.20678 36.2765 5.55423 33.5694 4.42798C30.8623 3.30172 27.9582 2.72417 25.0261 2.72882Z" fill="#474748"/>
<path d="M6.59762 32.181V18.3067H9.97262V19.5501H8.18239V30.9634H9.97301V32.2067L6.59762 32.181ZM18.0519 25.1063C18.0519 27.6368 16.5156 29.0778 14.4347 29.0778C12.3539 29.0778 10.9672 27.4544 10.9672 25.2376C10.9672 22.9177 12.4211 21.2841 14.548 21.2841C16.675 21.2841 18.0519 22.9872 18.0519 25.1063ZM12.4211 25.2196C12.4211 26.7556 13.1918 27.9735 14.5148 27.9735C15.8379 27.9735 16.598 26.7302 16.598 25.163C16.598 23.7399 15.8964 22.3962 14.5144 22.3962C13.1324 22.3962 12.4082 23.6962 12.4082 25.2505L12.4211 25.2196ZM19.2207 21.5462C19.8808 21.4329 20.5515 21.3767 21.2218 21.379C21.9752 21.3057 22.7323 21.473 23.3847 21.8567C23.6295 22.0003 23.8313 22.2068 23.9691 22.4548C24.1069 22.7028 24.1757 22.9833 24.1683 23.2669C24.1596 23.6355 24.0347 23.992 23.8115 24.2854C23.5882 24.5788 23.2779 24.7942 22.925 24.9009C23.8113 25.0806 24.4484 25.8618 24.4484 26.7661C24.453 27.0633 24.39 27.3576 24.264 27.6269C24.1381 27.8961 23.9525 28.1331 23.7214 28.32C23.1871 28.7927 22.2984 29.0216 20.9238 29.0216C20.3588 29.0241 19.7943 28.9906 19.2336 28.9212L19.2207 21.5462ZM20.5875 24.5235H21.2886C22.239 24.5235 22.7734 24.0763 22.7734 23.4368C22.7734 22.797 22.239 22.404 21.3632 22.404C21.1008 22.3959 20.8382 22.4149 20.5796 22.4606L20.5875 24.5235ZM20.5875 27.9915C20.8289 28.0169 21.073 28.0274 21.314 28.022C22.198 28.022 22.9789 27.6856 22.9789 26.779C22.9789 25.8724 22.2211 25.5356 21.2707 25.5356H20.5871L20.5875 27.9915ZM27.164 21.4458H28.5379V26.3497C28.5379 28.4333 27.5312 29.1294 26.0515 29.1294C25.6562 29.1269 25.264 29.06 24.8902 28.9313L25.0574 27.8243C25.332 27.9118 25.6199 27.9552 25.9101 27.9606C26.6937 27.9606 27.1535 27.6009 27.1535 26.2958L27.164 21.4458ZM32.448 25.5302V26.481H29.5886V25.5302H32.448ZM39.1242 28.7618C38.505 29.0087 37.8425 29.1216 37.1797 29.0985C34.7855 29.0985 33.3316 27.6009 33.3316 25.3067C33.2211 23.2157 34.8265 21.4306 36.9175 21.32C37.064 21.3122 37.2132 21.3122 37.3593 21.3224C37.9983 21.2958 38.6352 21.4108 39.2246 21.6591L38.9187 22.7532C38.4508 22.555 37.9471 22.4553 37.439 22.4603C35.9031 22.4603 34.7984 23.4239 34.7984 25.2399C34.7984 26.8942 35.7746 27.963 37.4289 27.963C37.9418 27.9709 38.4511 27.8756 38.9265 27.6829L39.1242 28.7618ZM43.4375 18.2681V32.1782H40.0621V30.9353H41.8523V19.5114H40.0621V18.2681H43.4375Z" fill="#474748"/>
</svg>
