<svg width="50" height="50" viewBox="0 0 50 50" fill="none" xmlns="http://www.w3.org/2000/svg">
<g clip-path="url(#clip0_33_236)">
<path d="M0 25V0H50V50H0" fill="#474748"/>
<path d="M10.9625 25.0876V27.1251H17.4625V45.6251H22.075V27.1251H28.575V25.1251C28.575 24.0001 28.575 23.0876 28.525 23.0626C28.525 23.0251 24.5625 23.0126 19.75 23.0126L11 23.0501V25.1001L10.9625 25.0876ZM40.175 23.0001C41.45 23.3001 42.425 23.8751 43.3 24.7876C43.7625 25.2876 44.45 26.1626 44.5 26.3876C44.5 26.4626 42.3375 27.9251 41.025 28.7376C40.975 28.7751 40.775 28.5626 40.575 28.2376C39.925 27.3126 39.2625 26.9126 38.225 26.8376C36.725 26.7376 35.725 27.5251 35.725 28.8376C35.725 29.2376 35.8 29.4626 35.95 29.7876C36.2875 30.4751 36.9125 30.8876 38.85 31.7376C42.425 33.2751 43.975 34.2876 44.9125 35.7376C45.975 37.3626 46.2125 39.9126 45.5 41.8251C44.7 43.9126 42.75 45.3251 39.9625 45.7876C39.0875 45.9376 37.0875 45.9126 36.15 45.7501C34.15 45.3751 32.2375 44.3751 31.0625 43.0876C30.6 42.5876 29.7125 41.2501 29.7625 41.1626L30.2375 40.8626L32.1125 39.7751L33.525 38.9501L33.85 39.3876C34.2625 40.0376 35.1875 40.9126 35.725 41.2126C37.35 42.0501 39.525 41.9376 40.6 40.9626C41.0625 40.5376 41.2625 40.0876 41.2625 39.4626C41.2625 38.8876 41.175 38.6251 40.8875 38.1876C40.4875 37.6376 39.6875 37.1876 37.4375 36.1876C34.85 35.0876 33.75 34.3876 32.725 33.3126C32.1375 32.6626 31.6 31.6501 31.35 30.8126C31.1625 30.0876 31.1 28.3126 31.275 27.6001C31.8125 25.1001 33.7 23.3501 36.4 22.8501C37.275 22.6751 39.3375 22.7501 40.2 22.9751L40.175 23.0001Z" fill="white"/>
</g>
<defs>
<clipPath id="clip0_33_236">
<rect width="50" height="50" fill="white"/>
</clipPath>
</defs>
</svg>
