<svg width="36" height="36" viewBox="0 0 36 36" fill="none" xmlns="http://www.w3.org/2000/svg">
<path d="M32.8369 24.4911C32.8065 24.4243 32.7725 24.3593 32.7352 24.2962C31.9163 23.0055 30.9116 21.8427 29.7534 20.8453L29.7223 20.8142L29.7063 20.7992L29.6902 20.7832H29.6752C29.009 20.1484 28.5874 19.72 28.4103 19.4979C28.2588 19.3289 28.1582 19.1203 28.1203 18.8965C28.0824 18.6726 28.1087 18.4426 28.1961 18.2331C28.5912 17.5036 29.0623 16.8179 29.6013 16.1874C30.0297 15.6354 30.3678 15.1931 30.6156 14.8604C32.4163 12.4663 33.1971 10.9361 32.9579 10.2699L32.8647 10.1146C32.7337 9.98096 32.5647 9.89085 32.3806 9.8565C32.0537 9.77547 31.7136 9.76234 31.3814 9.81794L26.883 9.849C26.78 9.823 26.6719 9.8256 26.5703 9.8565L26.3668 9.90363L26.2886 9.94326L26.2265 9.99038C26.1604 10.0348 26.1024 10.0902 26.0551 10.1543C25.9902 10.2372 25.9379 10.3292 25.8998 10.4274C25.4332 11.6392 24.8746 12.8136 24.229 13.9403C23.8442 14.583 23.49 15.1424 23.1665 15.6187C22.925 15.9891 22.6535 16.3391 22.3547 16.6651C22.1698 16.8573 21.9715 17.0363 21.7614 17.2006C21.5843 17.3362 21.449 17.3934 21.3554 17.3719L21.0898 17.3098C20.9422 17.2142 20.8213 17.0826 20.7385 16.9275C20.6411 16.7373 20.58 16.5306 20.5586 16.318C20.5272 16.0731 20.509 15.8625 20.504 15.6861C20.499 15.5098 20.5015 15.2599 20.5115 14.9364C20.5222 14.6137 20.5275 14.3952 20.5275 14.2809C20.5275 13.8854 20.5354 13.457 20.5511 12.9957C20.5668 12.5344 20.58 12.1674 20.5907 11.8947C20.6014 11.6241 20.6068 11.3385 20.6068 11.0379C20.612 10.7999 20.5937 10.5621 20.5522 10.3278C20.5158 10.1556 20.4608 9.98789 20.3883 9.82759C20.3211 9.67333 20.2091 9.54276 20.067 9.45273C19.9051 9.35432 19.7287 9.28202 19.5443 9.23851C18.8504 9.09943 18.1442 9.03161 17.4365 9.03609C16.1802 8.93035 14.9152 9.05743 13.705 9.41095C13.4806 9.52987 13.2796 9.68844 13.1117 9.87899C12.9246 10.1082 12.8986 10.2332 13.0335 10.2539C13.2883 10.2716 13.537 10.3401 13.7649 10.4555C13.9928 10.5708 14.1953 10.7306 14.3605 10.9254L14.4548 11.1128C14.5561 11.3424 14.628 11.5839 14.669 11.8315C14.7458 12.207 14.7927 12.5881 14.8093 12.9711C14.8616 13.6205 14.8616 14.2731 14.8093 14.9225C14.7572 15.4637 14.7079 15.8853 14.6615 16.1874C14.6276 16.4414 14.5554 16.6887 14.4473 16.921C14.3921 17.0395 14.3295 17.1543 14.2598 17.2648C14.2395 17.296 14.2129 17.3227 14.1817 17.343C14.047 17.3949 13.9039 17.4214 13.7597 17.4212C13.5639 17.4046 13.3774 17.33 13.2242 17.207C12.9871 17.0326 12.7714 16.831 12.5815 16.6062C12.3003 16.2704 12.0471 15.9122 11.8243 15.5351C11.5437 15.0774 11.2524 14.5362 10.9503 13.9114L10.7008 13.4584C10.5444 13.1671 10.3302 12.7429 10.0582 12.186C9.78614 11.6291 9.54658 11.0903 9.33952 10.5698C9.26924 10.3687 9.13826 10.1943 8.96465 10.0707L8.88647 10.0236C8.80952 9.96848 8.7256 9.92382 8.63692 9.89078C8.52153 9.84346 8.40117 9.80933 8.27812 9.78903L4.00042 9.82008C3.83933 9.79994 3.67577 9.81613 3.52175 9.86747C3.36774 9.91881 3.22717 10.004 3.11039 10.1168L3.04827 10.2099C3.01158 10.2878 2.99536 10.3737 3.00114 10.4595C3.00768 10.6046 3.03957 10.7474 3.09539 10.8815C3.72016 12.3495 4.39848 13.7651 5.13036 15.1281C5.86223 16.4912 6.49985 17.5894 7.04322 18.4226C7.58445 19.2552 8.13603 20.0406 8.69797 20.7789C9.2599 21.5172 9.63191 21.9909 9.81398 22.2002C9.99606 22.4087 10.1389 22.5647 10.2424 22.6682L10.6333 23.0431C10.9768 23.37 11.3449 23.67 11.7343 23.9406C12.252 24.3114 12.7882 24.6556 13.3409 24.972C13.9874 25.3336 14.6774 25.6115 15.3941 25.7988C16.1348 26.0078 16.9045 26.095 17.6732 26.0569H19.479C19.7881 26.0493 20.0833 25.9267 20.3069 25.7131L20.369 25.635C20.4222 25.5454 20.4616 25.4482 20.4858 25.3469C20.5234 25.2072 20.5418 25.0631 20.5404 24.9184C20.5264 24.5124 20.5605 24.1062 20.6421 23.7082C20.6938 23.4269 20.7831 23.1538 20.9077 22.8963C20.9969 22.7276 21.1098 22.5725 21.243 22.4358C21.3214 22.349 21.4106 22.2726 21.5086 22.2087C21.5487 22.1878 21.5902 22.1695 21.6328 22.1541C21.7886 22.1205 21.9501 22.125 22.1037 22.1671C22.2573 22.2093 22.3986 22.2878 22.5154 22.3962C22.8699 22.6566 23.1899 22.961 23.4675 23.3022C23.7645 23.6593 24.1216 24.0627 24.5385 24.5125C24.8681 24.8815 25.2341 25.2163 25.631 25.5118L25.9427 25.6992C26.199 25.8449 26.4715 25.9603 26.7545 26.043C27.0345 26.1429 27.3352 26.1698 27.6285 26.1212L31.6256 26.0591C31.9444 26.0764 32.2622 26.0091 32.5467 25.8641C32.7275 25.7774 32.8677 25.6238 32.9376 25.4357C32.9801 25.26 32.9826 25.077 32.9451 24.9002C32.9239 24.7603 32.8876 24.6232 32.8369 24.4911Z" fill="#474748"/>
</svg>
