<svg width="711" height="570" viewBox="0 0 711 570" fill="none" xmlns="http://www.w3.org/2000/svg">
<g opacity="0.3">
<path d="M641.621 89.6512C634.121 62.4512 614.121 46.8512 582.221 43.2512C485.421 32.4512 421.621 34.7512 379.421 36.4512C360.421 37.1512 345.421 37.7512 334.221 36.7512C315.521 35.1512 284.221 48.6512 252.621 71.9512C221.721 94.6512 196.521 122.051 182.221 148.251C180.721 151.051 179.321 153.751 178.021 156.451C177.121 158.251 176.321 160.151 175.421 161.951C156.921 199.451 127.621 235.251 105.721 259.151C100.721 264.551 95.6207 269.951 90.4207 275.251C88.3207 277.451 86.1207 279.651 83.9207 281.751C62.9207 302.651 40.8207 321.951 21.7207 335.851C5.0207 348.051 -2.2793 364.551 0.6207 383.751C5.6207 416.951 40.5207 453.651 91.7207 479.451C116.021 491.651 141.121 504.351 165.821 515.251C193.221 527.251 217.221 535.651 239.421 540.951C265.821 547.251 290.221 549.351 314.021 547.551C340.621 545.451 365.821 538.451 391.121 526.051C434.421 504.951 504.321 425.951 561.321 334.051C584.621 296.351 603.921 259.251 618.021 225.451C621.721 216.551 625.121 207.851 628.021 199.451C644.421 153.151 648.921 116.251 641.621 89.6512ZM627.021 199.051C612.721 239.451 589.721 285.951 560.221 333.351C503.321 425.151 433.621 503.951 390.521 524.951C365.321 537.251 340.221 544.251 313.821 546.351C290.121 548.251 265.921 546.051 239.621 539.851C190.321 528.051 140.421 502.951 92.2207 478.551C41.4207 452.851 6.8207 416.551 1.8207 383.751C0.420701 374.751 1.4207 366.351 4.6207 358.551C8.0207 350.351 14.1207 343.051 22.5207 336.851C41.9207 322.751 64.3207 303.151 85.6207 281.951C87.8207 279.751 89.9207 277.651 92.0207 275.451C97.0207 270.351 101.921 265.151 106.621 259.951C128.121 236.451 156.721 201.451 175.421 164.751C176.721 162.151 177.921 159.651 179.121 157.051C180.121 155.051 181.121 152.951 182.221 150.851C196.221 124.151 221.821 96.0512 253.421 72.8512C284.921 49.6512 315.921 36.2512 334.321 37.8512C345.621 38.8512 360.621 38.2512 379.721 37.5512C421.921 35.9512 485.621 33.5512 582.321 44.3512C613.621 47.8512 633.221 63.1512 640.621 89.7512C647.821 116.151 643.221 152.951 627.021 199.051Z" fill="url(#paint0_linear_423_6169)"/>
<path d="M618.323 102.151C611.622 77.6512 593.823 63.4512 565.323 60.0512C479.323 49.2512 418.823 50.2512 378.723 50.9512C359.923 51.2512 345.022 51.5512 333.723 50.4512C315.423 48.7512 285.623 60.9512 255.923 82.2512C224.123 105.051 198.523 133.551 185.723 160.551C184.622 163.051 183.323 165.451 182.123 167.951C180.023 172.151 177.723 176.251 175.323 180.351C158.523 209.351 136.423 236.351 119.423 255.351C113.323 262.151 106.923 268.951 100.523 275.551C98.4225 277.751 96.2225 279.951 94.0225 282.051C76.8225 299.151 59.3225 314.551 43.5225 326.551C28.5225 337.951 22.1225 353.251 24.9225 370.851C29.8225 401.451 61.9225 435.151 108.723 458.851C152.823 481.151 198.523 504.251 244.723 515.351C269.023 521.151 291.623 523.051 313.523 521.351C338.023 519.451 361.223 513.051 384.622 501.751C424.823 482.451 489.823 410.151 542.723 325.851C551.923 311.051 560.523 296.451 568.323 282.051C568.622 281.451 568.922 280.851 569.323 280.251C580.023 260.551 589.223 241.451 596.823 223.251C599.723 216.251 602.422 209.251 604.922 202.551C620.422 160.151 624.922 126.451 618.323 102.151ZM604.122 202.151C595.622 225.551 584.023 251.151 569.622 277.851C568.922 279.251 568.122 280.551 567.422 281.951C559.722 296.151 551.222 310.551 542.122 325.051C489.122 409.251 424.323 481.451 384.323 500.651C361.122 511.951 338.022 518.251 313.622 520.151C291.823 521.851 269.423 519.851 245.223 514.151C199.122 503.151 153.622 480.151 109.523 457.751C63.0225 434.251 31.1225 400.851 26.3225 370.651C24.8225 361.951 25.7225 353.951 28.7225 346.651C31.8225 339.251 37.0225 332.751 44.4225 327.151C60.5225 314.951 78.3225 299.251 95.7225 281.851C97.9225 279.751 100.023 277.551 102.223 275.351C108.423 268.951 114.523 262.451 120.423 255.851C137.123 237.251 158.623 210.951 175.423 182.451C177.823 178.451 180.023 174.351 182.223 170.251C183.823 167.151 185.423 164.051 186.923 160.851C199.723 134.051 225.323 105.651 256.823 82.9512C286.323 61.7512 315.823 49.6512 333.823 51.3512C345.223 52.3512 360.123 52.1512 378.923 51.8512C418.923 51.2512 479.422 50.2512 565.422 60.9512C593.422 64.3512 610.823 78.1512 617.323 102.151C623.723 126.451 619.323 160.051 604.122 202.151Z" fill="url(#paint1_linear_423_6169)"/>
<path d="M595.017 114.551C589.317 92.6513 573.717 79.8513 548.517 76.6513C472.617 65.8513 417.517 65.4513 377.317 65.1513C359.017 65.0513 344.617 64.9513 333.317 63.8513C315.117 62.0513 287.417 72.7513 259.517 92.2513C230.117 112.751 206.117 138.951 193.617 164.251C190.217 171.351 186.417 178.451 182.117 185.551C179.917 189.151 177.717 192.851 175.317 196.451C156.917 224.851 133.217 252.451 110.817 275.351C108.617 277.551 106.517 279.751 104.317 281.851C90.0171 296.051 76.5171 308.051 65.6171 316.651C52.3171 327.151 46.8171 341.251 49.6171 357.351C54.4171 385.351 83.8171 416.151 126.217 437.651C164.317 457.051 207.517 479.051 250.417 489.151C272.617 494.351 293.317 496.151 313.417 494.651C335.817 492.951 357.117 487.151 378.517 476.951C397.117 468.251 421.217 447.851 448.217 418.151C473.617 390.251 500.117 355.251 523.117 319.551C523.617 318.751 524.117 317.951 524.617 317.151C526.417 314.351 528.217 311.551 529.917 308.751C535.517 299.751 540.817 290.751 545.917 281.851C547.117 279.651 548.417 277.551 549.517 275.351C559.917 256.451 568.917 238.151 576.117 220.851C578.317 215.651 580.317 210.551 582.217 205.551C596.317 167.151 600.717 136.551 595.017 114.551ZM581.117 205.151C573.017 226.851 561.917 250.651 548.317 275.351C547.117 277.551 545.917 279.651 544.717 281.851C540.117 290.051 535.217 298.351 530.017 306.651C527.917 309.951 525.817 313.351 523.717 316.651C523.517 316.951 523.417 317.151 523.217 317.451C500.017 353.751 473.117 389.251 447.317 417.551C420.417 447.151 396.417 467.451 377.917 476.151C356.617 486.251 335.517 492.051 313.217 493.751C293.217 495.251 272.717 493.551 250.617 488.251C207.817 478.151 164.717 456.251 126.617 436.851C84.5171 415.551 55.4171 385.051 50.6171 357.351C49.3171 349.251 50.0171 341.551 52.9171 334.651C55.6171 328.251 60.1171 322.451 66.4171 317.451C77.5171 308.651 91.3171 296.351 105.917 281.851C108.017 279.751 110.217 277.551 112.417 275.351C134.317 252.951 157.317 226.051 175.517 198.451C177.917 194.851 180.117 191.251 182.317 187.651C186.917 180.051 191.117 172.351 194.717 164.851C207.217 139.651 231.117 113.551 260.317 93.1513C288.117 73.7513 315.417 63.2513 333.517 64.9513C344.817 66.0513 359.317 66.1513 377.517 66.2513C417.717 66.5513 472.717 66.8513 548.517 77.6513C573.117 80.7513 588.417 93.2513 594.017 114.651C599.517 136.551 595.217 166.951 581.117 205.151Z" fill="url(#paint2_linear_423_6169)"/>
<path d="M571.519 127.051C566.719 107.751 553.319 96.4511 531.519 93.4511C465.119 82.4511 412.719 80.8511 374.519 79.6511C358.019 79.1511 343.819 78.7511 332.819 77.5511C314.919 75.7511 288.719 85.0511 262.819 102.451C235.819 120.651 213.419 144.651 201.219 168.251C196.119 178.651 189.719 189.651 182.019 201.151C179.819 204.451 177.619 207.751 175.219 211.051C166.919 222.851 157.419 234.951 146.919 247.151C138.619 256.851 129.919 266.351 121.119 275.351C118.919 277.551 116.819 279.751 114.619 281.851C105.219 291.151 95.9191 299.751 87.2191 307.051C75.7191 316.751 71.0191 329.551 73.7191 344.251C78.4191 369.751 105.019 397.551 143.019 416.851C182.919 437.251 218.819 454.751 255.519 463.351C275.719 468.051 294.419 469.651 312.619 468.251C332.919 466.751 352.319 461.551 371.719 452.451C388.919 444.551 411.119 426.351 435.919 399.551C459.619 373.951 484.519 341.751 505.919 308.751C511.819 299.751 517.419 290.751 522.719 281.851C525.119 277.751 527.419 273.751 529.719 269.751C539.619 252.051 548.119 234.851 554.819 218.751C556.219 215.351 557.619 211.951 558.819 208.551C572.219 174.251 576.419 146.751 571.519 127.051ZM558.219 208.151C551.119 226.651 541.619 246.851 529.919 267.751C527.319 272.451 524.619 277.151 521.819 281.951C516.719 290.651 511.219 299.551 505.419 308.351C483.919 341.251 459.119 373.451 435.419 399.051C410.719 425.651 388.619 443.951 371.519 451.751C352.219 460.851 333.019 465.951 312.819 467.551C294.619 468.951 276.019 467.251 256.019 462.651C219.419 454.051 183.519 436.551 143.819 416.251C106.019 397.151 79.7191 369.551 75.0191 344.351C73.5191 336.651 74.2191 329.451 77.0191 322.851C79.3191 317.351 83.1191 312.351 88.2191 307.951C97.1191 300.451 106.719 291.651 116.319 282.051C118.519 279.951 120.619 277.751 122.719 275.551C131.319 266.751 139.819 257.351 147.919 247.951C158.019 236.151 167.219 224.551 175.319 213.151C177.719 209.851 179.919 206.551 182.119 203.351C190.219 191.351 196.919 179.751 202.219 168.951C214.319 145.451 236.619 121.551 263.519 103.451C289.219 86.1511 315.119 76.8511 332.819 78.6511C343.819 79.7511 358.119 80.1511 374.619 80.6511C412.819 81.8511 465.219 83.4511 531.519 94.4511C552.819 97.3511 565.919 108.451 570.619 127.251C575.519 146.651 571.319 173.951 558.219 208.151Z" fill="url(#paint3_linear_423_6169)"/>
<path d="M548.324 139.551C544.424 122.851 533.224 113.051 514.724 110.251C456.924 98.8513 406.524 95.9513 369.724 93.9513C355.124 93.1513 342.524 92.3513 332.424 91.3513C314.524 89.5513 290.424 97.3513 266.424 112.951C241.824 128.851 220.924 150.551 209.124 172.451C202.124 186.551 192.724 201.351 182.124 216.051C179.924 219.151 177.624 222.151 175.324 225.251C161.724 243.251 146.624 260.551 132.224 275.451C130.024 277.651 127.924 279.851 125.824 281.951C120.124 287.651 114.524 292.951 109.324 297.751C99.5238 306.651 95.7238 318.251 98.4238 331.351C103.024 354.251 126.824 379.151 160.424 396.151C194.324 413.551 227.624 429.951 261.224 437.651C279.324 441.851 296.124 443.251 312.524 442.151C330.824 440.751 348.124 436.251 365.624 428.251C381.424 421.251 401.624 405.051 424.224 381.251C445.724 358.651 468.324 330.051 487.924 300.751C492.124 294.451 496.124 288.251 500.024 281.951C501.324 279.751 502.724 277.551 504.024 275.451C511.124 263.651 517.524 252.051 523.224 240.751C525.624 235.951 527.924 231.151 530.024 226.551C531.524 223.251 532.924 220.051 534.224 216.851C534.924 215.151 535.624 213.451 536.224 211.751C548.324 181.351 552.424 157.051 548.324 139.551ZM535.324 211.351C533.624 215.551 531.824 219.851 529.924 224.151C527.824 228.851 525.524 233.651 523.124 238.551C517.224 250.451 510.424 262.751 502.924 275.351C501.624 277.551 500.324 279.651 498.924 281.851C495.124 287.951 491.224 293.951 487.224 300.151C467.724 329.451 445.024 358.051 423.624 380.551C401.124 404.251 380.924 420.351 365.324 427.351C347.924 435.351 330.724 439.851 312.524 441.251C296.224 442.451 279.524 440.951 261.524 436.851C228.024 429.151 194.924 412.851 161.024 395.351C127.624 378.351 104.124 353.751 99.4238 331.151C97.9238 323.751 98.5238 316.851 101.024 310.751C102.924 306.151 106.024 301.951 110.024 298.251C115.424 293.351 121.124 287.851 127.024 281.951C129.124 279.851 131.224 277.651 133.424 275.451C147.424 260.851 162.024 244.051 175.424 226.551C177.724 223.551 180.024 220.451 182.224 217.451C193.124 202.451 202.824 187.151 210.024 172.751C221.724 150.851 242.524 129.351 267.024 113.451C290.924 97.9513 314.824 90.1513 332.424 92.0513C342.624 93.0513 355.224 93.8513 369.824 94.6513C406.524 96.7513 456.924 99.6513 514.724 110.951C532.724 113.751 543.724 123.351 547.524 139.551C551.524 156.951 547.424 181.051 535.324 211.351Z" fill="url(#paint4_linear_423_6169)"/>
<path d="M525.123 151.951C524.523 148.951 523.523 146.151 522.323 143.651C517.923 134.551 509.723 128.951 497.923 126.851C447.823 114.651 398.023 110.551 361.623 107.451C350.223 106.551 340.423 105.651 332.023 104.751C314.523 102.851 291.823 109.451 269.823 122.851C247.523 136.551 228.223 155.951 216.923 176.151C208.523 192.451 196.923 210.351 182.123 229.651C179.923 232.551 177.623 235.451 175.323 238.351C175.123 238.651 174.823 238.951 174.623 239.251C164.723 251.551 153.823 264.251 143.323 275.451C141.223 277.651 139.123 279.851 137.123 281.951C135.123 284.051 133.123 286.051 131.123 287.951C123.023 296.051 120.123 306.451 122.723 318.051C127.323 338.351 148.323 360.251 177.523 375.151C205.823 389.851 236.123 404.751 266.523 411.751C282.523 415.451 297.423 416.651 312.023 415.651C328.223 414.551 343.623 410.551 359.123 403.551C387.523 391.451 431.923 346.751 469.523 292.151C471.923 288.751 474.223 285.351 476.423 281.951C477.823 279.751 479.323 277.551 480.723 275.451C494.223 254.251 505.323 233.551 513.123 214.951C513.123 214.951 513.123 214.851 513.223 214.751C517.623 204.151 520.923 194.551 523.023 185.751C526.423 172.351 527.023 161.051 525.123 151.951ZM512.523 214.351C512.523 214.351 512.523 214.451 512.423 214.551C504.623 233.251 493.523 254.051 479.823 275.451C478.423 277.651 477.023 279.751 475.523 281.951C473.323 285.251 471.123 288.551 468.823 291.851C431.223 346.351 387.023 390.951 358.823 402.951C343.423 409.851 328.123 413.751 312.023 414.951C297.523 416.051 282.723 414.751 266.723 411.051C236.423 404.151 206.223 389.151 177.923 374.551C148.923 359.751 128.123 338.151 123.523 317.951C122.023 311.051 122.423 304.551 124.923 298.651C126.423 295.051 128.723 291.651 131.723 288.551C133.823 286.451 136.023 284.251 138.223 281.951C140.223 279.851 142.323 277.651 144.423 275.451C154.723 264.351 165.523 251.951 175.223 239.851C177.523 236.951 179.823 234.051 182.023 231.251C197.123 211.651 209.023 193.351 217.523 176.751C228.823 156.651 248.123 137.251 270.223 123.651C292.023 110.351 314.423 103.751 331.823 105.651C340.323 106.551 350.123 107.451 361.423 108.351C397.823 111.351 447.523 115.651 497.623 127.751C509.323 129.751 517.323 135.351 521.623 144.551C522.723 146.851 523.523 149.451 524.123 152.151C525.823 160.251 525.423 170.151 523.023 181.751C521.023 191.351 517.523 202.351 512.523 214.351Z" fill="url(#paint5_linear_423_6169)"/>
<path d="M502.518 167.851C502.418 166.651 502.218 165.551 502.018 164.451C499.918 153.051 492.918 146.051 481.218 143.751C437.918 130.051 386.118 124.451 348.218 120.351C342.318 119.651 336.718 119.051 331.718 118.551C314.118 116.551 293.518 121.751 273.518 133.251C253.318 144.851 236.018 161.551 224.918 180.351C219.618 190.251 206.518 212.751 182.218 243.951C180.018 246.751 177.818 249.551 175.418 252.551C169.518 259.851 163.118 267.451 156.118 275.551C155.218 276.551 154.318 277.651 153.318 278.651C152.318 279.751 151.518 280.851 150.718 282.051C146.418 288.751 145.318 296.651 147.518 305.251C152.118 322.951 170.318 341.851 195.018 354.551C218.118 366.551 244.918 379.951 272.318 386.151C301.218 392.651 327.618 390.451 353.118 379.351C366.018 374.151 382.518 362.051 400.618 344.251C417.918 327.351 435.518 306.551 451.618 284.151C452.118 283.451 452.618 282.751 453.118 282.051C454.618 279.851 456.218 277.751 457.718 275.551C471.518 255.451 482.818 235.751 490.618 218.051C491.218 216.351 491.918 214.851 492.618 213.351C498.318 199.851 501.618 188.151 502.518 178.251C502.718 174.451 502.818 170.951 502.518 167.851ZM489.918 217.551C482.018 235.251 470.618 255.151 456.718 275.451C455.218 277.651 453.718 279.751 452.218 281.951C451.818 282.451 451.418 283.051 451.018 283.551C435.018 305.851 417.418 326.651 400.118 343.551C382.018 361.251 365.718 373.351 352.818 378.551C327.518 389.551 301.218 391.751 272.518 385.351C245.318 379.151 218.418 365.851 195.518 353.851C171.018 341.351 152.918 322.651 148.418 305.051C146.518 298.351 146.918 292.051 149.218 286.451C149.918 284.851 150.718 283.351 151.718 281.951C152.418 280.951 153.218 279.951 154.018 278.951C154.918 277.951 156.018 276.751 157.118 275.451C161.818 270.051 168.218 262.551 175.518 253.551C177.718 250.851 180.018 247.951 182.318 245.051C184.618 242.051 187.018 239.051 189.418 235.851C204.818 215.551 216.918 196.951 225.618 180.651C236.718 161.951 253.918 145.351 274.018 133.851C293.918 122.351 314.418 117.251 331.818 119.251C336.818 119.851 342.518 120.451 348.418 121.051C386.218 125.151 437.918 130.751 481.218 144.451H481.318C492.718 146.751 499.518 153.451 501.518 164.551C501.718 165.851 501.918 167.251 502.018 168.651C502.218 171.851 502.118 175.451 501.718 179.251C500.218 189.951 496.318 202.951 489.918 217.551Z" fill="url(#paint6_linear_423_6169)"/>
<path d="M478.923 176.951C477.623 168.151 472.723 162.651 464.223 160.451C427.123 143.751 359.823 135.551 331.123 132.151C295.223 127.851 254.623 149.351 232.523 184.251C217.623 210.851 196.223 240.251 182.123 259.451C181.123 260.751 180.223 262.051 179.323 263.351C177.923 265.251 176.623 267.051 175.423 268.651C175.323 268.751 175.223 268.851 175.223 268.951C173.723 270.951 172.623 273.151 171.923 275.451C171.223 277.551 170.823 279.751 170.723 281.951C170.523 285.251 171.023 288.651 172.123 292.251C172.923 294.851 174.023 297.551 175.523 300.251C177.323 303.551 179.623 306.951 182.323 310.151C189.723 319.051 200.223 327.351 212.423 333.651C227.323 341.551 243.123 349.451 259.523 355.051C263.823 356.551 268.223 357.851 272.723 359.051C274.523 359.551 276.223 359.951 278.023 360.351C302.523 365.751 325.123 363.951 346.923 354.851C357.023 351.051 369.323 342.851 382.623 331.351C385.923 328.451 389.323 325.351 392.823 322.051C404.723 310.651 417.023 297.051 428.823 282.051C430.423 279.951 432.123 277.851 433.723 275.751C433.823 275.651 433.823 275.651 433.923 275.551C448.323 256.551 460.123 237.751 468.223 221.051C468.423 220.551 468.623 220.051 468.923 219.651C470.023 217.151 471.123 214.751 472.123 212.451C473.923 208.151 475.423 203.951 476.623 200.051C478.823 190.851 479.823 183.051 478.923 176.951ZM475.123 201.151C473.223 207.151 470.623 213.651 467.223 220.551C467.023 220.951 466.923 221.251 466.723 221.551C458.623 238.051 446.923 256.551 432.823 275.151C432.823 275.251 432.723 275.251 432.723 275.351C431.023 277.551 429.323 279.751 427.723 281.851C416.323 296.251 404.423 309.451 393.023 320.551C389.623 323.751 386.323 326.851 383.023 329.751C369.423 341.651 356.723 350.251 346.423 354.151C320.223 365.051 295.323 364.351 271.423 358.051C267.123 356.951 262.923 355.551 258.623 354.151C242.823 348.651 227.423 340.951 212.523 333.051C200.123 326.651 189.523 318.251 182.223 309.151C179.523 305.751 177.223 302.351 175.423 298.851C174.223 296.551 173.323 294.351 172.623 292.051C171.523 288.551 171.123 285.151 171.223 281.951C171.323 279.651 171.723 277.551 172.523 275.451C172.623 274.951 172.823 274.551 173.023 274.051C173.623 272.551 174.423 271.051 175.423 269.651C175.523 269.551 175.623 269.351 175.723 269.251C177.023 267.451 178.423 265.551 179.923 263.651C180.623 262.651 181.423 261.651 182.223 260.551C196.323 241.351 218.123 211.551 233.223 184.551C255.223 149.751 295.523 128.451 331.223 132.751C359.923 136.251 427.223 144.351 464.123 161.051H464.223H464.323C472.523 163.051 477.223 168.451 478.523 176.951C479.323 183.351 478.123 191.551 475.123 201.151Z" fill="url(#paint7_linear_423_6169)"/>
<path d="M456.224 189.451C455.824 183.251 452.824 179.051 447.424 177.251C438.424 170.151 420.724 163.351 394.924 157.251C376.124 152.751 352.724 148.551 330.624 145.751C295.124 141.351 261.324 157.151 240.324 188.251C233.724 199.451 226.524 210.951 219.524 222.151C210.524 236.551 202.024 250.151 196.924 259.551C194.424 264.251 193.824 269.751 195.224 275.551C195.724 277.651 196.424 279.851 197.424 282.051C198.224 283.951 199.224 285.751 200.424 287.651C206.624 297.451 217.124 306.551 229.224 312.851C233.824 315.351 238.124 317.551 242.124 319.551C244.924 320.951 247.624 322.151 250.124 323.351C265.324 330.251 275.424 332.951 282.924 334.551C303.124 338.851 321.824 337.551 340.024 330.451C353.624 325.851 371.424 313.051 389.824 295.151C392.224 292.851 394.524 290.451 396.924 288.051C403.024 281.751 409.124 274.851 415.024 267.651C432.024 247.151 444.424 227.651 451.024 211.951C454.924 202.851 456.624 195.251 456.224 189.451ZM414.724 267.051C408.924 274.151 403.024 280.751 397.024 286.951C394.724 289.451 392.324 291.751 390.024 294.051C371.524 312.151 353.624 325.151 339.924 329.751C321.724 336.751 303.224 338.151 283.124 333.851C271.524 331.351 260.224 327.151 250.024 322.551C247.324 321.351 244.624 320.051 242.024 318.751C237.524 316.551 233.424 314.351 229.524 312.251C217.424 306.051 207.024 296.851 201.024 287.251C199.924 285.451 198.924 283.651 198.124 281.951C197.124 279.751 196.324 277.551 195.824 275.451C194.624 270.451 194.924 265.651 196.724 261.451C196.924 260.851 197.224 260.251 197.524 259.751C202.524 250.451 211.024 236.851 220.024 222.451C227.024 211.251 234.124 199.751 240.824 188.651C261.824 157.851 295.424 142.051 330.624 146.451C352.724 149.251 376.124 153.451 394.824 157.951C420.524 164.151 438.124 170.851 447.024 177.851H447.124H447.224C452.324 179.651 455.224 183.551 455.624 189.551C456.724 205.351 441.024 235.051 414.724 267.051Z" fill="url(#paint8_linear_423_6169)"/>
<path d="M430.619 194.051C427.619 185.051 408.02 177.251 392.02 172.451C374.02 166.951 350.919 162.051 330.219 159.351C312.419 157.051 297.219 158.451 283.719 163.751C269.919 169.151 258.219 178.451 248.119 192.151C234.319 213.451 222.82 236.151 218.92 249.851C217.02 256.551 219.119 264.751 224.619 272.751C228.119 277.851 232.92 282.651 238.32 286.651C240.52 288.251 242.82 289.851 245.22 291.151C245.62 291.451 246.12 291.651 246.52 291.851C269.32 304.551 299.82 317.651 333.82 305.851C348.82 301.451 369.12 287.351 389.32 267.451C391.32 265.451 393.32 263.451 395.32 261.351C395.82 260.751 396.42 260.151 397.02 259.551C413.52 242.051 425.919 224.551 431.219 212.051C432.719 208.351 433.72 205.151 433.92 202.451C434.22 198.451 433.219 195.651 430.619 194.051ZM433.42 202.351C432.42 214.351 417.919 236.651 396.719 259.251C396.219 259.751 395.82 260.251 395.32 260.751C393.32 262.851 391.32 264.851 389.32 266.851C369.12 286.851 348.82 301.051 333.719 305.351C299.919 317.051 269.62 304.051 246.82 291.451C246.32 291.151 245.82 290.851 245.22 290.551C242.82 289.251 240.52 287.651 238.32 286.051C233.12 282.151 228.52 277.451 225.02 272.451C219.52 264.451 217.52 256.551 219.32 249.951C220.32 246.651 221.72 242.751 223.52 238.451C229.02 225.251 238.02 208.451 248.42 192.451C258.52 178.851 270.12 169.651 283.82 164.251C297.22 158.951 312.42 157.551 330.02 159.851C368.62 164.951 425.12 178.951 430.02 194.251V194.351L430.119 194.451C432.719 195.851 433.72 198.551 433.42 202.351Z" fill="url(#paint9_linear_423_6169)"/>
<path d="M413.821 203.151C409.421 195.351 393.121 188.751 380.321 184.451C365.021 179.351 346.121 175.051 329.821 172.851C311.321 170.351 298.221 170.651 287.221 173.951C275.521 177.351 265.521 184.351 255.921 196.051C245.721 209.651 239.821 227.051 240.821 240.251C241.021 242.751 241.721 245.451 242.821 247.951C244.021 250.851 245.721 253.751 247.721 256.551C252.121 262.551 258.121 267.851 263.721 270.951C285.221 283.551 306.621 287.051 327.521 281.351C335.821 279.451 345.521 275.151 356.221 268.551C365.521 262.851 375.321 255.551 384.521 247.351C384.721 247.151 385.021 246.951 385.221 246.751C387.121 245.151 388.921 243.451 390.721 241.851C402.121 231.251 410.321 221.151 412.921 214.951C413.621 213.351 413.921 212.051 413.721 211.051C415.321 208.451 415.321 205.851 413.821 203.151ZM413.321 210.851C413.421 211.851 413.121 213.151 412.521 214.651C409.921 220.751 401.621 230.751 390.521 241.251C388.721 242.951 386.921 244.551 385.121 246.251C367.721 261.651 345.321 276.851 327.321 280.951C306.621 286.651 285.321 283.151 263.921 270.651C258.121 267.451 252.121 262.151 247.721 255.951C245.721 253.151 244.021 250.151 242.921 247.151C242.021 244.851 241.421 242.551 241.321 240.251C240.321 227.051 246.221 209.851 256.321 196.251C265.921 184.651 275.821 177.651 287.421 174.351C298.321 171.151 311.421 170.851 329.821 173.351C346.121 175.551 365.021 179.851 380.221 184.951C393.021 189.151 409.121 195.751 413.421 203.451C414.921 205.951 414.921 208.451 413.321 210.851Z" fill="url(#paint10_linear_423_6169)"/>
<path d="M402.818 216.751C401.518 212.551 395.618 205.851 375.018 198.151C361.318 192.951 344.218 188.651 329.218 186.551C311.618 184.051 300.218 182.651 290.518 184.151C280.518 185.751 272.718 190.351 263.518 200.051C258.918 204.951 256.918 210.551 257.518 216.751C257.618 217.351 257.618 217.951 257.818 218.651C258.218 220.851 258.918 223.051 259.818 225.151C265.018 237.551 277.518 247.951 280.918 250.151C288.318 255.051 297.618 257.551 308.718 257.651C318.318 257.751 329.218 256.051 341.118 252.751C355.518 248.651 369.718 242.451 381.418 236.451C383.418 235.351 385.418 234.351 387.318 233.251C390.818 231.351 393.918 229.451 396.718 227.751C399.718 225.751 401.718 223.751 402.618 221.651C403.318 220.051 403.418 218.451 402.818 216.751ZM396.618 227.351C393.918 229.051 390.818 230.951 387.318 232.851C385.418 233.851 383.518 234.951 381.418 236.051C369.718 242.051 355.518 248.251 341.118 252.351C329.218 255.751 318.318 257.351 308.818 257.251C297.818 257.151 288.518 254.651 281.218 249.851C277.818 247.651 265.318 237.151 260.218 224.751C259.418 222.751 258.718 220.651 258.418 218.551C258.318 217.751 258.218 217.051 258.118 216.251C257.918 213.051 258.418 209.951 259.618 207.051C260.618 204.651 262.118 202.351 264.118 200.251C273.218 190.551 280.918 186.051 290.818 184.451C300.418 182.951 311.718 184.351 329.418 186.851C356.618 190.651 398.318 203.551 402.518 216.851C403.618 220.651 401.718 224.151 396.618 227.351Z" fill="url(#paint11_linear_423_6169)"/>
</g>
<path d="M182.12 275.451V143.351H174.82L65.8203 275.951V281.951H175.32V300.151C177.12 303.451 179.42 306.851 182.12 310.051V281.851H221.82V275.351H182.12V275.451ZM74.8203 275.451L175.32 152.951V275.451H74.8203Z" fill="url(#paint12_linear_423_6169)"/>
<path d="M395.42 261.351C395.42 261.151 395.32 260.951 395.32 260.751C394.32 254.051 392.72 247.751 390.82 241.751C390.82 241.551 390.72 241.451 390.62 241.351C389.72 238.551 388.62 235.851 387.52 233.351C387.42 233.251 387.42 233.051 387.32 232.951C384.42 226.651 381.02 220.851 376.82 215.551C363.32 198.251 343.62 189.651 317.72 189.651C291.82 189.651 272.12 198.251 258.62 215.451C258.42 215.751 258.22 215.951 258.02 216.251C257.92 216.351 257.82 216.551 257.62 216.751C251.02 225.451 246.12 235.651 242.92 247.251C242.82 247.551 242.82 247.751 242.72 248.051C239.72 259.051 238.32 271.251 238.32 284.851C238.32 285.251 238.32 285.651 238.32 286.051V286.751C238.42 298.451 239.72 309.151 242.02 318.851C242.02 319.051 242.12 319.351 242.22 319.551C245.52 332.951 251.02 344.451 258.62 354.151C258.82 354.451 259.12 354.751 259.32 355.051C263.62 356.551 268.02 357.851 272.52 359.051C272.12 358.751 271.82 358.451 271.42 358.051C268.62 355.551 265.92 352.751 263.52 349.651C257.72 342.151 253.32 333.351 250.32 323.351C250.22 323.151 250.22 322.851 250.12 322.651C247.32 313.251 245.72 302.851 245.32 291.251C245.32 291.051 245.32 290.851 245.32 290.651C245.22 288.751 245.22 286.851 245.22 284.851C245.22 274.651 246.02 265.251 247.82 256.651C247.82 256.451 247.92 256.251 247.92 256.051C250.32 244.251 254.32 233.951 260.02 225.151C260.12 225.051 260.22 224.851 260.22 224.751C261.32 223.151 262.42 221.551 263.62 220.051C275.82 204.251 293.92 196.251 317.82 196.251C341.72 196.251 359.82 204.151 372.02 220.051C375.72 224.851 378.92 230.251 381.52 236.151C381.52 236.251 381.62 236.351 381.72 236.551C383.02 239.651 384.22 242.951 385.32 246.451C385.32 246.551 385.42 246.651 385.42 246.851C387.32 253.051 388.62 259.751 389.42 266.951C389.42 267.151 389.42 267.351 389.52 267.651C390.12 273.151 390.42 278.951 390.42 284.951C390.42 288.151 390.32 291.251 390.12 294.251C390.12 294.551 390.12 294.851 390.12 295.151C389.32 308.251 387.02 319.851 383.12 329.951C382.92 330.451 382.72 330.951 382.52 331.451C385.82 328.551 389.22 325.451 392.72 322.151C392.82 321.751 393.02 321.251 393.12 320.751C395.72 310.851 397.02 299.951 397.22 288.051C397.22 287.751 397.22 287.451 397.22 287.151C397.22 286.451 397.22 285.651 397.22 284.951C397.12 276.451 396.52 268.651 395.42 261.351Z" fill="url(#paint13_linear_423_6169)"/>
<path d="M529.916 275.451V143.351H522.616L522.316 143.651L521.716 144.351L502.416 167.851L501.716 168.651L476.016 199.951L475.016 201.251L413.516 276.051V282.051H523.016V319.751C523.516 318.951 524.016 318.151 524.516 317.351C526.316 314.551 528.116 311.751 529.816 308.951V282.051H545.816C547.016 279.851 548.316 277.751 549.416 275.551H529.916V275.451ZM523.116 275.451H422.616L466.716 221.651L468.516 219.451L501.516 179.251L502.416 178.151L523.216 152.851V275.451H523.116Z" fill="url(#paint14_linear_423_6169)"/>
<defs>
<linearGradient id="paint0_linear_423_6169" x1="-18.0285" y1="560.187" x2="741.196" y2="-19.8364" gradientUnits="userSpaceOnUse">
<stop offset="0.0472475" stop-color="#F2F2F2" stop-opacity="0.44"/>
<stop offset="0.5677" stop-color="#F2F2F2" stop-opacity="0.84"/>
<stop offset="1" stop-color="#F2F2F2" stop-opacity="0"/>
</linearGradient>
<linearGradient id="paint1_linear_423_6169" x1="8.53491" y1="533.415" x2="705.544" y2="-3.11605" gradientUnits="userSpaceOnUse">
<stop offset="0.0472475" stop-color="#F2F2F2" stop-opacity="0.44"/>
<stop offset="0.5677" stop-color="#F2F2F2" stop-opacity="0.84"/>
<stop offset="1" stop-color="#F2F2F2" stop-opacity="0"/>
</linearGradient>
<linearGradient id="paint2_linear_423_6169" x1="35.1873" y1="506.529" x2="669.921" y2="13.6097" gradientUnits="userSpaceOnUse">
<stop offset="0.0472475" stop-color="#F2F2F2" stop-opacity="0.44"/>
<stop offset="0.5677" stop-color="#F2F2F2" stop-opacity="0.84"/>
<stop offset="1" stop-color="#F2F2F2" stop-opacity="0"/>
</linearGradient>
<linearGradient id="paint3_linear_423_6169" x1="61.5927" y1="479.753" x2="634.17" y2="30.3517" gradientUnits="userSpaceOnUse">
<stop offset="0.0472475" stop-color="#F2F2F2" stop-opacity="0.44"/>
<stop offset="0.5677" stop-color="#F2F2F2" stop-opacity="0.84"/>
<stop offset="1" stop-color="#F2F2F2" stop-opacity="0"/>
</linearGradient>
<linearGradient id="paint4_linear_423_6169" x1="88.2336" y1="453.109" x2="598.611" y2="47.3209" gradientUnits="userSpaceOnUse">
<stop offset="0.0472475" stop-color="#F2F2F2" stop-opacity="0.44"/>
<stop offset="0.5677" stop-color="#F2F2F2" stop-opacity="0.84"/>
<stop offset="1" stop-color="#F2F2F2" stop-opacity="0"/>
</linearGradient>
<linearGradient id="paint5_linear_423_6169" x1="114.707" y1="426.203" x2="562.803" y2="63.9476" gradientUnits="userSpaceOnUse">
<stop offset="0.0472475" stop-color="#F2F2F2" stop-opacity="0.44"/>
<stop offset="0.5677" stop-color="#F2F2F2" stop-opacity="0.84"/>
<stop offset="1" stop-color="#F2F2F2" stop-opacity="0"/>
</linearGradient>
<linearGradient id="paint6_linear_423_6169" x1="141.363" y1="399.593" x2="527.218" y2="81.0378" gradientUnits="userSpaceOnUse">
<stop offset="0.0472475" stop-color="#F2F2F2" stop-opacity="0.44"/>
<stop offset="0.5677" stop-color="#F2F2F2" stop-opacity="0.84"/>
<stop offset="1" stop-color="#F2F2F2" stop-opacity="0"/>
</linearGradient>
<linearGradient id="paint7_linear_423_6169" x1="167.95" y1="372.914" x2="491.374" y2="97.9703" gradientUnits="userSpaceOnUse">
<stop offset="0.0472475" stop-color="#F2F2F2" stop-opacity="0.44"/>
<stop offset="0.5677" stop-color="#F2F2F2" stop-opacity="0.84"/>
<stop offset="1" stop-color="#F2F2F2" stop-opacity="0"/>
</linearGradient>
<linearGradient id="paint8_linear_423_6169" x1="193.896" y1="346.27" x2="457.817" y2="114.083" gradientUnits="userSpaceOnUse">
<stop offset="0.0472475" stop-color="#F2F2F2" stop-opacity="0.44"/>
<stop offset="0.5677" stop-color="#F2F2F2" stop-opacity="0.84"/>
<stop offset="1" stop-color="#F2F2F2" stop-opacity="0"/>
</linearGradient>
<linearGradient id="paint9_linear_423_6169" x1="219.559" y1="320.094" x2="426.695" y2="129.177" gradientUnits="userSpaceOnUse">
<stop offset="0.0472475" stop-color="#F2F2F2" stop-opacity="0.44"/>
<stop offset="0.5677" stop-color="#F2F2F2" stop-opacity="0.84"/>
<stop offset="1" stop-color="#F2F2F2" stop-opacity="0"/>
</linearGradient>
<linearGradient id="paint10_linear_423_6169" x1="246.146" y1="296.718" x2="397.406" y2="143.855" gradientUnits="userSpaceOnUse">
<stop offset="0.0472475" stop-color="#F2F2F2" stop-opacity="0.44"/>
<stop offset="0.5677" stop-color="#F2F2F2" stop-opacity="0.84"/>
<stop offset="1" stop-color="#F2F2F2" stop-opacity="0"/>
</linearGradient>
<linearGradient id="paint11_linear_423_6169" x1="278.668" y1="276.899" x2="374.025" y2="161.732" gradientUnits="userSpaceOnUse">
<stop offset="0.0472475" stop-color="#F2F2F2" stop-opacity="0.44"/>
<stop offset="0.5677" stop-color="#F2F2F2" stop-opacity="0.84"/>
<stop offset="1" stop-color="#F2F2F2" stop-opacity="0"/>
</linearGradient>
<linearGradient id="paint12_linear_423_6169" x1="143.82" y1="143.351" x2="137.716" y2="345.14" gradientUnits="userSpaceOnUse">
<stop stop-color="white"/>
<stop offset="1" stop-color="white" stop-opacity="0"/>
</linearGradient>
<linearGradient id="paint13_linear_423_6169" x1="317.77" y1="189.651" x2="311.581" y2="394.709" gradientUnits="userSpaceOnUse">
<stop stop-color="white"/>
<stop offset="1" stop-color="white" stop-opacity="0"/>
</linearGradient>
<linearGradient id="paint14_linear_423_6169" x1="481.466" y1="143.351" x2="473.622" y2="356.789" gradientUnits="userSpaceOnUse">
<stop stop-color="white"/>
<stop offset="1" stop-color="white" stop-opacity="0"/>
</linearGradient>
</defs>
</svg>
