<svg width="483" height="1089" viewBox="0 0 483 1089" fill="none" xmlns="http://www.w3.org/2000/svg">
<g opacity="0.3">
<path d="M722.461 709.396C724.659 719.895 726.281 730.255 727.329 740.477C733.071 797.909 707.063 822.329 647.976 815.221C596.73 809.051 528.554 780.253 468.456 754.837C428.329 737.884 390.395 721.849 363.933 715.407C275.92 693.997 259.379 704.089 249.549 710.164C243.724 713.636 239.937 715.974 225.494 709.57C211.35 703.292 187.355 666.903 149.939 595.09C133.792 564.025 138.643 547.204 142.551 533.708C144.5 526.932 146.183 521.064 144.863 514.753L145.86 515.171L144.863 514.753C141.128 497.344 136.743 491.177 127.177 477.644C119.182 466.399 107.06 449.35 88.6145 415.999C72.2663 386.583 61.9072 347.089 61.4676 312.818C61.2029 293.295 63.9646 276.057 69.7579 261.567C76.2806 245.344 86.3329 232.942 99.8089 224.725C124.835 209.523 160.805 208.788 206.728 222.563C252.064 236.143 299.8 256.842 348.716 284.047C397.333 311.127 444.542 343.223 489.078 379.498C553.911 432.322 609.724 491.61 650.343 550.906C672.077 582.577 689.532 614.24 702.282 645.155C711.295 666.915 718.078 688.454 722.461 709.396ZM141.986 569.698C143.54 577.125 146.497 585.598 151.787 595.66C168.814 628.315 182.748 653.154 194.534 671.642C211.501 698.362 220.649 706.421 225.36 708.495C238.706 714.439 241.836 712.438 247.637 708.854C257.643 702.751 274.237 692.477 363.024 714.109C389.774 720.621 427.807 736.698 468.135 753.734C528.021 779.011 595.909 807.739 646.78 813.854C705.303 820.879 730.971 796.571 725.322 739.586C722.303 709.075 713.874 677.064 700.422 644.53C687.684 613.67 670.24 582.063 648.63 550.545C608.146 491.459 552.556 432.365 487.957 379.793C443.644 343.713 396.646 311.757 348.44 284.899C299.823 257.819 252.398 237.301 207.449 223.832C161.901 210.113 126.295 210.848 101.61 225.938C88.2099 234.085 78.1459 246.43 71.7113 262.64C65.9062 277.074 63.1446 294.312 63.3859 313.723C63.9018 347.924 74.2375 387.306 90.3512 416.471C108.785 449.767 120.895 466.76 128.791 477.963C138.48 491.649 142.976 497.914 146.757 515.547C146.769 515.603 146.769 515.603 146.781 515.658C148.125 522.081 146.453 528.004 144.505 534.78C141.832 543.75 138.76 554.284 141.986 569.698Z" fill="url(#paint0_linear_380_5883)"/>
<path d="M686.455 693.696C688.234 702.206 689.638 710.659 690.555 718.959C696.682 771.32 674.588 794.469 622.976 789.597C578.143 785.376 517.68 760.804 464.275 739.094C427.084 723.988 391.976 709.705 367.399 704.44C288.683 687.013 272.379 696.508 262.656 702.229C256.732 705.665 252.933 707.951 238.909 701.807C231.005 698.386 219.866 686.457 205.738 666.329C193.024 648.173 178.54 624.167 163.718 596.802C148.087 568.179 151.313 552.273 153.926 539.532C155.185 533.371 156.257 528.051 155.151 522.327C151.457 504.231 147.916 498.607 137.648 482.142C130.687 471.049 121.129 455.801 106.624 429.08C91.7018 401.673 82.1677 364.784 81.558 332.715C81.1811 314.377 83.72 298.234 88.9691 284.608C94.8823 269.372 104.192 257.757 116.604 250.101C139.009 236.274 171.209 235.344 212.41 247.436C253.823 259.668 297.598 278.407 342.36 303.178C386.912 327.809 430.264 357.145 471.224 390.277C530.383 438.199 581.41 492.052 618.819 546.059C638.764 574.86 654.906 603.749 666.805 631.929C675.737 652.889 682.241 673.543 686.455 693.696ZM155.018 570.425C156.598 577.982 159.803 586.784 165.555 597.318C196.858 655.196 224.897 694.851 238.798 700.841C251.825 706.566 255.306 704.505 261.142 701.083C270.942 695.291 287.41 685.713 366.701 703.279C391.466 708.572 426.762 722.882 464.164 738.128C517.369 759.754 577.545 784.257 622.003 788.422C673.051 793.211 694.904 770.216 688.847 718.191C685.741 690.282 677.722 661.076 665.244 631.427C653.357 603.303 637.227 574.47 617.405 545.823C580.13 492.025 529.338 438.424 470.391 390.641C429.641 357.649 386.601 328.495 342.26 304.004C297.708 279.373 254.321 260.745 213.208 248.639C172.593 236.742 140.646 237.575 118.405 251.317C101.953 261.413 82.6423 283.943 83.5648 333.608C84.151 365.566 93.7499 402.329 108.548 429.582C123.054 456.303 132.6 471.495 139.461 482.546C149.582 498.745 153.406 504.845 157.134 523.108C158.352 528.93 157.192 534.265 155.944 540.482C154.144 548.407 152.348 557.661 155.018 570.425Z" fill="url(#paint1_linear_380_5883)"/>
<path d="M650.624 677.664C651.996 684.233 653.091 690.788 653.899 697.273C660.319 744.578 642.025 766.365 597.884 763.744C559.461 761.483 506.596 741.054 459.86 722.95C425.803 709.778 393.53 697.308 371.046 693.365C301.7 679.868 285.641 688.822 276.112 694.178C269.999 697.594 266.012 699.857 252.406 693.97C233.869 686.263 200.615 639.02 177.568 598.381C162.318 571.986 164.008 556.978 165.415 544.974C165.998 539.484 166.569 534.809 165.613 529.798C161.599 509.263 159.105 504.73 145.329 479.724C140.083 470.294 133.629 458.562 124.899 442.031C115.911 425.135 108.855 403.985 104.917 382.509C100.504 358.324 100.658 335.96 105.108 317.609C110.41 295.93 121.616 280.732 138.444 272.409C157.979 262.667 184.813 262.605 218.097 272.071C255.678 282.937 295.317 299.741 336.117 322.102C376.705 344.324 416.189 370.842 453.499 400.899C506.996 443.972 553.236 492.386 587.423 541.046C620.231 587.896 641.456 633.759 650.624 677.664ZM167.561 570.508C169.191 578.312 172.569 587.519 179.129 598.885C206.518 647.242 237.274 686.878 252.23 693.128C264.938 698.636 268.608 696.598 274.632 693.196C284.239 687.771 300.462 678.732 370.283 692.327C393.043 696.283 425.427 708.852 459.672 722.052C506.11 740.029 558.775 760.375 596.921 762.621C640.598 765.201 658.652 743.569 652.291 696.545C645.92 646.853 623.598 594.436 585.908 540.766C551.956 492.358 505.84 444.1 452.565 401.223C415.478 371.362 376.206 344.984 335.829 322.903C295.34 300.723 255.9 284.004 218.607 273.208C185.699 263.798 159.24 263.915 139.87 273.573C123.218 281.868 112 297.01 106.774 318.619C102.313 336.914 102.247 359.263 106.537 383.294C110.463 404.714 117.495 425.752 126.372 442.55C135.103 459.081 141.545 470.756 146.79 480.186C160.69 505.347 163.283 509.921 167.333 530.625C168.3 535.692 167.841 540.466 167.17 545.969C166.393 552.708 165.439 560.346 167.561 570.508Z" fill="url(#paint2_linear_380_5883)"/>
<path d="M614.811 662.117C615.762 666.68 616.525 671.215 617.189 675.707C624.022 718.097 609.418 738.425 572.54 737.931C540.32 737.505 497.019 721.915 455.08 706.747C424.269 695.618 395.143 685.15 374.667 682.551C314.683 672.953 299.615 681.014 289.632 686.397C283.09 689.949 279.067 692.048 265.79 686.434C248.902 679.651 216.166 641.819 191.305 600.281C176.191 575.809 176.42 561.626 176.509 550.261C176.609 545.937 176.656 541.796 175.887 537.67L175.54 535.572C171.043 511.378 170.732 509.448 142.9 455.404C135.096 440.239 128.502 420.397 124.938 401.118C120.852 378.895 120.548 358.22 124.306 341.319C128.676 321.234 138.348 306.936 153.076 298.987C170.246 289.658 193.97 289.058 223.618 297.231C257.266 306.683 292.956 321.571 329.692 341.473C366.217 361.234 401.93 384.967 435.677 411.926C483.499 450.076 525.06 493.13 555.823 536.342C586.528 579.273 606.356 621.559 614.811 662.117ZM179.603 569.907C181.305 578.075 185.016 588.016 192.843 600.675C217.006 641.045 249.701 679.116 265.603 685.532C278.081 690.809 281.839 688.752 288.228 685.341C297.641 680.282 313.432 671.756 373.804 681.467C394.568 684.136 423.793 694.646 454.704 705.818C496.431 720.845 539.644 736.449 571.501 736.875C607.914 737.327 622.367 717.14 615.592 675.032C609.028 630.445 588.448 583.68 554.473 535.976C523.733 492.877 482.406 450.076 434.808 412.123C401.284 385.361 365.782 361.769 329.457 342.093C292.933 322.332 257.542 307.57 224.182 298.188C194.921 290.128 171.462 290.686 154.456 299.93C139.816 307.865 130.22 322.092 125.827 342.065C122.157 358.952 122.35 379.528 126.424 401.695C129.976 420.918 136.546 440.647 144.35 455.812C172.206 509.969 172.517 511.898 177.038 536.205L177.384 538.303C178.165 542.486 178.118 546.627 178.029 551.007C178.164 556.457 178.041 562.415 179.603 569.907Z" fill="url(#paint3_linear_380_5883)"/>
<path d="M579.139 646.431C579.657 648.92 580.086 651.424 580.516 653.927C596.498 737.77 518.474 712.402 449.715 689.99C422.374 681.105 396.583 672.672 378.226 671.524C327.57 665.677 312.946 673.284 303.244 678.29C296.349 681.909 292.161 684.101 279.201 678.697C271.081 675.556 258.472 665.711 244.828 651.764C230.278 636.968 216.221 619.287 205.16 602.003C189.574 578.721 188.401 565.639 187.369 554.112C187.098 551.057 186.862 548.172 186.35 545.272C185.62 540.888 185.107 537.111 184.601 533.802C182.505 518.47 181.315 509.249 161.088 468.471C148.215 442.474 137.234 398.87 143.578 364.587C147.102 346.074 155.263 332.781 167.867 325.088C182.573 316.123 203.296 315.079 229.298 321.9C259.112 329.979 290.755 342.91 323.527 360.395C356.1 377.795 387.945 398.703 418.117 422.51C460.176 455.752 497.037 493.335 524.588 531.242C552.95 570.422 571.396 609.205 579.139 646.431ZM190.534 567.577C192.381 576.459 196.35 587.222 206.499 602.314C230.343 639.472 263.861 671.92 279.024 677.848C291.285 682.955 295.308 680.849 302.051 677.37C311.742 672.308 326.442 664.63 377.374 670.492C395.919 671.668 421.798 680.087 449.239 689.014C484.106 700.376 520.037 712.034 545.901 710.75C575.259 709.198 586.097 690.389 579.006 653.234C572.261 613.802 553.509 572.671 523.149 530.888C495.733 493.193 459.083 455.751 417.248 422.708C387.287 399.042 355.653 378.276 323.293 361.017C290.832 343.716 259.389 330.87 229.862 322.861C196.541 314.117 154.705 314.338 145.1 365.337C138.644 399.52 149.59 442.956 162.451 468.896C182.702 509.786 184.003 519.107 186.011 534.453C186.429 537.776 186.93 541.496 187.76 545.923C188.283 548.879 188.519 551.764 188.791 554.819C189.25 558.779 189.557 562.881 190.534 567.577Z" fill="url(#paint4_linear_380_5883)"/>
<path d="M544.478 634.695C550.86 665.461 543.198 682.087 521.116 685.399C500.973 688.4 471.907 680.435 443.705 672.683C420.234 666.228 398.027 660.158 381.978 660.503C340.71 658.259 326.718 665.442 317.507 670.213C310.093 673.989 305.652 676.289 292.808 671.007C275.619 664.542 240.407 634.411 219.021 603.764C201.155 579.544 199.041 566.72 196.91 554.252L196.715 552.873C195.753 546.916 195.59 542.183 195.364 537.577C194.913 525.309 194.417 513.695 179.271 481.516C168.128 458.096 158.331 418.771 162.968 387.998C166.873 362.044 182.507 333.794 234.901 346.65C286.662 359.961 347.022 391.458 400.361 433.016C436.754 461.37 468.736 493.489 492.961 525.972C519.457 561.499 536.421 596.735 543.464 630.685C543.547 631.084 543.629 631.482 543.712 631.88C544 632.832 544.289 633.785 544.478 634.695ZM199.614 562.456C201.761 572.806 205.984 584.821 220.173 604.049C243 636.815 277.641 664.629 292.466 670.239C304.711 675.265 308.976 672.993 316.237 669.359C325.536 664.575 339.629 657.434 381.073 659.65C397.298 659.276 419.605 665.389 443.175 671.887C471.177 679.553 500.156 687.532 520.022 684.517C542.545 681.134 549.866 663.74 542.524 631.424C542.442 631.026 542.359 630.628 542.277 630.23C535.257 596.393 518.317 561.271 491.945 525.9C467.843 493.574 435.984 461.611 399.803 433.399C373.407 412.841 345.544 394.869 317.136 379.981C288.64 365.108 261.147 354.187 235.455 347.56C183.624 334.79 168.143 362.897 164.302 388.724C159.654 419.44 169.516 458.637 180.57 482.071C195.839 514.406 196.248 526.035 196.81 538.402C197.037 543.008 197.187 547.685 198.15 553.642L198.345 555.021C198.652 557.381 199.071 559.84 199.614 562.456Z" fill="url(#paint5_linear_380_5883)"/>
<path d="M509.208 618.103C513.895 640.772 509.074 654.029 494.621 658.604C480.257 663.164 458.037 658.815 436.481 654.596C418.061 650.996 399.076 647.309 385.561 649.367C353.728 650.529 340.631 657.251 331.988 661.718C323.914 665.857 319.055 668.355 306.148 663.217C289.894 657.316 253.299 631.917 232.808 605.522C216.589 586.129 208.892 572.699 207 560.463C206.127 554.038 206.544 549.002 206.989 543.666C207.939 532.393 208.893 520.705 197.387 494.579C188.016 473.492 179.302 438.399 182.253 411.246C184.756 387.656 196.858 361.574 240.594 371.273C284.771 381.787 336.679 408.093 382.988 443.462C413.613 466.865 440.913 493.583 461.823 520.68C484.97 550.669 500.174 580.577 507.192 609.673C507.884 612.578 508.652 615.412 509.208 618.103ZM208.685 563.327C211.052 574.776 218.731 587.677 233.86 605.766C254.104 631.846 290.063 656.815 305.929 662.601C318.236 667.481 322.778 665.212 330.928 661.002C339.56 656.477 352.745 649.74 384.666 648.564C398.369 646.536 417.442 650.208 435.863 653.808C457.218 657.941 479.35 662.304 493.538 657.773C509.531 652.713 513.531 636.808 505.816 609.185C498.809 580.146 483.629 550.353 460.593 520.464C439.808 493.525 412.731 467.007 382.319 443.748C336.332 408.622 284.837 382.546 241.036 372.089C197.876 362.534 185.928 388.473 183.389 411.892C180.526 439.03 189.216 474.008 198.475 494.995C209.994 521.178 209.051 532.924 208.125 544.311C207.679 549.648 207.263 554.683 208.124 561.051C208.478 561.882 208.531 562.583 208.685 563.327Z" fill="url(#paint6_linear_380_5883)"/>
<path d="M474.634 603.001C482.186 639.533 455.765 638.225 427.951 636.787C414.232 636.097 400.048 635.363 389.352 639.156C367.025 643.106 355.884 649.16 347.782 653.601C338.363 658.726 333.198 661.51 319.938 656.427C311.102 653.353 297.451 646.38 284.469 638.235C268.679 628.411 255.388 617.89 247.108 608.691C231.358 592.886 219.216 579.99 217.95 569.899C217.177 563.515 218.352 558.178 219.644 552.527C221.899 542.283 224.424 530.694 216.117 509.903C210.306 495.456 200.779 463.916 202.125 437.37C202.829 423.589 206.42 413.189 212.802 406.6C220.295 398.767 231.693 396.162 246.755 398.944C283.304 406.49 326.797 427.354 366.126 456.285C390.947 474.535 413.431 495.587 430.906 517.091C450.213 540.844 463.657 564.89 470.722 588.484C472.364 593.781 473.734 598.649 474.634 603.001ZM218.999 571.446C221.023 581.237 232.682 593.56 247.738 608.649C266.764 629.726 304.689 650.54 319.608 655.711C332.468 660.622 337.545 657.852 346.711 652.826C354.901 648.372 366.03 642.261 388.357 638.311C399.142 634.503 413.313 635.18 427.132 635.913C442.886 636.749 457.699 637.441 466.523 631.642C476.563 625.114 477.42 611.19 469.221 587.838C462.169 564.301 448.836 540.356 429.553 516.717C412.202 495.371 389.941 474.519 365.221 456.312C326.215 427.625 283.122 406.933 246.862 399.459C232.087 396.75 220.866 399.326 213.45 407.087C207.155 413.662 203.553 424.005 202.837 437.728C201.479 464.217 210.994 495.7 216.793 510.09C225.236 531.096 222.623 542.699 220.367 552.943C219.164 558.58 217.989 563.917 218.65 570.2C218.845 570.701 218.928 571.102 218.999 571.446Z" fill="url(#paint7_linear_380_5883)"/>
<path d="M441.459 588.803C446.015 610.835 432.82 614.438 417.05 618.809C408.763 621.031 400.234 623.409 393.015 628.592C380.351 633.883 372.15 639.165 365.546 643.362C354.19 650.571 348.004 654.583 333.415 649.244C317.269 643.86 278.093 626.691 261.016 611.523C259.71 610.491 258.403 609.46 257.108 608.486C243.418 597.799 229.192 586.725 228.4 578.928C227.875 572.863 230.008 567.316 232.246 561.397C235.826 551.833 239.963 540.996 234.439 524.855C228.354 507.326 200.7 420.3 252.515 426.328C281.496 430.769 316.759 446.203 349.191 468.656C368.541 482.039 385.582 497.036 399.844 513.13C415.407 530.671 426.79 548.707 433.81 566.795C437.732 575.625 440.229 582.851 441.459 588.803ZM229.454 580.06C231.004 587.557 244.471 598.043 257.614 608.286C258.92 609.318 260.227 610.349 261.634 611.424L261.734 611.467C278.575 626.377 317.25 643.331 333.297 648.672C347.498 653.895 353.596 649.898 364.787 642.775C371.379 638.52 379.592 633.295 392.256 628.005C399.463 622.764 408.104 620.486 416.379 618.208C436.299 612.754 451.992 608.454 432.934 566.522C425.926 548.491 414.554 530.512 399.203 513.115C385.053 497.121 368.136 482.282 348.998 469.042C316.877 446.775 281.914 431.471 253.221 427.101C232.586 424.687 222.295 437.047 222.718 463.766C223.119 487.295 231.78 514.64 235.439 525.286C240.987 541.541 236.862 552.435 233.294 562.057C231.044 567.918 229.011 573.508 229.524 579.516C229.36 579.602 229.407 579.831 229.454 580.06Z" fill="url(#paint8_linear_380_5883)"/>
<path d="M412.386 577.918C415.085 590.975 409.85 598.267 402.743 608.406C400.695 611.28 398.57 614.226 396.464 617.701C394.274 619.888 392.136 621.889 390.263 623.847C373.316 640.6 365.612 648.29 346.863 641.782C333.016 637.385 290.861 623.876 275.083 614.109C258.413 605.314 239.306 594.426 238.903 587.627C238.648 581.988 241.904 576.138 245.353 569.902C250.192 561.135 255.7 551.195 252.72 539.426C252.17 537.207 251.426 534.486 250.486 531.265C246.906 518.35 241.511 498.864 240.612 482.618C239.616 463.251 245.588 453.355 258.313 453.2C279.482 454.229 307.362 464.355 332.991 480.347C361.339 498.031 384.114 520.932 396.983 544.836C405.911 559.375 410.705 569.786 412.386 577.918ZM239.621 588.458C240.971 594.987 259.142 605.315 274.989 613.651L275.089 613.694C290.666 623.375 332.709 636.783 346.469 641.195C364.817 647.53 372.445 639.912 389.316 623.231C391.289 621.315 393.326 619.271 395.517 617.084C397.735 613.709 399.748 610.663 401.796 607.789C413.357 591.43 419.796 582.465 395.806 544.434C383.061 520.687 360.51 497.987 332.386 480.503C307.08 464.755 279.489 454.701 258.596 453.687C246.048 453.813 240.24 463.624 241.213 482.876C241.999 499.022 247.494 518.551 251.075 531.466C251.902 534.587 252.747 537.351 253.308 539.627C256.312 551.51 250.715 561.465 245.888 570.289C242.427 576.468 239.272 582.361 239.515 587.943C239.55 588.115 239.586 588.286 239.621 588.458Z" fill="url(#paint9_linear_380_5883)"/>
<path d="M398.555 581.855C400.128 589.454 400.219 596.937 398.988 604.633C391.175 630.272 379.303 638.499 359.301 632.094C350.162 629.314 332.832 625.253 317.608 621.681C305.541 618.84 294.05 616.143 288.152 614.494C283.088 613.361 275.931 610.911 268.943 607.961C261.256 604.711 255.091 601.334 251.707 598.632C249.53 596.916 248.505 595.486 248.433 594.258C248.439 589.003 253.223 582.625 258.4 575.947C264.487 567.942 270.704 559.68 270.124 552.04C269.814 547.898 267.683 540.684 265.216 532.284C259.189 511.528 250.926 483.043 263.19 478.472C276.178 475.202 296.577 479.123 316.288 488.527C332.876 496.485 347.675 507.683 359.066 520.905C375.117 537.274 385.55 550.709 391.949 563.14C394.972 569.384 397.266 575.627 398.555 581.855ZM249.016 594.873C249.217 595.844 250.194 597.045 251.836 598.375C258.927 604.023 277.454 611.669 287.669 613.922C293.667 615.614 305.07 618.326 317.125 621.109C332.45 624.725 349.78 628.785 358.919 631.565C378.62 637.842 390.416 629.686 398.176 604.232C400.494 590.34 398.144 576.785 390.973 562.825C384.586 550.451 374.264 537.116 358.213 520.747C346.946 507.682 332.359 496.627 316.083 488.855C296.572 479.537 276.461 475.688 263.649 478.93C251.461 483.429 259.701 511.8 265.816 532.542C268.283 540.942 270.326 548.17 270.736 552.354C271.327 560.052 265.023 568.328 258.936 576.333C253.858 583.054 249.063 589.375 249.045 594.573C248.969 594.644 248.992 594.759 249.016 594.873Z" fill="url(#paint10_linear_380_5883)"/>
<path d="M401.408 583.677C401.609 584.649 401.799 585.563 401.9 586.492C404.093 601.493 401.888 611.533 395.203 616.211C389.952 619.891 382.192 620.253 372.012 617.285C355.445 612.51 313.121 607.863 301.259 609.535C296.827 610.13 289.124 609.007 280.02 606.397C271.781 604.002 264.117 600.866 260.504 598.376C258.909 597.274 258.068 596.288 258.102 595.573C258.496 590.431 266.67 582.384 274.527 574.565C280.663 568.557 286.394 562.793 287.672 559.28C289.119 555.268 284.008 543.334 278.666 530.729C273.154 517.738 267.471 504.361 268.28 498.148C269.119 491.635 275.133 486.357 284.132 484.495C294.606 482.279 307.784 484.765 321.208 491.522C336.867 499.396 355.563 514.459 371.087 531.804C387.641 550.164 398.251 568.417 401.408 583.677ZM258.861 596.16C258.979 596.731 259.562 597.346 260.833 598.205C267.835 602.984 291.266 610.552 300.9 609.12C312.75 607.391 355.262 612.067 371.941 616.942C381.921 619.824 389.593 619.476 394.768 615.868C401.365 611.204 403.593 601.278 401.4 586.277C399.065 570.59 388.23 551.25 370.822 531.846C355.658 514.916 336.626 499.553 321.379 491.908C308.166 485.293 295.177 482.836 284.779 484.982C275.869 486.829 269.843 492.05 268.992 498.506C268.27 504.705 273.954 518.082 279.454 531.016C284.796 543.621 289.919 555.611 288.484 559.681C287.218 563.251 281.487 569.016 275.362 575.08C267.493 582.842 259.419 590.932 259.014 596.017C258.826 595.988 258.837 596.046 258.861 596.16Z" fill="url(#paint11_linear_380_5883)"/>
</g>
<defs>
<linearGradient id="paint0_linear_380_5883" x1="77.0941" y1="406.082" x2="305.114" y2="176.912" gradientUnits="userSpaceOnUse">
<stop stop-color="#F94E94"/>
<stop offset="1" stop-color="#A12CDD"/>
</linearGradient>
<linearGradient id="paint1_linear_380_5883" x1="95.9111" y1="418.342" x2="306.708" y2="207.854" gradientUnits="userSpaceOnUse">
<stop stop-color="#F94E94"/>
<stop offset="1" stop-color="#A12CDD"/>
</linearGradient>
<linearGradient id="paint2_linear_380_5883" x1="114.862" y1="430.475" x2="308.49" y2="238.63" gradientUnits="userSpaceOnUse">
<stop stop-color="#F94E94"/>
<stop offset="1" stop-color="#A12CDD"/>
</linearGradient>
<linearGradient id="paint3_linear_380_5883" x1="133.611" y1="442.98" x2="309.971" y2="269.771" gradientUnits="userSpaceOnUse">
<stop stop-color="#F94E94"/>
<stop offset="1" stop-color="#A12CDD"/>
</linearGradient>
<linearGradient id="paint4_linear_380_5883" x1="152.486" y1="455.122" x2="311.69" y2="300.544" gradientUnits="userSpaceOnUse">
<stop stop-color="#F94E94"/>
<stop offset="1" stop-color="#A12CDD"/>
</linearGradient>
<linearGradient id="paint5_linear_380_5883" x1="171.368" y1="467.294" x2="313.326" y2="331.349" gradientUnits="userSpaceOnUse">
<stop stop-color="#F94E94"/>
<stop offset="1" stop-color="#A12CDD"/>
</linearGradient>
<linearGradient id="paint6_linear_380_5883" x1="190.16" y1="479.277" x2="314.958" y2="361.851" gradientUnits="userSpaceOnUse">
<stop stop-color="#F94E94"/>
<stop offset="1" stop-color="#A12CDD"/>
</linearGradient>
<linearGradient id="paint7_linear_380_5883" x1="201.397" y1="490.063" x2="308.91" y2="388.973" gradientUnits="userSpaceOnUse">
<stop stop-color="#F94E94"/>
<stop offset="1" stop-color="#A12CDD"/>
</linearGradient>
<linearGradient id="paint8_linear_380_5883" x1="212.134" y1="500.462" x2="302.749" y2="415.129" gradientUnits="userSpaceOnUse">
<stop stop-color="#F94E94"/>
<stop offset="1" stop-color="#A12CDD"/>
</linearGradient>
<linearGradient id="paint9_linear_380_5883" x1="223.126" y1="511.512" x2="298.672" y2="440.496" gradientUnits="userSpaceOnUse">
<stop stop-color="#F94E94"/>
<stop offset="1" stop-color="#A12CDD"/>
</linearGradient>
<linearGradient id="paint10_linear_380_5883" x1="233.628" y1="522.85" x2="298.809" y2="461.204" gradientUnits="userSpaceOnUse">
<stop stop-color="#F94E94"/>
<stop offset="1" stop-color="#A12CDD"/>
</linearGradient>
<linearGradient id="paint11_linear_380_5883" x1="243.424" y1="524.785" x2="305.72" y2="465.914" gradientUnits="userSpaceOnUse">
<stop stop-color="#F94E94"/>
<stop offset="1" stop-color="#A12CDD"/>
</linearGradient>
</defs>
</svg>
