<svg width="13" height="12" viewBox="0 0 13 12" fill="none" xmlns="http://www.w3.org/2000/svg">
<path d="M2.85183 3.89917H0.154297V11.9999H2.85183V3.89917Z" fill="#A12CDD"/>
<path d="M11.7071 4.63907C11.1404 4.02051 10.391 3.71118 9.45916 3.71118C9.11584 3.71118 8.80376 3.75341 8.52306 3.83793C8.24244 3.9224 8.00543 4.0409 7.81191 4.19351C7.61851 4.34611 7.46447 4.48778 7.35012 4.61851C7.24138 4.74268 7.13504 4.88733 7.03128 5.05096V3.89906H4.3418L4.35004 4.29148C4.35557 4.55314 4.35829 5.35963 4.35829 6.71106C4.35829 8.0626 4.35285 9.82549 4.34191 11.9999H7.03128V7.47938C7.03128 7.20151 7.06109 6.98085 7.12115 6.81722C7.23568 6.53916 7.40853 6.30635 7.64027 6.11842C7.87198 5.93025 8.15936 5.83626 8.50279 5.83626C8.97131 5.83626 9.31612 5.99837 9.53687 6.32262C9.75753 6.64684 9.86787 7.09509 9.86787 7.66732V11.9996H12.5572V7.3569C12.557 6.16331 12.2739 5.25742 11.7071 4.63907Z" fill="#A12CDD"/>
<path d="M1.52041 0C1.06815 0 0.701697 0.132248 0.420967 0.396487C0.140265 0.660783 0 0.994452 0 1.39781C0 1.79553 0.136228 2.12805 0.408712 2.39501C0.681111 2.662 1.04083 2.79556 1.48768 2.79556H1.50403C1.96185 2.79556 2.33111 2.66211 2.61172 2.39501C2.89234 2.12805 3.02991 1.79564 3.0245 1.39781C3.01906 0.994481 2.88 0.660783 2.6076 0.396487C2.33523 0.132134 1.9727 0 1.52041 0Z" fill="#A12CDD"/>
</svg>
