<svg width="50" height="50" viewBox="0 0 50 50" fill="none" xmlns="http://www.w3.org/2000/svg">
<path d="M18.6004 38.3283C11.1035 40.4229 23.1617 44.7498 32.7078 40.66C31.1442 40.0521 30.0227 39.351 30.0227 39.351C25.766 40.1557 23.7914 40.2189 19.9274 39.7775C16.7383 39.4123 18.6004 38.3283 18.6004 38.3283ZM31.5649 34.2424C25.9227 35.3279 22.6637 35.2932 18.5359 34.8674C15.3442 34.5373 17.4336 32.9904 17.4336 32.9904C9.17696 35.7311 22.0301 38.8408 33.5699 35.4654C32.3434 35.0334 31.5649 34.2424 31.5649 34.2424ZM35.9863 10.5803C35.9867 10.5803 19.2945 14.7479 27.2664 23.9346C29.6195 26.6436 26.6492 29.0791 26.6492 29.0791C26.6492 29.0791 32.6215 25.9967 29.8793 22.135C27.3172 18.5354 25.3531 16.7471 35.9863 10.5803ZM39.8918 42.2771C39.8918 42.2771 41.2703 43.4139 38.3731 44.2924C32.8645 45.9611 15.441 46.4643 10.6016 44.3592C8.86329 43.6021 12.1246 42.5525 13.1508 42.3311C14.2207 42.0994 14.8317 42.1416 14.8317 42.1416C12.8973 40.7795 2.32657 44.8174 9.46368 45.9756C28.925 49.1303 44.9391 44.5549 39.8918 42.2771ZM33.2031 30.4283C34.1387 29.79 35.4309 29.2357 35.4309 29.2357C35.4309 29.2357 31.7496 29.8939 28.082 30.2022C23.5922 30.5787 18.7762 30.6529 16.3586 30.3295C10.6352 29.5643 19.4965 27.4592 19.4965 27.4592C19.4965 27.4592 16.0543 27.2264 11.8231 29.2732C6.81837 31.6932 24.2024 32.7963 33.2031 30.4283ZM35.3942 36.3443C35.352 36.4576 35.2113 36.585 35.2113 36.585C47.4274 33.3736 42.936 25.265 37.0949 27.3174C36.5824 27.4986 36.3137 27.9201 36.3137 27.9201C36.3137 27.9201 36.6375 27.7896 37.3598 27.6389C40.3125 27.0236 44.543 31.5916 35.3942 36.3443ZM25.0707 27.3709C23.2684 23.2971 17.1567 19.733 25.0735 13.4807C34.9449 5.68887 29.8797 0.620117 29.8797 0.620117C31.9227 8.67012 22.6723 11.1018 19.3332 16.115C17.0594 19.5311 20.4492 23.2018 25.0707 27.3709ZM35.7246 47.585C28.2297 48.9959 18.9848 48.8314 13.5031 47.9264C13.5031 47.9264 14.6258 48.8561 20.3961 49.2275C29.1758 49.7889 42.6617 48.915 42.9805 44.7604C42.9809 44.7604 42.3672 46.3354 35.7246 47.585Z" fill="#474748"/>
</svg>
