<svg width="50" height="50" viewBox="0 0 50 50" fill="none" xmlns="http://www.w3.org/2000/svg">
<g clip-path="url(#clip0_33_223)">
<path d="M15.6417 0C15.0437 0 14.4479 0 13.85 0.00416667C13.3479 0.00833333 12.8437 0.0104167 12.3417 0.025C12.0667 0.03125 11.7937 0.04375 11.5187 0.05625C10.6939 0.0883295 9.87206 0.173926 9.05833 0.3125C7.97385 0.504262 6.92272 0.851594 5.9375 1.34375C3.95977 2.3498 2.35159 3.95652 1.34375 5.93333C0.833333 6.93333 0.510417 7.95833 0.3125 9.05833C0.11875 10.1417 0.0583333 11.2458 0.0291667 12.3417C0.0156621 12.8443 0.00732832 13.3471 0.00416667 13.85C0 14.4479 0 15.0437 0 15.6417V34.3583C0 34.9562 0 35.5562 0.00416667 36.1542C0.00833333 36.6542 0.0145833 37.1562 0.0291667 37.6583C0.0583333 38.7542 0.11875 39.8604 0.3125 40.9417C0.510417 42.0417 0.833333 43.0667 1.34375 44.0667C2.35041 46.0443 3.95892 47.6514 5.9375 48.6562C6.9375 49.1646 7.95833 49.4896 9.05833 49.6875C10.1417 49.8812 11.2458 49.9458 12.3417 49.975C12.8437 49.9896 13.3479 49.9937 13.85 49.9958C14.4479 50 15.0437 50 15.6417 50H34.3583C34.9562 50 35.5521 50 36.15 49.9958C36.6521 49.9937 37.1562 49.9896 37.6583 49.975C38.7598 49.9619 39.8588 49.8658 40.9458 49.6875C42.0316 49.5007 43.0834 49.1531 44.0667 48.6562C46.0433 47.6501 47.6501 46.0433 48.6562 44.0667C49.1667 43.0667 49.4896 42.0417 49.6875 40.9417C49.8812 39.8583 49.9458 38.7542 49.975 37.6583C49.9896 37.1562 49.9937 36.6562 49.9958 36.1542C50 35.5562 50 34.9562 50 34.3583V15.6417C50 15.0437 50 14.4479 49.9958 13.85C49.9943 13.3472 49.9874 12.8444 49.975 12.3417C49.9619 11.2415 49.8658 10.144 49.6875 9.05833C49.5009 7.97121 49.1534 6.91798 48.6562 5.93333C47.6496 3.95707 46.0429 2.35039 44.0667 1.34375C43.0834 0.846804 42.0316 0.499233 40.9458 0.3125C39.8588 0.133972 38.7598 0.0378648 37.6583 0.025C37.157 0.0128807 36.6556 0.00593587 36.1542 0.00416667C35.5562 0 34.9562 0 34.3583 0H15.6417ZM28.2146 7.10417C36.7854 12.25 41.85 22.025 39.775 30.2937C39.725 30.4875 39.6708 30.6708 39.6167 30.8604L39.6208 30.8625C43.9167 36.15 42.7458 41.8167 42.1958 40.7479C39.9625 36.4021 35.8083 37.4813 33.6792 38.575C33.4867 38.6893 33.2915 38.7991 33.0938 38.9042L33.0521 38.9292L33.0479 38.9333C28.6417 41.2729 22.7208 41.4437 16.7729 38.8875C11.9299 36.7889 7.83415 33.2756 5.02292 28.8083C6.375 29.8083 7.83542 30.6875 9.39167 31.4167C15.6812 34.3625 21.9979 34.1479 26.4687 31.4125C20.1062 26.5208 14.7937 20.1458 10.7208 14.9812C9.94659 14.0779 9.2464 13.1137 8.62708 12.0979C13.5021 16.5604 21.2062 22.1604 23.9708 23.7146C18.1042 17.5167 12.9333 9.88125 13.175 10.125C22.4167 19.4375 30.9417 24.7 30.9417 24.7C31.2625 24.8771 31.5042 25.0208 31.6917 25.1437C31.8687 24.6958 32.025 24.2333 32.1583 23.7521C33.6333 18.3604 31.9708 12.1937 28.2146 7.10208V7.10417Z" fill="#474748"/>
</g>
<defs>
<clipPath id="clip0_33_223">
<rect width="50" height="50" fill="white"/>
</clipPath>
</defs>
</svg>
