<svg width="50" height="50" viewBox="0 0 50 50" fill="none" xmlns="http://www.w3.org/2000/svg">
<path d="M0 41.8417C0.0895833 42.9459 0.479167 44.0563 1.49583 45.5459C2.70417 47.3146 4.77917 48.2854 6.29375 46.7271C7.31458 45.675 18.3646 26.3604 23.6896 19.0396C23.8357 18.8303 24.0302 18.6594 24.2565 18.5414C24.4828 18.4233 24.7343 18.3617 24.9896 18.3617C25.2448 18.3617 25.4963 18.4233 25.7227 18.5414C25.949 18.6594 26.1435 18.8303 26.2896 19.0396C31.6146 26.3604 42.6646 45.675 43.6854 46.7271C45.2 48.2854 47.275 47.3146 48.4833 45.5459C49.6708 43.8063 50 42.5875 50 41.2834C50 40.3959 32.7917 8.37087 31.0583 5.7042C29.3917 3.1417 28.8833 2.58337 26.0646 2.4917H23.9146C21.0958 2.58337 20.5875 3.13962 18.9188 5.7042C17.2229 8.31462 0.6875 39.0792 0 41.1875V41.8417Z" fill="#474748"/>
</svg>
