<svg width="56" height="50" viewBox="0 0 56 50" fill="none" xmlns="http://www.w3.org/2000/svg">
<path d="M50.043 25.29C50.043 22.2716 46.2646 19.4111 40.4716 17.6372C41.8085 11.7304 41.2144 7.03102 38.5962 5.52646C37.9928 5.17353 37.2874 5.00635 36.5168 5.00635V7.07746C36.9438 7.07746 37.2874 7.16105 37.5751 7.31892C38.8377 8.04333 39.3855 10.8017 38.9583 14.3495C38.8564 15.2225 38.6892 16.1419 38.485 17.08C36.6652 16.6342 34.6786 16.2906 32.5898 16.0677C31.3366 14.3495 30.0369 12.7892 28.7278 11.424C31.7543 8.60987 34.5951 7.06815 36.5262 7.06815V4.99707C33.973 4.99707 30.631 6.81741 27.2518 9.97511C23.8725 6.83597 20.5305 5.03422 17.9775 5.03422V7.10531C19.8992 7.10531 22.7492 8.63774 25.7757 11.4332C24.4759 12.7985 23.1762 14.3495 21.9415 16.0677C19.8434 16.2906 17.8567 16.6342 16.0372 17.0893C15.8236 16.1605 15.6658 15.2596 15.5543 14.3959C15.1182 10.8481 15.6565 8.08977 16.9099 7.35607C17.1883 7.18889 17.5503 7.11461 17.9775 7.11461V5.04351C17.1976 5.04351 16.492 5.21069 15.8794 5.56361C13.2706 7.06815 12.6858 11.7583 14.0319 17.6465C8.25751 19.4297 4.49765 22.2809 4.49765 25.29C4.49765 28.3085 8.27606 31.169 14.069 32.9428C12.7321 38.8497 13.3263 43.549 15.9444 45.0536C16.5479 45.4064 17.2533 45.5736 18.0332 45.5736C20.5861 45.5736 23.9283 43.7533 27.3075 40.5956C30.6866 43.7348 34.0288 45.5366 36.5818 45.5366C37.3615 45.5366 38.0671 45.3694 38.6799 45.0164C41.2885 43.5118 41.8735 38.8217 40.5273 32.9336C46.2831 31.1597 50.043 28.2992 50.043 25.29ZM37.9558 19.0953C37.6123 20.2935 37.1853 21.5285 36.7024 22.7638C36.3219 22.0209 35.9227 21.2779 35.4863 20.5348C35.0593 19.7919 34.6043 19.0675 34.1494 18.3616C35.4676 18.5567 36.7396 18.7981 37.9558 19.0953ZM33.7038 28.9864C32.9797 30.2403 32.2371 31.429 31.4666 32.5343C30.0832 32.6549 28.6815 32.7199 27.2703 32.7199C25.8685 32.7199 24.4666 32.6549 23.0928 32.5434C22.3222 31.4382 21.5701 30.2588 20.846 29.0142C20.1404 27.7976 19.5 26.5624 18.915 25.318C19.4907 24.0734 20.1404 22.8288 20.8369 21.6122C21.561 20.3585 22.3035 19.1696 23.0741 18.0644C24.4575 17.9437 25.8591 17.8787 27.2703 17.8787C28.6722 17.8787 30.074 17.9437 31.4479 18.0551C32.2184 19.1604 32.9705 20.3398 33.6946 21.5844C34.4002 22.801 35.0406 24.0362 35.6256 25.2808C35.0406 26.5252 34.4002 27.7698 33.7038 28.9864ZM36.7024 27.7791C37.1897 28.9895 37.6173 30.223 37.9836 31.4754C36.7674 31.7725 35.4863 32.0234 34.1588 32.2184C34.6136 31.5034 35.0685 30.7697 35.4957 30.0173C35.9227 29.2744 36.3219 28.522 36.7024 27.7791ZM27.2888 37.6888C26.4254 36.797 25.5621 35.8033 24.708 34.7167C25.5436 34.7539 26.3976 34.7817 27.261 34.7817C28.1337 34.7817 28.9971 34.7633 29.8419 34.7167C29.0451 35.7527 28.1928 36.7449 27.2888 37.6888ZM20.3818 32.2184C19.0636 32.0234 17.7917 31.7819 16.5757 31.4847C16.919 30.2866 17.3463 29.0514 17.8289 27.8161C18.2096 28.5592 18.6088 29.3022 19.045 30.0451C19.4813 30.7882 19.927 31.5125 20.3818 32.2184ZM27.2425 12.8914C28.1059 13.7829 28.9692 14.7767 29.8233 15.8633C28.9877 15.8262 28.1337 15.7983 27.2703 15.7983C26.3976 15.7983 25.5342 15.8169 24.6896 15.8633C25.4864 14.8274 26.3386 13.8353 27.2425 12.8914ZM20.3725 18.3616C19.9177 19.0768 19.4628 19.8105 19.0358 20.5626C18.6088 21.3057 18.2096 22.0488 17.8289 22.7916C17.3415 21.5813 16.914 20.3477 16.5479 19.0953C17.7639 18.8074 19.045 18.5567 20.3725 18.3616ZM11.9709 29.9894C8.68456 28.587 6.55861 26.7482 6.55861 25.29C6.55861 23.8319 8.68456 21.9838 11.9709 20.5907C12.7693 20.247 13.642 19.9405 14.5425 19.6526C15.0717 21.4729 15.7679 23.3675 16.6313 25.3086C15.7773 27.2404 15.0902 29.1257 14.5704 30.9368C13.6513 30.6488 12.7786 30.3331 11.9709 29.9894ZM16.9655 43.2611C15.703 42.5368 15.1551 39.7784 15.5824 36.2305C15.6845 35.3576 15.8514 34.438 16.0557 33.5C17.8754 33.9459 19.862 34.2896 21.9508 34.5124C23.204 36.2305 24.5038 37.7908 25.8128 39.156C22.7864 41.9702 19.9455 43.5118 18.0145 43.5118C17.5968 43.5027 17.2441 43.419 16.9655 43.2611ZM38.9863 36.1842C39.4225 39.7319 38.8842 42.4902 37.6307 43.224C37.3524 43.3911 36.9903 43.4655 36.5631 43.4655C34.6414 43.4655 31.7914 41.933 28.765 39.1375C30.0647 37.7723 31.3644 36.2213 32.5992 34.503C34.6973 34.2802 36.6839 33.9365 38.5035 33.4815C38.7171 34.4196 38.8842 35.3205 38.9863 36.1842ZM42.5604 29.9894C41.762 30.3331 40.8893 30.6397 39.9888 30.9275C39.4596 29.1072 38.7634 27.2126 37.9 25.2715C38.7542 23.3397 39.4411 21.4544 39.9609 19.6433C40.8802 19.9312 41.7527 20.247 42.5697 20.5907C45.8561 21.9929 47.982 23.8319 47.982 25.29C47.9727 26.7482 45.8468 28.5963 42.5604 29.9894Z" fill="#474748"/>
<path d="M27.261 29.5346C29.6043 29.5346 31.5037 27.6344 31.5037 25.2902C31.5037 22.9461 29.6043 21.0459 27.261 21.0459C24.9179 21.0459 23.0185 22.9461 23.0185 25.2902C23.0185 27.6344 24.9179 29.5346 27.261 29.5346Z" fill="#474748"/>
</svg>
