<svg width="35" height="35" viewBox="0 0 35 35" fill="none" xmlns="http://www.w3.org/2000/svg">
<g clip-path="url(#clip0_11_494)">
<path d="M35 17.5C35 15.0267 33.7458 12.8465 31.8383 11.5602C32.0637 10.4087 32.0025 9.21934 31.6599 8.09705C31.3174 6.97476 30.704 5.95395 29.874 5.12458C29.0446 4.2944 28.0238 3.68099 26.9015 3.33842C25.7792 2.99586 24.5899 2.93465 23.4383 3.1602C22.1521 1.2527 19.9719 -0.00146484 17.4985 -0.00146484C15.0252 -0.00146484 12.845 1.2527 11.5587 3.1602C10.4072 2.93465 9.21784 2.99586 8.09553 3.33842C6.97322 3.68099 5.95242 4.2944 5.12311 5.12458C4.29294 5.95388 3.67953 6.97468 3.33696 8.09699C2.99439 9.2193 2.93319 10.4087 3.15874 11.5602C1.25124 12.8465 -0.00292969 15.0267 -0.00292969 17.5C-0.00292969 19.9733 1.25124 22.1535 3.15874 23.4398C2.93319 24.5913 2.99439 25.7807 3.33696 26.903C3.67953 28.0253 4.29294 29.0461 5.12311 29.8754C5.95242 30.7056 6.97322 31.319 8.09553 31.6616C9.21784 32.0041 10.4072 32.0653 11.5587 31.8398C12.845 33.7473 15.0252 35.0015 17.4985 35.0015C19.9719 35.0015 22.1521 33.7473 23.4383 31.8398C24.5899 32.0653 25.7792 32.0041 26.9015 31.6616C28.0238 31.319 29.0446 30.7056 29.874 29.8754C30.7041 29.0461 31.3175 28.0253 31.6601 26.903C32.0027 25.7807 32.0639 24.5913 31.8383 23.4398C32.8122 22.7851 33.61 21.9008 34.1614 20.865C34.7127 19.8291 35.0008 18.6735 35 17.5ZM17.3673 22.486C16.8195 23.0293 16.0788 23.3335 15.3073 23.3321C14.5358 23.3307 13.7963 23.0239 13.2504 22.4787L9.19332 18.5471L11.2248 16.4515L15.2979 20.3992L23.7694 12.0852L25.8169 14.1633L17.3673 22.486Z" fill="#A12CDD"/>
</g>
<defs>
<clipPath id="clip0_11_494">
<rect width="35" height="35" fill="white"/>
</clipPath>
</defs>
</svg>
