<svg width="468" height="200" viewBox="0 0 468 200" fill="none" xmlns="http://www.w3.org/2000/svg">
<mask id="mask0_519_6166" style="mask-type:alpha" maskUnits="userSpaceOnUse" x="0" y="0" width="468" height="200">
<rect width="468" height="200" fill="#F3F3F3"/>
</mask>
<g mask="url(#mask0_519_6166)">
<g opacity="0.15">
<path d="M143.38 83.5052C155.681 79.8691 163.705 79.9089 168.676 81.7784C196.976 91.962 246.046 70.5955 293.566 49.8724C348.185 26.1235 399.868 3.61363 428.074 21.8009C440.074 29.5688 446.523 43.6144 447.907 65.0926C451.92 129.197 409.499 217.043 373.325 279.485C329.431 355.234 279.698 419.603 256.122 445.648C255.487 446.349 254.331 446.336 253.547 445.655V445.655V445.655C254.346 446.349 254.457 447.468 253.803 448.177C184.397 523.39 122.907 589.042 74.0637 631.699C22.1002 676.921 -14.1589 695.428 -43.732 691.742C-61.0043 689.613 -75.7318 679.684 -88.9319 661.698C-107.333 636.532 -129.598 621.226 -159.078 613.431C-185.899 606.334 -216.236 606.027 -248.469 605.538C-287.384 605.169 -331.686 604.538 -378.276 591.97C-386.091 589.828 -391.155 585.574 -393.466 579.209C-399.151 563.083 -385.435 533.803 -352.756 492.055C-324.125 455.398 -281.271 409.716 -228.706 359.864C-154.286 289.27 -65.4379 215.34 9.1177 161.956C78.4702 111.78 119.424 90.586 143.38 83.5052ZM223.153 81.0718C201.625 87.4349 182.317 89.9885 167.936 84.7795C148.491 77.9139 91.3271 106.866 11.0365 164.356C-63.3572 217.692 -152.044 291.575 -226.371 361.956C-339.087 468.724 -400.305 549.513 -390.298 578.087C-388.472 583.298 -384.38 586.54 -377.813 588.308C-331.547 600.972 -287.707 601.369 -248.953 601.786C-183.841 602.573 -127.699 603.229 -86.3418 659.634C-73.8815 676.726 -59.917 686.139 -43.7546 688.224C16.8021 695.922 108.151 600.664 252.276 444.362C275.264 419.39 325.75 354.201 370.274 277.419C406.262 215.403 448.336 128.031 444.438 64.6339C443.216 44.4063 437.276 31.1378 426.409 24.3334C399.96 7.29618 346.728 30.4495 295.138 52.7465C270.626 63.7012 245.652 74.4216 223.153 81.0718Z" fill="url(#paint0_linear_519_6166)"/>
<path d="M140.696 96.1694C150.246 93.3466 157.761 92.6093 163.125 94.548C189.044 103.395 233.697 84.0761 277.124 65.3047C327.488 43.5554 375.008 22.8323 400.926 39.4703C411.862 46.4396 417.826 59.3302 419.164 78.9672C422.002 112.999 411.428 159.714 388.713 213.912C369.352 260.07 341.366 310.819 312.016 352.695C280.91 396.019 254.244 427.828 246.798 436.521C177.048 512.597 125.383 567.191 82.4391 603.997C35.6327 644.171 1.36233 661.348 -25.9217 657.913C-42.2459 655.875 -56.303 646.675 -68.7633 629.583C-85.7085 606.584 -106.054 592.379 -133.176 585C-157.638 578.32 -185.501 577.837 -215.028 577.29C-250.591 576.673 -290.754 575.931 -333.344 564.221C-340.836 561.983 -345.506 557.799 -347.748 551.599C-361.661 510.267 -245.22 393.31 -194.505 345.118C-75.6832 232.093 76.4354 115.163 140.696 96.1694ZM212.746 93.9782C193.16 99.7673 175.61 102.172 162.385 97.5491C123.703 84.3129 -56.5819 218.657 -191.869 347.492C-296.769 447.313 -353.801 523.34 -344.533 551.02C-342.777 556.065 -339.008 559.403 -332.766 561.267C-290.731 572.956 -250.636 573.533 -215.398 574.246C-155.857 575.196 -104.271 576.272 -66.2889 628.11C-54.4065 644.259 -41.2743 652.991 -25.8981 654.938C30.9591 662.06 117.845 572.201 244.069 434.36C251.354 425.714 278.089 394.07 309.034 350.795C338.383 308.918 366.184 258.595 385.545 212.437C408.006 158.5 418.626 112.328 415.765 78.6734C414.588 60.2871 409.203 48.3386 399.261 42.0028C374.869 26.3977 325.892 47.5514 278.465 68.0617C256.08 78.0166 233.303 87.9022 212.746 93.9782Z" fill="url(#paint1_linear_519_6166)"/>
<path d="M137.301 108.86C145.718 106.372 152.585 105.826 157.418 107.366C180.863 115.089 221.353 97.557 260.525 80.7851C306.565 60.8704 349.992 42.099 373.691 57.3526C383.632 63.6884 389.11 75.4242 390.426 92.842C393.75 124.134 385.512 169.045 366.867 219.072C349.703 265.694 325.116 312.841 299.49 348.423C281.844 371.817 265.239 392.491 251.895 409.234C246.807 415.746 242.251 421.358 238.388 426.024C187.163 482.528 133.671 539.702 90.4265 576.226C48.2684 611.873 16.8193 627.104 -8.33752 623.967C-23.8756 622.067 -37.0078 613.336 -48.8208 597.352C-82.48 551.469 -128.494 550.231 -181.814 548.926C-213.792 548.177 -250.048 547.207 -288.476 536.307C-303.829 531.385 -304.359 518.002 -301.906 507.817C-289.712 454.132 -178.128 342.505 -86.2495 263.226C-2.62701 191.582 91.169 122.495 137.301 108.86ZM201.79 106.864C184.308 112.031 168.77 114.027 156.77 110.154C131.059 101.802 32.084 165.927 -83.8683 265.861C-138.075 312.674 -188.744 361.409 -226.417 402.964C-268.623 449.753 -293.763 486.491 -298.808 509.127C-301.77 522.43 -298.21 530.467 -287.69 533.849C-249.886 544.563 -213.699 545.367 -181.883 546.164C-127.615 547.56 -80.8841 548.772 -46.2772 596.043C-35.2039 611.133 -22.6034 619.466 -8.24457 621.157C41.2829 627.292 112.904 559.566 235.891 423.98C239.522 419.197 244.078 413.584 249.236 407.237C262.65 390.66 279.255 369.985 296.901 346.592C322.365 311.057 346.859 264.124 363.931 217.714C382.321 167.948 390.606 123.579 387.258 92.6654C386.128 76.1204 381.065 65.3745 372.118 59.6723C349.784 45.4994 305.062 64.6535 261.796 83.3771C240.73 92.5714 220.081 101.457 201.79 106.864Z" fill="url(#paint2_linear_519_6166)"/>
<path d="M134.45 121.573C141.41 119.515 147.491 118.831 151.699 120.184C172.832 126.736 208.906 111.251 243.847 96.1007C283.597 78.9725 324.897 61.2009 346.537 75.0224C355.485 80.7246 360.57 91.0926 361.839 106.669C370.131 167.098 334.573 280.367 287.347 344.221C279.252 354.404 271.436 363.948 264.035 373.184C250.234 390.035 238.391 404.644 230.481 415.692C230.448 415.738 230.4 415.771 230.343 415.788V415.788C230.294 415.802 230.252 415.829 230.22 415.864C170.558 482.071 131.418 521.823 98.8658 548.69C61.1943 579.857 32.9595 593.211 9.76804 590.42C-4.822 588.612 -17.2838 580.609 -28.3571 565.519C-58.7104 524.039 -100.261 522.594 -148.079 520.962C-176.704 519.963 -209.052 518.766 -243.18 509.006C-254.995 504.708 -259.178 495.186 -255.823 480.654C-250.756 458.939 -228.252 425.021 -190.371 382.663C-156.999 345.162 -112.204 301.502 -64.1023 259.647C-17.0877 218.67 29.8107 182.179 67.99 156.982C89.5193 142.829 115.673 127.122 134.45 121.573ZM191.308 119.605C175.769 124.198 161.988 126.046 151.144 122.759C139.514 119.334 110.678 132.123 70.0013 159.17C31.8913 184.531 -14.9144 220.81 -61.7672 261.739C-142.615 332.192 -241.318 432.036 -252.702 481.587C-255.733 494.725 -252.335 502.809 -242.231 506.5C-208.497 516.191 -176.38 517.27 -148.078 518.365C-99.313 520.088 -57.2071 521.554 -25.9753 564.259C-15.4799 578.407 -3.87356 586.106 9.93034 587.776C56.5445 593.474 125.229 528.285 228.073 414.048C235.982 402.992 247.916 388.521 261.677 371.47C269.239 362.186 276.894 352.69 285.058 342.672C331.938 279.291 367.287 166.826 358.972 106.775C357.726 92.1188 353.311 82.4801 345.196 77.4593C324.85 64.5535 284.36 82.0858 245.187 98.8577C226.179 106.887 207.657 114.773 191.308 119.605Z" fill="url(#paint3_linear_519_6166)"/>
<path d="M131.279 134.38C137.268 132.61 142.308 132.048 145.985 133.001C164.644 138.43 196.393 124.779 227.241 111.581C262.898 96.4044 299.712 80.5152 319.225 92.7396C327.179 97.8082 331.709 106.856 332.932 120.592C337.53 146.685 333.916 187.447 323.389 229.51C312.144 274.197 294.495 314.47 274.883 340.114L268.893 347.078C249.842 369.193 231.805 390.268 222.058 405.199C222.029 405.244 222.004 405.289 221.983 405.338V405.338C221.943 405.431 221.886 405.518 221.819 405.594C121.238 518.909 66.8474 561.301 27.8075 556.708C14.0036 555.038 2.30475 547.553 -7.95943 533.522C-35.0995 496.656 -71.864 494.91 -114.409 492.832C-139.429 491.702 -167.842 490.279 -197.71 481.515C-197.76 481.5 -197.813 481.499 -197.861 481.514V481.514C-197.918 481.53 -197.982 481.526 -198.04 481.502C-208.977 476.95 -212.898 467.558 -209.483 453.231C-198.377 406.915 -115.469 321.015 -41.7899 256.019C-1.1348 220.26 39.6122 188.184 73.0047 165.887C91.8285 153.089 114.768 139.26 131.279 134.38ZM180.738 132.56C167.141 136.579 154.955 138.326 145.591 135.529C125.036 129.919 46.9432 181.38 -39.9173 257.877C-81.7518 294.726 -120.673 333.311 -149.72 366.381C-182.375 403.855 -202.196 434.198 -206.986 453.977C-210.086 466.95 -206.943 475.295 -197.324 479.129C-167.821 487.845 -139.612 489.152 -114.663 490.495C-71.4012 492.547 -34.0817 494.315 -6.06318 532.405C3.69243 545.659 14.767 552.958 27.7154 554.324C71.578 559.537 136.308 497.929 219.795 403.881C229.625 388.733 247.756 367.793 266.766 345.481L272.756 338.517C292.114 313.134 309.67 273.073 320.892 228.764C331.396 187.079 334.986 146.694 330.458 120.766C329.258 107.952 325.167 99.5158 318.046 95.1286C299.757 83.655 263.522 99.1878 228.512 114.173C211.793 121.155 195.306 128.254 180.738 132.56Z" fill="url(#paint4_linear_519_6166)"/>
<path d="M127.883 147.071C132.901 145.588 137.063 145.1 140.277 145.819C156.624 150.076 184.049 138.26 210.642 127.061C242.137 113.672 274.858 99.7341 292.152 110.574C299.111 115.009 303.087 122.737 304.356 134.419C314.639 180.533 301.303 287.79 262.75 335.911C243.278 356.691 223.597 378.274 213.906 395.05V395.05C213.845 395.191 213.759 395.325 213.657 395.442C131.788 489.094 81.6476 527.247 45.9928 523.327C32.9751 521.795 21.8773 514.874 12.1911 501.785C-11.805 469.369 -43.7832 467.321 -80.9869 464.963C-102.606 463.587 -126.982 462.105 -152.625 454.198C-152.79 454.147 -152.951 454.082 -153.104 454.004V454.004C-163.624 449.323 -167.161 439.61 -163.667 425.408C-153.278 383.015 -82.4882 308.115 -19.9328 252.157C33.1178 204.759 96.8051 156.257 127.883 147.071ZM170.267 145.302C158.613 148.746 148.184 150.345 139.976 148.134C121.733 143.695 55.2719 188.194 -18.037 253.637C-80.4998 309.382 -150.874 383.973 -161.239 425.989C-164.501 439.01 -161.52 447.403 -152.318 451.546C-127.046 459.286 -102.583 460.773 -81.2177 462.248C-43.459 464.628 -10.6947 466.815 13.9486 500.338C23.1263 512.65 33.5998 519.385 45.8314 520.778C80.4403 524.752 129.785 487.128 210.289 395.022C211.162 394.023 211.942 392.926 212.624 391.799C222.632 375.267 241.733 354.233 260.554 334.149C298.743 286.523 311.875 180.144 301.665 134.538C301.655 134.495 301.642 134.456 301.625 134.414V134.414C301.596 134.346 301.578 134.274 301.571 134.202C300.472 123.454 296.869 116.209 290.533 112.351C274.302 102.31 242.322 115.843 211.312 129.089C197.253 135.471 182.893 141.57 170.267 145.302Z" fill="url(#paint5_linear_519_6166)"/>
<path d="M124.64 159.714C128.687 158.518 131.971 158.104 134.56 158.637C148.433 161.77 171.604 151.954 193.872 142.59C221.205 130.987 249.67 119.049 264.907 128.457C270.802 132.093 274.362 138.832 275.679 148.459C287.002 187.959 284.257 292.271 250.446 331.757C235.345 346.051 214.577 367.214 205.719 384.671V384.671C205.657 384.812 205.573 384.946 205.472 385.064C141.516 459.882 96.6066 493.145 64.4232 489.684C52.1916 488.292 41.3944 481.652 32.5173 469.623C11.8271 441.609 -15.5265 439.307 -47.4583 436.503C-65.4934 434.997 -86.0295 433.126 -107.374 426.356C-107.538 426.304 -107.699 426.238 -107.853 426.16V426.16C-117.864 420.958 -121.007 411.314 -117.513 397.112C-113.117 379.861 -98.9858 356.765 -75.2113 328.036C-54.4433 302.978 -27.8017 275.442 2.16943 248.035C45.5998 208.488 98.5801 167.417 124.64 159.714ZM159.625 158.091C149.913 160.962 141.335 162.199 134.514 160.691C118.652 157.589 63.5913 195.009 3.90339 249.562C-74.3777 320.926 -108.954 372.88 -115.247 397.741C-118.291 409.485 -116.163 417.997 -109.197 422.812C-107.854 423.741 -106.305 424.334 -104.741 424.806C-84.4426 430.932 -65.6749 432.688 -47.5504 434.119C-15.2256 436.992 12.683 439.316 34.113 468.224C42.7821 479.758 52.5619 486.142 64.3311 487.3C95.4787 490.596 139.286 458.075 201.993 385.182C203.092 383.905 204.023 382.481 204.823 381.011C214.269 363.675 234.166 343.767 248.643 330.064C281.876 290.934 284.644 187.543 273.528 148.538V148.538C273.482 148.428 273.452 148.313 273.438 148.199C272.379 139.326 269.265 133.259 263.935 130.042C249.763 121.433 221.944 133.18 195.028 144.474C182.541 149.834 170.47 154.886 159.625 158.091Z" fill="url(#paint6_linear_519_6166)"/>
<path d="M207.865 146.431C219.843 142.891 230.641 141.739 237.762 146.127C242.09 148.778 245.066 153.276 246.418 159.572C246.788 161.291 247.194 162.978 247.77 164.663C259.823 199.94 266.803 296.36 238.141 327.371C238.1 327.415 238.048 327.447 237.988 327.464V327.464C237.942 327.478 237.9 327.5 237.864 327.53C216.804 344.875 203.062 360.612 197.308 374.174V374.174C197.246 374.316 197.163 374.45 197.065 374.569C149.839 431.642 111.41 459.092 83.1617 456.324C71.3925 455.166 61.0578 448.761 52.6892 437.508C35.1429 413.944 12.4139 411.388 -13.8528 408.208C-28.5345 406.456 -45.0942 404.524 -62.2092 398.73C-62.3724 398.674 -62.5322 398.607 -62.6861 398.529V398.529C-72.1885 392.805 -75.0773 382.901 -71.4217 368.651C-64.0179 339.938 -28.4249 293.434 23.863 244.221C45.7864 223.644 68.3107 204.93 87.2502 191.541C101.287 181.642 119.787 170.239 128.851 171.455C140.181 173.3 158.934 165.531 177.202 157.905C187.631 153.71 198.153 149.302 207.865 146.431ZM236.739 325.979C253.76 307.593 256.403 267.118 256.429 244.666C256.504 213.668 251.746 179.832 245.182 162.482V162.482C245.136 162.373 245.104 162.258 245.088 162.143C244.075 155.114 241.355 150.41 236.953 147.664C224.768 140.322 201.112 150.282 178.196 159.837C159.026 167.915 140.92 175.492 128.966 173.461C101.058 169.839 -52.6128 304.293 -69.4795 369.375C-72.5351 381.037 -70.7846 389.654 -64.4417 395.025C-62.8865 396.341 -60.9682 397.177 -59.017 397.806C-43.0831 402.941 -28.1726 404.642 -13.8988 406.367C12.9229 409.568 36.2762 412.311 54.2617 436.487C62.2604 447.292 72.0634 453.298 83.2776 454.435C110.622 457.147 147.801 430.606 193.861 375.452C195.131 373.931 196.149 372.214 197.014 370.446C203.443 357.313 216.773 342.464 236.739 325.979Z" fill="url(#paint7_linear_519_6166)"/>
<path d="M185.155 164.272C195.353 161.258 204.394 160.255 210.613 163.796C213.868 165.653 216.087 168.647 217.436 172.728C218.144 174.87 218.851 177.014 219.793 179.093C226.67 194.284 233.725 223.696 236.543 250.173C238.895 271.33 240.621 309.129 225.85 323.215C225.803 323.26 225.746 323.292 225.681 323.311V323.311C225.639 323.324 225.601 323.341 225.566 323.365C214.619 330.691 195.476 345.62 189.124 363.794V363.794C189.063 363.936 188.982 364.071 188.886 364.192C156.703 405.13 126.971 425.555 102.821 423.432C91.2833 422.391 81.0872 416.316 72.8573 405.394C58.6862 386.396 40.443 383.256 19.5176 379.796C7.79479 377.882 -4.5523 375.781 -17.5233 370.897V370.897C-17.6772 370.819 -17.8263 370.73 -17.9656 370.629C-26.8604 364.206 -29.562 353.764 -25.935 339.625C-19.6649 315.143 6.932 277.975 44.9977 240.385C78.5769 207.274 111.415 183.657 122.906 184.155C131.832 185.041 145.452 179.346 160.043 173.364C168.83 170.025 177.386 166.569 185.155 164.272ZM223.179 322.756C224.126 322.096 225.019 321.409 225.778 320.567C248.673 295.159 229.197 200.318 216.6 176.309L216.531 176.144V176.144C216.485 176.034 216.451 175.92 216.43 175.806C215.465 170.615 213.233 167.068 209.665 165.004C199.539 159.093 179.814 167.149 161.06 174.918C146.469 180.9 132.525 186.691 123.207 185.736C112.27 185.259 79.247 209.302 46.5236 241.418C8.55041 278.795 -17.8614 315.537 -24.0389 339.807C-27.0658 351.613 -25.5645 360.508 -19.5349 366.492C-17.8382 368.176 -15.614 369.267 -13.3263 370.053C-1.66672 374.061 9.20658 375.902 19.8879 377.646C41.2064 381.176 59.7733 384.22 74.453 403.994C82.313 414.47 92.0466 420.311 102.96 421.165C126.091 423.225 154.654 403.775 185.611 364.929C186.947 363.252 187.96 361.351 188.832 359.404C196.004 343.397 212.627 330.106 223.179 322.756Z" fill="url(#paint8_linear_519_6166)"/>
<path d="M162.444 182.114C170.699 179.674 178.306 178.724 183.462 181.466C185.17 182.331 186.594 183.64 187.696 185.301C189.476 187.983 190.69 190.954 192.336 193.702C199.729 206.051 209.139 231.271 214.943 255.073C226.205 300.816 218.99 314.59 213.747 318.637C213.689 318.682 213.624 318.713 213.551 318.735V318.735C213.517 318.745 213.484 318.758 213.452 318.773C196.85 326.842 184.798 339.673 181.192 353.154V353.154C181.13 353.296 181.052 353.434 180.961 353.559C157.476 386.132 137.135 392.135 124.258 391.313C112.628 390.485 102.039 384.34 93.5081 373.136C82.4809 358.588 69.0241 355.146 53.5326 351.193C45.3938 349.147 36.862 347.032 27.8911 343.006V343.006C27.7376 342.928 27.5933 342.832 27.4649 342.72C18.7893 335.133 16.1962 324.105 19.5953 309.845C30.7479 262.774 100.796 198.666 117.583 197.043C124.035 196.805 133.169 192.992 143.019 189.153C149.61 186.649 156.293 183.932 162.444 182.114ZM210.428 318.792C211.812 318.072 213.194 317.31 214.166 316.152C221.038 307.973 220.77 286.171 213.325 255.551C206.817 228.862 195.843 200.554 188.332 190.771C188.258 190.674 188.201 190.576 188.154 190.466V190.466L188.085 190.301C187.184 186.858 185.427 184.409 182.814 182.956C174.352 178.408 158.212 185.034 143.713 190.803C133.77 194.855 124.404 198.551 117.791 198.836C109.398 199.648 87.6135 216.659 67.0541 238.317C42.4013 264.523 25.6102 290.817 21.0519 310.712C18.1592 322.757 19.6675 332.366 25.5923 339.287C27.3039 341.287 29.663 342.692 32.1601 343.677C39.5423 346.59 46.6316 348.307 53.6022 350.06C69.4868 354.082 83.1054 357.476 94.5718 372.636C102.732 383.393 112.859 389.303 124.097 390.063C136.358 390.746 155.311 385.457 177.544 355.874C179.047 353.874 180.05 351.574 180.921 349.238C185.371 337.298 196.14 326.221 210.428 318.792Z" fill="url(#paint9_linear_519_6166)"/>
<path d="M139.011 199.981C145.485 198.068 151.659 197.17 156.075 199.018C156.261 199.1 156.444 199.188 156.625 199.281C160.157 201.095 162.503 204.588 164.992 207.574C180.29 225.926 205.604 283.17 205.263 305.231C205.215 308.678 204.515 311.185 203.313 312.826C202.294 314.217 200.452 314.754 198.732 315.331C188.162 318.879 176.044 327.613 173.206 342.495C173.177 342.648 173.132 342.798 173.071 342.94V342.94C165.947 355.432 157.067 361.581 146.824 361.456C136.025 361.309 123.702 353.636 113.831 340.973C105.948 330.876 96.9075 326.685 87.243 322.308C82.7575 320.295 77.8096 318.047 72.9774 315.209V315.209C72.8249 315.132 72.6877 315.028 72.5759 314.902C63.8499 305.12 60.6281 292.617 63.3413 277.993C69.2657 246.193 100.348 213.635 111.794 209.695C115.031 208.738 119.101 207.165 123.425 205.33C128.605 203.799 133.993 201.465 139.011 199.981ZM198.459 314.097C199.833 313.657 201.31 313.261 202.151 312.18C203.264 310.748 203.862 308.438 203.83 305.283C204.109 294.257 197.684 273.341 186.843 249.279C176.856 227.244 165.994 209.162 159.837 204.44C159.809 204.419 159.781 204.402 159.75 204.386L159.734 204.378C159.626 204.323 159.541 204.234 159.497 204.128V204.128C158.572 202.361 157.3 201.067 155.52 200.295C148.237 197.254 134.871 202.689 124.119 206.98C119.725 208.649 115.563 210.436 112.325 211.393C101.203 215.237 70.4679 247.322 64.7285 278.696C62.3232 291.435 64.48 302.387 70.9882 311.354C72.6244 313.608 74.8948 315.407 77.4283 316.74C80.9411 318.589 84.3746 320.137 87.6824 321.621C97.5088 325.951 106.78 330.259 114.802 340.686C124.304 352.902 136.164 360.34 146.639 360.583C155.596 360.634 163.349 355.673 169.899 345.7C171.236 343.663 171.962 341.311 172.625 338.964C176.461 325.39 188.258 317.365 198.459 314.097Z" fill="url(#paint10_linear_519_6166)"/>
</g>
</g>
<defs>
<linearGradient id="paint0_linear_519_6166" x1="416.012" y1="72.5586" x2="-168.181" y2="532.542" gradientUnits="userSpaceOnUse">
<stop stop-color="#3E3E3E"/>
<stop offset="1" stop-color="#464646" stop-opacity="0"/>
</linearGradient>
<linearGradient id="paint1_linear_519_6166" x1="390.436" y1="86.9046" x2="-145.314" y2="505.502" gradientUnits="userSpaceOnUse">
<stop stop-color="#3E3E3E"/>
<stop offset="1" stop-color="#464646" stop-opacity="0"/>
</linearGradient>
<linearGradient id="paint2_linear_519_6166" x1="364.673" y1="101.132" x2="-122.464" y2="478.218" gradientUnits="userSpaceOnUse">
<stop stop-color="#3E3E3E"/>
<stop offset="1" stop-color="#464646" stop-opacity="0"/>
</linearGradient>
<linearGradient id="paint3_linear_519_6166" x1="339.206" y1="115.497" x2="-99.4067" y2="451.198" gradientUnits="userSpaceOnUse">
<stop stop-color="#3E3E3E"/>
<stop offset="1" stop-color="#464646" stop-opacity="0"/>
</linearGradient>
<linearGradient id="paint4_linear_519_6166" x1="313.502" y1="129.916" x2="-76.1634" y2="424.018" gradientUnits="userSpaceOnUse">
<stop stop-color="#3E3E3E"/>
<stop offset="1" stop-color="#464646" stop-opacity="0"/>
</linearGradient>
<linearGradient id="paint5_linear_519_6166" x1="287.926" y1="144.164" x2="-52.9798" y2="397.062" gradientUnits="userSpaceOnUse">
<stop stop-color="#3E3E3E"/>
<stop offset="1" stop-color="#464646" stop-opacity="0"/>
</linearGradient>
<linearGradient id="paint6_linear_519_6166" x1="262.211" y1="158.442" x2="-29.2763" y2="369.868" gradientUnits="userSpaceOnUse">
<stop stop-color="#3E3E3E"/>
<stop offset="1" stop-color="#464646" stop-opacity="0"/>
</linearGradient>
<linearGradient id="paint7_linear_519_6166" x1="236.591" y1="172.402" x2="-5.32619" y2="342.673" gradientUnits="userSpaceOnUse">
<stop stop-color="#3E3E3E"/>
<stop offset="1" stop-color="#464646" stop-opacity="0"/>
</linearGradient>
<linearGradient id="paint8_linear_519_6166" x1="210.97" y1="186.3" x2="19.0699" y2="315.755" gradientUnits="userSpaceOnUse">
<stop stop-color="#3E3E3E"/>
<stop offset="1" stop-color="#464646" stop-opacity="0"/>
</linearGradient>
<linearGradient id="paint9_linear_519_6166" x1="187.173" y1="199.769" x2="45.606" y2="289.703" gradientUnits="userSpaceOnUse">
<stop stop-color="#3E3E3E"/>
<stop offset="1" stop-color="#464646" stop-opacity="0"/>
</linearGradient>
<linearGradient id="paint10_linear_519_6166" x1="167.428" y1="212.138" x2="75.1509" y2="265.909" gradientUnits="userSpaceOnUse">
<stop stop-color="#3E3E3E"/>
<stop offset="1" stop-color="#464646" stop-opacity="0"/>
</linearGradient>
</defs>
</svg>
