<svg width="100" height="100" viewBox="0 0 100 100" fill="none" xmlns="http://www.w3.org/2000/svg">
<rect opacity="0.2" x="60" width="40" height="40" rx="4" fill="#A12CDD"/>
<path fill-rule="evenodd" clip-rule="evenodd" d="M21.3803 22H78.3909C79.2515 22 79.9534 22.7019 79.9534 23.5625V57.4805H19.8178V23.5625C19.8178 22.7019 20.5198 22 21.3803 22ZM52.1957 31.9809L51.6036 28.2808H48.1676L47.5753 31.9809C46.7118 32.2017 45.897 32.5434 45.1495 32.9867L42.1134 30.7884L39.6839 33.218L41.8823 36.2542C41.439 37.0017 41.0975 37.8166 40.8767 38.6798L37.1762 39.2722V42.7081L40.8765 43.3005C41.0975 44.1636 41.439 44.9786 41.8823 45.7261L39.6839 48.7623L42.1134 51.1919L45.1497 48.9936C45.8972 49.4369 46.712 49.7788 47.5753 49.9995L48.1676 53.6998H51.6036L52.1959 49.9994C53.059 49.7786 53.874 49.4369 54.6215 48.9936L57.6578 51.1919L60.0873 48.7623L57.889 45.7261C58.3323 44.9788 58.6742 44.1637 58.8948 43.3005L62.595 42.7083V39.2723L58.8945 38.68C58.6737 37.8167 58.3322 37.0019 57.8887 36.2544L60.087 33.2181L57.6575 30.7886L54.6212 32.987C53.874 32.5436 53.0592 32.2017 52.1957 31.9809ZM13.5679 78.9706H86.2031C86.7509 78.9706 87.2217 78.7134 87.5176 78.2527C87.8137 77.7919 87.8518 77.2567 87.624 76.7586L79.9532 59.9805H19.8178L12.147 76.7586C11.9192 77.2567 11.9573 77.7919 12.2534 78.2527C12.5493 78.7134 13.0203 78.9706 13.5679 78.9706ZM41.1275 74.2831L43.5431 66.2509H56.2281L58.6439 74.2831H41.1275ZM49.8856 35.9134C47.0818 35.9134 44.8089 38.1864 44.8089 40.9902C44.8089 43.7941 47.0818 46.0669 49.8856 46.0669C52.6893 46.0669 54.9623 43.7939 54.9623 40.9902C54.9623 38.1864 52.6893 35.9134 49.8856 35.9134Z" fill="#474747"/>
</svg>
