<svg width="140" height="140" viewBox="0 0 140 140" fill="none" xmlns="http://www.w3.org/2000/svg">
<g clip-path="url(#clip0_348_5322)">
<path d="M107.442 61.0525C107.155 60.1418 106.63 59.3248 105.923 58.6842C105.216 58.0435 104.351 57.6016 103.417 57.4051L84.6859 53.4588L74.6344 36.461C73.5942 34.9219 71.8576 34 69.9992 34C68.1409 34 66.4044 34.9219 65.3641 36.461L55.3137 53.4588L36.5824 57.4051C35.3313 57.6685 34.2152 58.3672 33.433 59.3783C32.6507 60.3895 32.2533 61.6451 32.3124 62.9218C32.3716 64.1986 32.8827 65.4129 33.7555 66.347L47.6853 81.2734L44.7164 99.8035C44.5055 101.117 44.7879 102.463 45.5111 103.58C46.2332 104.698 47.3437 105.508 48.6282 105.854C49.9129 106.201 51.28 106.059 52.4666 105.457L69.999 96.5647L87.5303 105.457C88.7166 106.059 90.0839 106.201 91.3686 105.854C92.6532 105.508 93.7637 104.698 94.4869 103.58C95.209 102.463 95.4914 101.117 95.2804 99.8035L92.3115 81.2734L106.243 66.347C106.893 65.6494 107.347 64.7923 107.557 63.8615C107.768 62.9318 107.728 61.9619 107.441 61.0523L107.442 61.0525Z" fill="url(#paint0_linear_348_5322)" fill-opacity="0.2"/>
<path d="M16.1537 75.3134H5.38475C3.46062 75.3134 1.68272 74.2877 0.720713 72.6214C-0.240238 70.9551 -0.240238 68.9025 0.720713 67.2362C1.68278 65.571 3.46068 64.5442 5.38475 64.5442H16.1537C18.0778 64.5442 19.8546 65.571 20.8166 67.2362C21.7786 68.9025 21.7786 70.9551 20.8166 72.6214C19.8545 74.2877 18.0777 75.3134 16.1537 75.3134Z" fill="url(#paint1_linear_348_5322)" fill-opacity="0.2"/>
<path d="M21.2407 52.4599C20.4516 52.4599 19.6726 52.2857 18.9583 51.9498L9.2082 47.3772C7.4671 46.5613 6.29303 44.8783 6.12903 42.962C5.96497 41.0446 6.83664 39.1863 8.41365 38.0871C9.99178 36.9867 12.0365 36.8114 13.7785 37.6273L23.5286 42.1999C25.0175 42.8986 26.1068 44.2401 26.4841 45.8416C26.8613 47.4432 26.4852 49.1297 25.4629 50.4188C24.4417 51.709 22.8859 52.4601 21.2408 52.4601L21.2407 52.4599Z" fill="url(#paint2_linear_348_5322)" fill-opacity="0.2"/>
<path d="M11.4955 102.739C9.84933 102.739 8.29466 101.987 7.27351 100.698C6.25119 99.4075 5.87618 97.7222 6.2523 96.1205C6.62953 94.5189 7.71771 93.1773 9.20775 92.4787L18.9578 87.9061V87.9072C20.6989 87.0903 22.7447 87.2655 24.3216 88.366C25.8997 89.4653 26.7714 91.3237 26.6073 93.2409C26.4433 95.1572 25.2691 96.8403 23.5281 97.6572L13.7781 102.23C13.0638 102.565 12.2836 102.739 11.4957 102.739L11.4955 102.739Z" fill="url(#paint3_linear_348_5322)" fill-opacity="0.2"/>
<path d="M134.616 75.3134H123.847C121.923 75.3134 120.146 74.2877 119.184 72.6214C118.222 70.9551 118.222 68.9025 119.184 67.2362C120.147 65.571 121.923 64.5442 123.847 64.5442H134.616C136.54 64.5442 138.318 65.571 139.28 67.2362C140.241 68.9025 140.241 70.9551 139.28 72.6214C138.318 74.2877 136.54 75.3134 134.616 75.3134Z" fill="url(#paint4_linear_348_5322)" fill-opacity="0.2"/>
<path d="M118.76 52.4599C117.114 52.461 115.559 51.7088 114.537 50.4197C113.515 49.1295 113.139 47.4431 113.516 45.8417C113.894 44.2401 114.982 42.8996 116.472 42.2011L126.222 37.6284C127.964 36.8126 130.009 36.9867 131.586 38.0872C133.164 39.1876 134.034 41.0458 133.871 42.9621C133.707 44.8784 132.533 46.5627 130.791 47.3784L121.041 51.951V51.9499C120.328 52.2858 119.548 52.4599 118.76 52.4599L118.76 52.4599Z" fill="url(#paint5_linear_348_5322)" fill-opacity="0.2"/>
<path d="M128.507 102.739C127.719 102.739 126.939 102.565 126.226 102.229L116.476 97.6564C114.734 96.8395 113.561 95.1564 113.397 93.2401C113.233 91.3227 114.103 89.4644 115.681 88.3652C117.259 87.2648 119.304 87.0895 121.046 87.9065L130.796 92.4791V92.478C132.286 93.1767 133.375 94.5182 133.753 96.1197C134.13 97.7213 133.754 99.4089 132.732 100.698C131.709 101.988 130.153 102.74 128.507 102.739L128.507 102.739Z" fill="url(#paint6_linear_348_5322)" fill-opacity="0.2"/>
</g>
<defs>
<linearGradient id="paint0_linear_348_5322" x1="39.8772" y1="177.179" x2="-21.1196" y2="125.865" gradientUnits="userSpaceOnUse">
<stop stop-color="#F94E94"/>
<stop offset="1" stop-color="#A12CDD"/>
</linearGradient>
<linearGradient id="paint1_linear_348_5322" x1="2.16302" y1="85.9479" x2="-6.13797" y2="72.6008" gradientUnits="userSpaceOnUse">
<stop stop-color="#F94E94"/>
<stop offset="1" stop-color="#A12CDD"/>
</linearGradient>
<linearGradient id="paint2_linear_348_5322" x1="8.16995" y1="67.6096" x2="-4.97946" y2="53.4707" gradientUnits="userSpaceOnUse">
<stop stop-color="#F94E94"/>
<stop offset="1" stop-color="#A12CDD"/>
</linearGradient>
<linearGradient id="paint3_linear_348_5322" x1="8.1699" y1="117.888" x2="-4.97934" y2="103.75" gradientUnits="userSpaceOnUse">
<stop stop-color="#F94E94"/>
<stop offset="1" stop-color="#A12CDD"/>
</linearGradient>
<linearGradient id="paint4_linear_348_5322" x1="120.626" y1="85.9479" x2="112.325" y2="72.6008" gradientUnits="userSpaceOnUse">
<stop stop-color="#F94E94"/>
<stop offset="1" stop-color="#A12CDD"/>
</linearGradient>
<linearGradient id="paint5_linear_348_5322" x1="115.434" y1="67.6085" x2="102.285" y2="53.4698" gradientUnits="userSpaceOnUse">
<stop stop-color="#F94E94"/>
<stop offset="1" stop-color="#A12CDD"/>
</linearGradient>
<linearGradient id="paint6_linear_348_5322" x1="115.438" y1="117.889" x2="102.288" y2="103.75" gradientUnits="userSpaceOnUse">
<stop stop-color="#F94E94"/>
<stop offset="1" stop-color="#A12CDD"/>
</linearGradient>
<clipPath id="clip0_348_5322">
<rect width="140" height="140" fill="white"/>
</clipPath>
</defs>
</svg>
