<svg width="16" height="10" viewBox="0 0 16 10" fill="none" xmlns="http://www.w3.org/2000/svg">
<path d="M12.8019 5.66145C12.5522 5.34615 12.6245 5.20634 12.8019 4.92479C12.8048 4.9219 14.8644 2.07649 15.0755 1.11131L15.0765 1.11035C15.1826 0.75841 15.0765 0.5 14.5664 0.5H12.879C12.45 0.5 12.2513 0.72177 12.1462 0.969574C12.1462 0.969574 11.2871 3.02528 10.0722 4.35783C9.67977 4.74255 9.49946 4.86694 9.28444 4.86694C9.17838 4.86694 9.01543 4.74352 9.01543 4.39158V1.11035C9.01543 0.688987 8.8949 0.5 8.54007 0.5H5.88751C5.61849 0.5 5.45843 0.6967 5.45843 0.879901C5.45843 1.27909 6.06589 1.37165 6.12856 2.49689V4.93829C6.12856 5.47247 6.03118 5.57082 5.81616 5.57082C5.24341 5.57082 3.85108 3.50643 3.02668 1.14506C2.86083 0.687059 2.69691 0.500965 2.26495 0.500965H0.57853C0.0973862 0.500965 0 0.722734 0 0.970538C0 1.40926 0.572745 3.58839 2.66606 6.4685C4.06128 8.43454 6.02539 9.5 7.81208 9.5C8.88622 9.5 9.01735 9.26377 9.01735 8.8559C9.01735 6.97761 8.91997 6.80019 9.458 6.80019C9.70773 6.80019 10.1368 6.92361 11.1396 7.87144C12.2851 8.99668 12.4741 9.5 13.1153 9.5H14.8027C15.2838 9.5 15.5277 9.26377 15.387 8.79709C15.0669 7.81648 12.8993 5.79644 12.8019 5.66145Z" fill="#A12CDD"/>
</svg>
