<svg xmlns="http://www.w3.org/2000/svg" viewBox="0 0 225 40.8"><defs><style>.cls-1,.cls-2{fill:#474748;}.cls-2{fill-rule:evenodd;}</style></defs><g id="Слой_2" data-name="Слой 2"><g id="Слой_1-2" data-name="Слой 1"><path class="cls-1" d="M0,0H6.4V6.4H3.2Z"/><path class="cls-2" d="M20.3,6.4H12.7V40.8l3.2-6.4h4.4a14,14,0,0,0,0-28ZM9.5,0,6.3,6.4V40.7h14A20.35,20.35,0,0,0,20.3,0Z"/><path class="cls-1" d="M65.9,30.5l-15-6.4V21.2l15-6.3v3L52,23.6V21.7l13.9,5.8Z"/><path class="cls-1" d="M128.9,31.8a8.53,8.53,0,0,1-6.1-2.1,7.7,7.7,0,0,1-2.2-5.9,9.28,9.28,0,0,1,.9-4.2,7,7,0,0,1,2.6-2.8,7.44,7.44,0,0,1,4-1,6.2,6.2,0,0,1,3.7,1,5.59,5.59,0,0,1,2.3,2.7,9.83,9.83,0,0,1,.8,4v1H123.7v-2h8.5l-.5.4a5.39,5.39,0,0,0-.9-3.3,3,3,0,0,0-2.6-1.1,3.35,3.35,0,0,0-2.9,1.3,6.13,6.13,0,0,0-1,3.8V24a5.41,5.41,0,0,0,1.2,3.8A4.79,4.79,0,0,0,129,29a8.75,8.75,0,0,0,2.4-.3,5.32,5.32,0,0,0,2.2-1.2l1.1,2.6a7.22,7.22,0,0,1-2.6,1.4A31.63,31.63,0,0,1,128.9,31.8Z"/><path class="cls-1" d="M138.1,31.5V19.8a12.1,12.1,0,0,0-.1-1.9,11.08,11.08,0,0,0-.2-1.9h3.7l.3,3.1h-.4a5.37,5.37,0,0,1,2.2-2.5,6.29,6.29,0,0,1,3.3-.9,5.29,5.29,0,0,1,4.1,1.5,7.05,7.05,0,0,1,1.4,4.8v9.5h-3.8V22.2a4.15,4.15,0,0,0-.7-2.7,2.52,2.52,0,0,0-2.1-.8,3.76,3.76,0,0,0-2.8,1.1,4,4,0,0,0-1,2.9v8.7h-3.9Z"/><path class="cls-1" d="M163.2,31.8a6.07,6.07,0,0,1-4.2-1.4,6.17,6.17,0,0,1-1.4-4.3V19h-3V16h3V12l3.8-1v5h4.1v2.9h-4.1v6.9A3,3,0,0,0,162,28a2.35,2.35,0,0,0,1.7.6,3.08,3.08,0,0,0,1-.1c.3-.1.6-.1.8-.2v3a10.38,10.38,0,0,1-1.2.3A4.25,4.25,0,0,1,163.2,31.8Z"/><path class="cls-1" d="M168.1,31.5V16h3.8V31.5Zm-.2-18.4V9.4h4.2v3.7Z"/><path class="cls-1" d="M183.2,31.8a8.16,8.16,0,0,1-4.2-1,7.52,7.52,0,0,1-2.8-2.8,8.68,8.68,0,0,1-1-4.4,8.3,8.3,0,0,1,1-4.3,6.62,6.62,0,0,1,2.8-2.7,9.3,9.3,0,0,1,4.2-1,10.47,10.47,0,0,1,3,.5,6.81,6.81,0,0,1,2.4,1.3l-1.2,2.7a4.53,4.53,0,0,0-1.9-1.1,4.77,4.77,0,0,0-2-.4,3.94,3.94,0,0,0-3.2,1.3,5.29,5.29,0,0,0-1.1,3.7,6.13,6.13,0,0,0,1.1,3.8,3.94,3.94,0,0,0,3.2,1.3,5.09,5.09,0,0,0,2-.4,5.24,5.24,0,0,0,1.9-1.1l1.2,2.6a5.66,5.66,0,0,1-2.4,1.4A8,8,0,0,1,183.2,31.8Z"/><path class="cls-1" d="M197.4,31.8a6,6,0,0,1-3.5-1,7.32,7.32,0,0,1-2.4-2.8,9.42,9.42,0,0,1-.9-4.3,9.42,9.42,0,0,1,.9-4.3,7.32,7.32,0,0,1,2.4-2.8,6,6,0,0,1,3.5-1,5.68,5.68,0,0,1,3.4,1,4.33,4.33,0,0,1,2,2.6h-.3l.3-3.3h3.7c-.1.6-.1,1.3-.2,1.9s-.1,1.3-.1,1.9V31.3h-3.8V28.1h.4a4.14,4.14,0,0,1-2,2.5A4.75,4.75,0,0,1,197.4,31.8Zm1.1-3a3.47,3.47,0,0,0,2.9-1.3,6,6,0,0,0,1.1-3.9,5.74,5.74,0,0,0-1.1-3.8,3.77,3.77,0,0,0-2.9-1.3,3.47,3.47,0,0,0-2.9,1.3,5.74,5.74,0,0,0-1.1,3.8,6.24,6.24,0,0,0,1.1,3.9A3.35,3.35,0,0,0,198.5,28.8Z"/><path class="cls-1" d="M210,30.5v-3l13.8-5.8v1.9L210,17.8v-3l15,6.3V24Z"/><path class="cls-1" d="M75.6,31.8a6.53,6.53,0,0,1-3.6-1A7.32,7.32,0,0,1,69.6,28a9.42,9.42,0,0,1-.9-4.3,9.42,9.42,0,0,1,.9-4.3A7.32,7.32,0,0,1,72,16.6a6.09,6.09,0,0,1,3.6-1,5.68,5.68,0,0,1,3.4,1,4.44,4.44,0,0,1,2,2.5h-.4V8.9h3.8V31.5H80.6V28.2H81a4.33,4.33,0,0,1-2,2.6A5.68,5.68,0,0,1,75.6,31.8Zm1.1-3a3.47,3.47,0,0,0,2.9-1.3,6,6,0,0,0,1.1-3.9,5.74,5.74,0,0,0-1.1-3.8,3.77,3.77,0,0,0-2.9-1.3,3.47,3.47,0,0,0-2.9,1.3,5.74,5.74,0,0,0-1.1,3.8,6.24,6.24,0,0,0,1.1,3.9A3.47,3.47,0,0,0,76.7,28.8Z"/><path class="cls-1" d="M96,31.8a8.53,8.53,0,0,1-6.1-2.1,7.7,7.7,0,0,1-2.2-5.9,9.28,9.28,0,0,1,.9-4.2,7,7,0,0,1,2.6-2.8,7.44,7.44,0,0,1,4-1,6.2,6.2,0,0,1,3.7,1,5.59,5.59,0,0,1,2.3,2.7,9.83,9.83,0,0,1,.8,4v1H90.8v-2h8.5l-.5.4a5.39,5.39,0,0,0-.9-3.3,3,3,0,0,0-2.6-1.1,3.35,3.35,0,0,0-2.9,1.3,6.13,6.13,0,0,0-1,3.8V24a5.41,5.41,0,0,0,1.2,3.8A4.79,4.79,0,0,0,96.1,29a8.75,8.75,0,0,0,2.4-.3,5.32,5.32,0,0,0,2.2-1.2l1.1,2.6a7.22,7.22,0,0,1-2.6,1.4A29.09,29.09,0,0,1,96,31.8Z"/><path class="cls-1" d="M109.6,31.5,102.9,16H107l4.8,12.1h-.9l5-12.1h3.8L113,31.5Z"/><path class="cls-1" d="M65.9,30.5l-15-6.4V21.2l15-6.3v3L52,23.6V21.7l13.9,5.8Z"/></g></g></svg>